<svg xmlns="http://www.w3.org/2000/svg" viewBox="0 0 447.87 362.22"><defs><style>.cls-1{fill:#fefefe;}.cls-2{fill:#120c80;}.cls-3{fill:#fe7f00;}.cls-4{fill:#fe1300;}</style></defs><g id="レイヤー_2" data-name="レイヤー 2"><g id="レイヤー_1-2" data-name="レイヤー 1"><path class="cls-1" d="M223.66,362.17q-110.55,0-221.09.05c-2.1,0-2.57-.47-2.57-2.57Q.09,181.11,0,2.57C0,.47.47,0,2.57,0Q223.94.09,445.31,0c2.09,0,2.56.47,2.56,2.57q-.08,178.53,0,357.08c0,2.1-.47,2.57-2.56,2.57Q334.48,362.13,223.66,362.17Z"/><path class="cls-2" d="M104.16,161.56c-6,0-12.11.08-18.16,0-2,0-4.62.19-5-2.43-.35-2.4,2.14-3,3.88-3.74,7.57-3,15.57-4.35,23.62-5.25,15.65-1.77,31.22-1.56,46.46,3.07a62.84,62.84,0,0,1,7.83,2.89c9.41,4.26,12.43,10.63,9.59,20.57-3.28,11.5-9.54,21.34-17.6,30-14.86,16.07-33.25,27-53,35.87-13.5,6.06-27.34,11.17-42,13.68a5.4,5.4,0,0,1-1.1.19c-1,0-2.13.47-2.87-.53s.09-1.95.51-2.82c4.6-9.33,9.59-18.46,14.73-27.51,8.46-14.87,16.86-29.78,27.4-43.33a30.61,30.61,0,0,1,7.54-7.39c1.27-.81,2.66-1.61,4.1-.48s1.25,2.54.85,4.08a20.22,20.22,0,0,1-2.34,5c-8.3,14.61-16.77,29.14-24.32,44.17A36.7,36.7,0,0,0,82,233c-1,3.23.81,5.36,4.18,5a16,16,0,0,0,5.32-1.59c16-7.78,31.11-16.79,43.53-29.74,7.29-7.6,13.32-16,16.07-26.38,1.74-6.59-.46-10.95-6.73-13.71-5.16-2.28-10.67-3.19-16.22-3.83A186.21,186.21,0,0,0,104.16,161.56Z"/><path class="cls-3" d="M204.78,233.91a218,218,0,0,1-41.31-4.19,30.91,30.91,0,0,1-5.8-1.95c-1.29-.56-3.1-1-2.89-2.94.24-2.12,2.26-2,3.72-2.21a34.47,34.47,0,0,1,5.29-.24c16.48-.11,33-.3,49.35-2.16A68.65,68.65,0,0,0,225.2,218c6.42-1.92,8.17-6.05,4.9-11.95-3.94-7.12-9.23-13.28-14.29-19.61-6.91-8.66-14.75-16.53-21.42-25.39a48.87,48.87,0,0,1-7-12c-3.11-8.23-1.14-14.44,6.11-19.4,6.14-4.21,13.1-6.18,20.35-7.11,14.55-1.88,29-.75,43.29,2.21a19.41,19.41,0,0,1,7.93,3.27c.82.62,1.71,1.33,1.52,2.49-.21,1.35-1.45,1.7-2.52,1.85a47.48,47.48,0,0,1-5.84.4c-12.19.11-24.39.1-36.48,2a44.43,44.43,0,0,0-10,2.53c-4.89,2-5.9,5.11-2.86,9.39,6.22,8.73,13.2,16.86,19.78,25.3,5.79,7.41,11.67,14.75,16.92,22.55,2.82,4.18,5.35,8.51,6.57,13.47,1.61,6.55-.22,12-5.55,16.1-7.31,5.63-15.93,7.83-24.88,9A125.46,125.46,0,0,1,204.78,233.91Z"/><path class="cls-4" d="M145.68,63.2c-3.82,0-7.63,0-11.45,0a14.86,14.86,0,0,1-3.06-.2c-1.3-.29-3-.23-3.27-2.05s1.22-2.33,2.48-2.92c5.63-2.64,11.67-3.71,17.74-4.59,15.35-2.23,30.61-2.1,45.69,2a38.17,38.17,0,0,1,8.3,3.19c7.35,4,10.28,10.36,8.32,18.49-2.52,10.46-8.46,19-15.81,26.5-15.91,16.33-35.51,26.76-56.51,34.88a6.83,6.83,0,0,1-1.91.39c-.44,0-1,0-1.1-.58a1.3,1.3,0,0,1,.34-1,21.23,21.23,0,0,1,2-1.54C152.09,125,166,113.42,178,99.64A73.76,73.76,0,0,0,189.2,83a25.71,25.71,0,0,0,1.5-3.88c1.32-4.63-.1-8-4.34-10.27-4.87-2.61-10.29-3.16-15.62-3.85C162.43,63.92,154.05,63.6,145.68,63.2Z"/><path class="cls-2" d="M371.66,269.57c-5,6.23-9.59,12-14.57,18.27,3.87,0,7.25.11,10.63,0,1.76-.08,2.18.61,2.33,2.18.62,6.34.66,6.32-5.76,6.35-2.05,0-4.09.16-6.14.18a16.13,16.13,0,0,0-14.54,8.33c-2.36,4-5.43,5.57-10,5-3.09-.4-6.26-.07-10-.07l12.88-15.26c10-11.8,20-23.57,29.89-35.42a5,5,0,0,1,4.47-2.08c3.63.17,7.27.16,10.9,0,1.88-.08,2.56.52,2.83,2.36,1.85,12.6,3.81,25.19,5.73,37.78.55,3.58,1.06,7.17,1.68,10.74.25,1.46-.13,1.95-1.67,1.91-3.63-.1-7.26-.11-10.89,0-1.6.05-2-.58-2.16-2C375.47,295.2,373.59,282.7,371.66,269.57Z"/><path class="cls-2" d="M218.57,269.74l-14.42,18.1c3.71,0,7,.1,10.25,0,1.82-.07,2.56.3,2.68,2.34.36,6.18.47,6.16-5.66,6.18-2,0-4.09.13-6.14.18-6,.17-11,2.35-14,7.63-2.69,4.63-6.36,6.45-11.67,5.67-2.71-.4-5.52-.07-8.91-.07,3.81-4.52,7.23-8.61,10.68-12.68Q197.48,278,213.6,258.91a4.46,4.46,0,0,1,4-1.94c3.81.15,7.64.15,11.45,0,1.83-.07,2.29.59,2.55,2.32q3.63,24.25,7.49,48.48c.21,1.35.25,2.05-1.48,2-3.63-.12-7.27-.16-10.89,0-1.95.1-2.26-.78-2.49-2.4-1.66-12-3.41-23.92-5.15-35.88A16.43,16.43,0,0,0,218.57,269.74Z"/><path class="cls-2" d="M169.4,299.29c-2.56,3.1-5.12,6.15-7.63,9.24a3.08,3.08,0,0,1-2,.94,55.82,55.82,0,0,1-26.27-.19c-13-3.43-17.53-11.86-13.51-24.77,3-9.64,9.42-16.6,18-21.52,13.15-7.55,27.19-8.91,41.79-5.26a10.05,10.05,0,0,1,4.22,1.81c-2.23,2.55-4.49,5-6.56,7.59-1.07,1.33-1.88.53-2.86.11-14.3-6.18-33.43,1.48-38.92,15.61a22.46,22.46,0,0,0-1.32,5.11c-1,7.2,3.65,12.38,11.75,13.28a58.4,58.4,0,0,0,21-1.79C167.82,299.27,168.46,298.75,169.4,299.29Z"/><path class="cls-2" d="M306.15,257a9.76,9.76,0,0,1-.57,1c-2.25,2.71-4,6.64-6.91,7.8-3.46,1.39-7.88.65-11.86.39-3-.2-4.25.85-5.2,3.73-4.17,12.59-8.68,25.08-13,37.64-.53,1.58-1.17,2.22-2.9,2.16-4-.14-8,0-12.42,0,1.8-5.25,3.51-10.28,5.24-15.29,2.92-8.43,5.75-16.88,8.83-25.24,1-2.66.29-3-2.22-2.93-5.21.17-10.43,0-15.64.08-1.75,0-2.31-.27-1.69-2.15,2.37-7.17,2.32-7.18,10-7.18h48.35Z"/><path class="cls-2" d="M305.09,309.73c-2-.25-4.51.42-6.94-.34.74-2.28,1.43-4.58,2.22-6.84,5-14.34,10.13-28.67,15.11-43,.63-1.84,1.4-2.68,3.49-2.56,3.43.21,6.88.1,10.32,0,1.38,0,1.77.22,1.25,1.69q-8.81,24.76-17.46,49.57a1.94,1.94,0,0,1-2.26,1.49C309.06,309.66,307.29,309.73,305.09,309.73Z"/></g></g></svg>