<svg xmlns="http://www.w3.org/2000/svg" viewBox="0 0 595.93 385.56"><defs><style>.a{fill:#14a5b0;}.b{fill:#4693c7;}.c{fill:#fff;}.d{fill:#f3f8fa;}</style></defs><path class="a" d="M62,90.74a2.11,2.11,0,0,1,0,4.17H29.88a2.11,2.11,0,0,1,0-4.17ZM59.72,65.58a2.11,2.11,0,0,1,0,4.17H32.2a2.11,2.11,0,0,1,0-4.17Zm-3.44,12a2.11,2.11,0,0,1,0,4.17H35.68a2.11,2.11,0,0,1,0-4.17Z" transform="translate(-27.13 -61.98)"/><path class="a" d="M73.44,75.51a2.35,2.35,0,0,1,.66,1.54A2.17,2.17,0,0,1,72,79.14a2.06,2.06,0,0,1-1.51-.69,33.13,33.13,0,0,0-3.13-2.94A1.94,1.94,0,0,1,66.56,74a2.12,2.12,0,0,1,2.16-1.93,2.39,2.39,0,0,1,1.36.46A20.3,20.3,0,0,1,73.44,75.51ZM74.1,83a2.08,2.08,0,0,1,2.24,1.93,1.68,1.68,0,0,1-.08.62,47.76,47.76,0,0,1-4.44,10.28,2.38,2.38,0,0,1-2.09,1.24,2,2,0,0,1-2.13-1.9A2.33,2.33,0,0,1,68,93.94a45.17,45.17,0,0,0,4.17-9.58A1.92,1.92,0,0,1,74.1,83Zm1.78-16.82a2.43,2.43,0,0,1,.61,1.51,2.09,2.09,0,0,1-2.08,2A2,2,0,0,1,72.86,69c-.93-1-2.09-2.13-2.94-2.86a1.93,1.93,0,0,1-.77-1.43,2.05,2.05,0,0,1,2.13-1.86,2.32,2.32,0,0,1,1.43.46A23.62,23.62,0,0,1,75.88,66.19Zm19.86,7.35c3.21,0,4.52,1.27,4.52,4v16c0,3-1.23,4.18-4.09,4.18a11.66,11.66,0,0,1-2.67-.28A1.77,1.77,0,0,1,92,95.57a1.74,1.74,0,0,1,2-1.86,10.65,10.65,0,0,0,1.51.16c.54,0,.73-.2.73-.81V89.62H91v6.1c0,1-1,1.55-2,1.55s-2-.54-2-1.55v-6.1H82.33V96.3c0,1-1,1.55-2,1.55s-2-.5-2-1.55V77.52c0-2.71,1.31-4,4.48-4H87V71H78.39a1.82,1.82,0,0,1,0-3.55H87V63.6c0-1.08,1-1.62,2-1.62s2,.54,2,1.62v3.87h5c-.16-.08-.27-.16-.43-.23a21.39,21.39,0,0,0-2.2-1.43,1.64,1.64,0,0,1-.93-1.47,1.7,1.7,0,0,1,1.74-1.7,2.11,2.11,0,0,1,1,.23,15.84,15.84,0,0,1,2.51,1.58,1.87,1.87,0,0,1,.73,1.4,1.79,1.79,0,0,1-1,1.62h3.59a1.81,1.81,0,0,1,0,3.55h-10v2.52ZM87.08,80V77H83.57c-.93,0-1.24.27-1.24,1.12V80Zm0,6.34v-3H82.33v3ZM91,80h5.21V78.14c0-.85-.19-1.12-1.23-1.12H91Zm0,3.33v3h5.21v-3Z" transform="translate(-27.13 -61.98)"/><path class="a" d="M109.15,79.49c-.19.31-.38.62-.58.93a2.2,2.2,0,0,1-1.89,1.12,2,2,0,0,1-2-1.9,2.32,2.32,0,0,1,.39-1.27,47,47,0,0,0,5.6-14.57,2,2,0,0,1,2-1.47A2,2,0,0,1,115,64.22a2.43,2.43,0,0,1-.08.54,51.83,51.83,0,0,1-3.2,9.74,1.68,1.68,0,0,1,1.62,1.55V96.53c0,1-1,1.55-2.05,1.55s-2.09-.5-2.09-1.55Zm11.79,17.28c-3.13,0-4.71-1.39-4.71-4.1V68.09c0-2.71,1.58-4.06,4.71-4.06H135c3.09,0,4.76,1.35,4.76,4.06V92.67c-.08,3-2,4.06-4.76,4.1Zm13.72-3.56c.93,0,1.24-.39,1.24-1.31v-23c0-.93-.31-1.32-1.24-1.32H121.33c-.93,0-1.24.39-1.24,1.32v23c0,.92.31,1.27,1.24,1.31Zm-4.44-13.6c2.51,0,3.21,1.08,3.21,3.13v4.83c0,2.05-.93,3.13-3.4,3.13h-4.1c-2.51,0-3.4-1.08-3.4-3.13V82.74c0-2,.73-3.13,3.21-3.13h.34V76.24h-3.75c-.85,0-1.27-.81-1.27-1.58s.42-1.59,1.27-1.59h3.75V70c0-1,.93-1.47,1.82-1.47s1.82.47,1.82,1.47v3.09h3.94c.85,0,1.27.78,1.27,1.59s-.42,1.58-1.27,1.58h-3.94v3.37Zm-1,8c.57,0,.77-.27.77-.74V83.35c0-.46-.2-.73-.77-.73h-2.4c-.58,0-.77.27-.77.73v3.52a.68.68,0,0,0,.77.74Z" transform="translate(-27.13 -61.98)"/><path class="a" d="M165.2,75.86a33.1,33.1,0,0,0,5.56,10.2,26.44,26.44,0,0,0,4.49,4.29,32.94,32.94,0,0,0,3,1.93,2.24,2.24,0,0,1-.92,4.29,2.18,2.18,0,0,1-1.16-.31C169.72,92.71,164.62,86.1,162.07,78a27.93,27.93,0,0,1-4.72,10,32.93,32.93,0,0,1-9.7,8.54,2.69,2.69,0,0,1-1.35.39,2.08,2.08,0,0,1-2.05-2.13A2.12,2.12,0,0,1,145.41,93,28.21,28.21,0,0,0,154,85.52c3.32-4.52,5.14-10.36,5.14-20.56a2.25,2.25,0,0,1,4.44,0c0,1.43,0,2.78-.11,4.06A46.82,46.82,0,0,0,165.2,75.86Z" transform="translate(-27.13 -61.98)"/><path class="a" d="M204.47,69c3.21,0,4.83,1.23,4.83,3.55a6.94,6.94,0,0,1-.35,2c-2.7,9-10.43,17.78-19,22.42a2.81,2.81,0,0,1-1.28.35,2.16,2.16,0,0,1-2.13-2.17,2.35,2.35,0,0,1,1.4-2.09,37.69,37.69,0,0,0,10-8.07,34.78,34.78,0,0,0-4.49-3.6,2,2,0,0,1-1-1.7,2.13,2.13,0,0,1,2.12-2,2.43,2.43,0,0,1,1.36.43,35,35,0,0,1,4.63,3.55A30.8,30.8,0,0,0,204.47,74a1.44,1.44,0,0,0,.11-.54c0-.42-.3-.62-1-.62l-9.43.08a41.63,41.63,0,0,1-6.49,7.65,2.51,2.51,0,0,1-1.7.7,2.12,2.12,0,0,1-2.17-2,2.45,2.45,0,0,1,.93-1.82A40.39,40.39,0,0,0,194,64.34a2.25,2.25,0,0,1,2.16-1.47,2.08,2.08,0,0,1,2.2,2,2.3,2.3,0,0,1-.19.93c-.46,1.08-1,2.16-1.62,3.28Z" transform="translate(-27.13 -61.98)"/><path class="a" d="M235.81,69.36c3.21,0,4.84,1.24,4.84,3.56a7,7,0,0,1-.35,2,38.15,38.15,0,0,1-17.7,21.87,2.81,2.81,0,0,1-1.28.35,2.2,2.2,0,0,1-2.2-2.2,2.47,2.47,0,0,1,1.35-2.09,33.09,33.09,0,0,0,15.19-18.36,1.43,1.43,0,0,0,.12-.54c0-.42-.31-.62-1.05-.62l-8.66.08a40.59,40.59,0,0,1-6.3,7.34,2.54,2.54,0,0,1-1.77.74,2.12,2.12,0,0,1-2.17-2.05,2.66,2.66,0,0,1,1-1.86,40.66,40.66,0,0,0,9.31-13.29,2.28,2.28,0,0,1,2.13-1.47,2.16,2.16,0,0,1,2.28,2.05,2.79,2.79,0,0,1-.19.89c-.51,1.2-1.09,2.39-1.74,3.63Z" transform="translate(-27.13 -61.98)"/><path class="a" d="M256,77.48a2.21,2.21,0,0,1,.81,1.7,2.4,2.4,0,0,1-2.28,2.36,2.27,2.27,0,0,1-1.43-.54,42.33,42.33,0,0,0-4.75-3.29,1.92,1.92,0,0,1-1.08-1.7,2.34,2.34,0,0,1,2.35-2.24,2.68,2.68,0,0,1,1.16.27A23.59,23.59,0,0,1,256,77.48Zm18.48-4a2.23,2.23,0,0,1,2.32,2.09,2.62,2.62,0,0,1-.35,1.23c-5.14,9.55-14.65,16-24.74,18.9a3.06,3.06,0,0,1-.81.12,2.14,2.14,0,0,1-2.16-2.2,2.32,2.32,0,0,1,1.77-2.21c9.55-2.86,17.09-8.15,21.92-16.73A2.31,2.31,0,0,1,274.47,73.46Zm-13.88-4.72a2.25,2.25,0,0,1,.81,1.71,2.37,2.37,0,0,1-2.28,2.31,2.21,2.21,0,0,1-1.43-.54A43.06,43.06,0,0,0,252.94,69a1.89,1.89,0,0,1-1.08-1.7A2.41,2.41,0,0,1,254.25,65a2.74,2.74,0,0,1,1.16.3A25.34,25.34,0,0,1,260.59,68.74Z" transform="translate(-27.13 -61.98)"/><path class="a" d="M310.34,78a2.21,2.21,0,0,1,0,4.41H282.12a2.21,2.21,0,0,1,0-4.41Z" transform="translate(-27.13 -61.98)"/><path class="a" d="M334.34,71.45c-4.64.62-10.78,1.55-16.35,2.36a2.14,2.14,0,0,1-2.55-2.17,2.07,2.07,0,0,1,2-2.12c8-1,18-2.13,26.05-2.86a2,2,0,0,1,2.32,2A2.08,2.08,0,0,1,344,70.79a13.25,13.25,0,0,0-4.25,1.55c-6,3.44-7.31,7.46-7.31,11.13,0,4.29,3,6.92,8.39,7.58a2.29,2.29,0,1,1-.42,4.56c-7.31-.54-12.45-5.45-12.45-12a15.58,15.58,0,0,1,6.34-12.06ZM340,77.67a1.61,1.61,0,0,1,1.62-1.47,1.63,1.63,0,0,1,1.09.43,19.36,19.36,0,0,1,3,3.36,1.64,1.64,0,0,1,.35,1.05,1.58,1.58,0,0,1-1.55,1.54,1.54,1.54,0,0,1-1.27-.73,28,28,0,0,0-2.86-3.29A1.39,1.39,0,0,1,340,77.67Zm3.83-3.09a1.55,1.55,0,0,1,1.62-1.43,1.91,1.91,0,0,1,1.16.46,20,20,0,0,1,3,3.17,1.86,1.86,0,0,1,.42,1.16,1.51,1.51,0,0,1-1.55,1.47,1.69,1.69,0,0,1-1.35-.69c-.89-1.12-2-2.28-2.86-3.21A1.27,1.27,0,0,1,343.85,74.58Z" transform="translate(-27.13 -61.98)"/><path class="a" d="M359.23,64.11c1.24,0,2.51.81,2.2,2.32a74.12,74.12,0,0,0-2,16,78.91,78.91,0,0,0,.85,11.48,2.21,2.21,0,0,1-4.37.54A75.28,75.28,0,0,1,355,82.35a76.1,76.1,0,0,1,2.13-16.74A2,2,0,0,1,359.23,64.11Zm19.09,5.64v1.47c1.51-.16,2.94-.39,4.26-.62a1.8,1.8,0,0,1,2.32,1.82,2,2,0,0,1-1.71,2c-1.5.31-3.17.55-4.83.74,0,3.32.12,6.65.47,9.93a26.79,26.79,0,0,1,6.45,3.6,2.31,2.31,0,0,1,1,1.89,2.09,2.09,0,0,1-2,2.09,2.48,2.48,0,0,1-1.47-.58A28.91,28.91,0,0,0,379,89.58c-.42,3.21-2.63,5.52-7.42,5.52-4.33,0-7-2.16-7-5.64,0-3.21,2.59-5.6,7.61-5.6a19.17,19.17,0,0,1,2.55.19c-.23-2.82-.31-5.64-.35-8.46-1.66.11-3.28.15-4.79.15a18,18,0,0,1-2.13-.08,1.94,1.94,0,0,1-1.77-2,1.82,1.82,0,0,1,2-1.93c.58,0,1.19.08,1.89.08,1.51,0,3.09,0,4.76-.16V65.85a2,2,0,0,1,4,0Zm-3.44,18.17a10.81,10.81,0,0,0-2.74-.43c-2.7,0-3.56.85-3.56,2s1.05,1.82,3,1.82S374.85,90.35,374.88,87.92Z" transform="translate(-27.13 -61.98)"/><path class="a" d="M33.87,128.08a20.92,20.92,0,0,1-3.59,3.77,1.74,1.74,0,0,1-1.11.43,1.47,1.47,0,0,1-.9-2.69,23.33,23.33,0,0,0,4.67-5.1H29.88a1.46,1.46,0,0,1,0-2.85h3.86V119.3H29.11a1.46,1.46,0,0,1,0-2.85h6.4A26.38,26.38,0,0,0,36.83,113a1.4,1.4,0,0,1,1.4-1,1.44,1.44,0,0,1,1.51,1.33,1.25,1.25,0,0,1-.09.46c-.37,1.08-.71,2-1,2.72h3.09c.77,0,1.14.71,1.14,1.42s-.37,1.43-1.14,1.43H36.9v2.34h3.77c.77,0,1.14.72,1.14,1.43s-.37,1.42-1.14,1.42H36.9v1.24a18.21,18.21,0,0,1,3.49,2,1.54,1.54,0,0,1,.71,1.3,1.5,1.5,0,0,1-1.45,1.49,1.47,1.47,0,0,1-.87-.31c-.58-.44-1.23-.87-1.88-1.3v4.42a1.41,1.41,0,0,1-1.58,1.33,1.42,1.42,0,0,1-1.58-1.33v-1.58Zm-.19-21.24c0-.87.84-1.27,1.64-1.27S37,106,37,106.84v1.91h3.86c.78,0,1.15.71,1.15,1.43s-.37,1.42-1.15,1.42H30a1.27,1.27,0,0,1-1.14-1.42c0-.72.4-1.43,1.14-1.43h3.68Zm.93,8.07a1.4,1.4,0,0,1-1.48,1.29,1.36,1.36,0,0,1-1.33-.89c-.22-.47-.34-.74-.62-1.36a1.23,1.23,0,0,1-.16-.65,1.36,1.36,0,0,1,1.46-1.24,1.52,1.52,0,0,1,1.39.87c.24.52.4.83.65,1.45A1.64,1.64,0,0,1,34.61,114.91ZM44,109.65c0-.9.83-1.33,1.63-1.33a1.83,1.83,0,0,1,1.05.28,37.74,37.74,0,0,0,5.88-2,2.07,2.07,0,0,1,.8-.19A1.6,1.6,0,0,1,54.86,108a1.49,1.49,0,0,1-.93,1.39,41.17,41.17,0,0,1-6.71,2.23v4.11h8.23a1.28,1.28,0,0,1,1.23,1.42,1.3,1.3,0,0,1-1.23,1.46H53.34V132.8a1.65,1.65,0,0,1-3.27,0V118.65H47.19c-.18,6.36-1.45,11.06-3.58,14.5a1.79,1.79,0,0,1-1.52.89,1.54,1.54,0,0,1-1.61-1.48,2.21,2.21,0,0,1,.37-1.08c2-3.1,3.1-7.64,3.1-14.6Z" transform="translate(-27.13 -61.98)"/><path class="a" d="M66,115.93a12.86,12.86,0,0,1-3.62,7.42,1.83,1.83,0,0,1-1.3.58,1.48,1.48,0,0,1-1.51-1.45,1.77,1.77,0,0,1,.52-1.21,10.14,10.14,0,0,0,2.72-5.34H60.27a1.2,1.2,0,0,1-1.14-1.33,1.19,1.19,0,0,1,1.14-1.33h2.82v-3.5H61.2a1.2,1.2,0,0,1-1.14-1.33,1.18,1.18,0,0,1,1.14-1.32H73.78A1.2,1.2,0,0,1,75,108.44a1.23,1.23,0,0,1-1.18,1.33h-1.7v3.5H74.5a1.21,1.21,0,0,1,1.17,1.33,1.23,1.23,0,0,1-1.17,1.33H72.08v5.68a1.39,1.39,0,0,1-1.57,1.3,1.41,1.41,0,0,1-1.58-1.3v-5.68Zm5.28,12.45H63.8a1.22,1.22,0,0,1-1.14-1.33,1.2,1.2,0,0,1,1.14-1.32h7.51v-1.46A1.47,1.47,0,0,1,73,122.94c.83,0,1.64.44,1.64,1.33v1.46h7.7a1.18,1.18,0,0,1,1.14,1.32,1.2,1.2,0,0,1-1.14,1.33h-7.7v2.51H85.66a1.38,1.38,0,0,1,0,2.72H60.34a1.38,1.38,0,0,1,0-2.72h11Zm-2.38-15.11v-3.5H66.24v3.5Zm8-4.11c0-.87.8-1.3,1.61-1.3s1.6.43,1.6,1.3v8.09c0,.87-.8,1.3-1.6,1.3s-1.61-.43-1.61-1.3Zm9,10.72c0,2.48-1.14,3.43-3.61,3.43a10.45,10.45,0,0,1-1.61-.12,1.51,1.51,0,0,1-1.36-1.51,1.47,1.47,0,0,1,1.76-1.52,5,5,0,0,0,.87.09c.49,0,.68-.15.68-.74V107.76c0-.86.8-1.29,1.6-1.29s1.67.43,1.67,1.32Z" transform="translate(-27.13 -61.98)"/><path class="a" d="M108.63,115.71c0-1.14-.46-1.45-2-1.45H92.93a1.75,1.75,0,0,1,0-3.47h14.4c3.53,0,4.89,1.36,4.89,4.15v11.4c0,2.79-1.36,4.15-4.89,4.15H92.56a1.75,1.75,0,0,1,0-3.47h14.09c1.52,0,2-.31,2-1.45Z" transform="translate(-27.13 -61.98)"/><path class="a" d="M124.9,130.76c-3.56,0-5-1.45-5-4.35V114.87c0-2.9,1.48-4.35,5-4.35h12c3.56,0,5,1.45,5,4.35v11.54c0,2.9-1.48,4.35-5,4.35Zm11.56-3.33c1.42,0,1.86-.41,1.86-1.46V115.31c0-1-.44-1.46-1.86-1.46h-11.1c-1.42,0-1.85.41-1.85,1.46V126c0,1,.43,1.46,1.85,1.46Z" transform="translate(-27.13 -61.98)"/><path class="a" d="M158.51,115c0-.43,0-.9,0-1.36v-5.6a1.63,1.63,0,0,1,1.82-1.51c.93,0,1.83.49,1.83,1.51V114c0,.37,0,.71,0,1.08h8.75a1.68,1.68,0,0,1,0,3.34H162c-.77,6.89-3.4,11.34-7.91,14.43a2.08,2.08,0,0,1-1.18.41,1.8,1.8,0,0,1-1-3.34c3.71-2.63,5.72-5.94,6.37-11.5h-9.24a1.68,1.68,0,0,1,0-3.34Z" transform="translate(-27.13 -61.98)"/><path class="a" d="M194.87,111.66c3.4,0,4.67,1.45,4.67,3.52a6.32,6.32,0,0,1-.06.75,20.44,20.44,0,0,1-13,16.81,2.61,2.61,0,0,1-.92.19,1.76,1.76,0,0,1-1.83-1.76A2,2,0,0,1,185,129.4c6.12-2.59,9.71-7,10.6-13.17.16-1.11-.12-1.36-1.39-1.36h-11.5c-1.17,0-1.48.34-1.48,1.3v4a1.64,1.64,0,0,1-1.82,1.52,1.66,1.66,0,0,1-1.83-1.52v-4.82c0-2.47,1.33-3.68,4.21-3.68h4.63v-3.4a1.81,1.81,0,0,1,3.59,0v3.4Z" transform="translate(-27.13 -61.98)"/><path class="a" d="M212.93,122a38.85,38.85,0,0,1-6.21,4,1.65,1.65,0,0,1-.84.22,1.57,1.57,0,0,1-1.51-1.58,1.61,1.61,0,0,1,.92-1.42,36.62,36.62,0,0,0,12.31-10.39,1.42,1.42,0,0,1,1.2-.64,1.71,1.71,0,0,1,1.7,1.57,1.61,1.61,0,0,1-.3.9,36.76,36.76,0,0,1-5.2,5.62,1.31,1.31,0,0,1,1.12,1.27v11.13a1.42,1.42,0,0,1-1.58,1.33c-.81,0-1.61-.43-1.61-1.33Z" transform="translate(-27.13 -61.98)"/><path class="a" d="M231.36,110.61a1.7,1.7,0,0,1,1.86-1.61,1.64,1.64,0,0,1,1.79,1.61v3.49c0,8.53-2.2,13.6-6.46,17.25a2.09,2.09,0,0,1-1.39.56,1.85,1.85,0,0,1-1.83-1.79,2,2,0,0,1,.75-1.49c3.67-3.31,5.28-7.11,5.28-14.65Zm11.53,16.26c0,.46.13.71.44.71a1.51,1.51,0,0,0,.61-.22,18.76,18.76,0,0,0,5.82-5.22,1.87,1.87,0,0,1,1.51-.84,1.78,1.78,0,0,1,1.82,1.67,2,2,0,0,1-.37,1.09,21.77,21.77,0,0,1-7.57,6.77,6,6,0,0,1-2.66.74c-1.88,0-3.24-1.33-3.24-3.62V109.84a1.84,1.84,0,0,1,3.64,0Z" transform="translate(-27.13 -61.98)"/><path class="a" d="M272.73,109.74c2.41-.06,3.65,1,3.65,2.66a5.06,5.06,0,0,1-.34,1.67,28.52,28.52,0,0,1-4.24,7.39,45.9,45.9,0,0,1,8.29,7.33,2.16,2.16,0,0,1,.59,1.39,2,2,0,0,1-2,1.85,1.92,1.92,0,0,1-1.49-.74,47.3,47.3,0,0,0-7.6-7.26,35.9,35.9,0,0,1-10.08,7.66,2,2,0,0,1-.9.22,1.81,1.81,0,0,1-1.79-1.79,1.72,1.72,0,0,1,1.05-1.58c6.43-3.25,11.84-8.5,14.29-14.5a1.19,1.19,0,0,0,.12-.49c0-.28-.25-.41-.77-.41l-11.07.22a1.56,1.56,0,0,1-1.55-1.67,1.59,1.59,0,0,1,1.52-1.73Z" transform="translate(-27.13 -61.98)"/><path class="a" d="M291.35,111.75c-1,0-1.36.34-1.36,1.18v1.94a19.22,19.22,0,0,1-2.6,10.14,1.78,1.78,0,0,1-1.54,1,1.52,1.52,0,0,1-1.55-1.48,2,2,0,0,1,.28-1,16.77,16.77,0,0,0,2.19-8.84v-2.17c0-2.34,1-3.36,3.84-3.36h9.21c-.06-.78-.12-1.58-.16-2.42a1.4,1.4,0,0,1,1.55-1.39,1.44,1.44,0,0,1,1.55,1.33c0,.87.09,1.67.15,2.48h3.15l-.06-.07a9.85,9.85,0,0,0-1.42-1.08,1.21,1.21,0,0,1-.62-1,1.33,1.33,0,0,1,1.33-1.27,1.68,1.68,0,0,1,.71.19,8.89,8.89,0,0,1,1.83,1.3,1.19,1.19,0,0,1,.46,1,1.33,1.33,0,0,1-.46,1H311a1.31,1.31,0,0,1,0,2.59h-7.7a22.38,22.38,0,0,0,1.76,5.6,18.52,18.52,0,0,0,1.8-3.31,1.42,1.42,0,0,1,1.36-.93,1.47,1.47,0,0,1,1.51,1.39,2,2,0,0,1-.15.68,21.85,21.85,0,0,1-2.94,4.86c1,1.39,1.76,1.91,2.41,1.91s.87-.37,1.08-1.67a1.34,1.34,0,0,1,1.39-1.14,1.4,1.4,0,0,1,1.52,1.52c-.4,3-1.79,4.39-3.87,4.39-1.51,0-3.12-.93-4.6-2.73a22.78,22.78,0,0,1-3.19,2.6,1.87,1.87,0,0,1-1,.34,1.41,1.41,0,0,1-1.39-1.39,1.52,1.52,0,0,1,.75-1.24,19.56,19.56,0,0,0,3.21-2.69c-.09-.18-.18-.34-.28-.52a26,26,0,0,1-2.47-7.67Zm-2.72,14.84a1.5,1.5,0,0,1,1.61,1.39,2,2,0,0,1-.16.65,17,17,0,0,1-1.92,3.46,1.7,1.7,0,0,1-1.36.68,1.59,1.59,0,0,1-1.63-1.45,1.56,1.56,0,0,1,.34-1,14.76,14.76,0,0,0,1.7-2.9A1.49,1.49,0,0,1,288.63,126.59Zm5.32-3.68c-2.11,0-2.82-.65-2.82-2.32V119c0-1.67.71-2.32,2.82-2.32h2.93c2.1,0,2.82.65,2.82,2.32v1.57c0,2-1.06,2.29-2.82,2.32Zm-1.83-7.51c-.62,0-.93-.59-.93-1.17a1,1,0,0,1,.93-1.15h6.52a1,1,0,0,1,.93,1.15c0,.58-.31,1.17-.93,1.17Zm-.49,11.84c0-.87.8-1.3,1.6-1.3s1.61.43,1.61,1.3v3.43c0,.65.28.84,3.68.84,3.83,0,4.36-.34,4.51-1.83a1.44,1.44,0,0,1,1.55-1.23,1.49,1.49,0,0,1,1.61,1.57c-.31,3-1.61,4-7.67,4s-6.89-.59-6.89-3Zm4.76-6.4c.49,0,.62-.12.62-.49v-1.12c0-.37-.13-.49-.62-.49h-1.95c-.49,0-.62.12-.62.49v1.12c0,.4.25.49.62.49Zm4.3,5.69a1.53,1.53,0,0,1,.64,1.2,1.47,1.47,0,0,1-1.45,1.46,1.51,1.51,0,0,1-1-.37c-.52-.44-1.2-1-1.79-1.36a1.34,1.34,0,0,1-.65-1A1.5,1.5,0,0,1,298,125a1.76,1.76,0,0,1,.84.22A11.73,11.73,0,0,1,300.69,126.53Zm10.91,2.91a1.6,1.6,0,0,1,.34.95,1.65,1.65,0,0,1-1.67,1.58,1.58,1.58,0,0,1-1.27-.68c-.71-.93-1.39-1.76-2.19-2.63a1.48,1.48,0,0,1-.44-1,1.55,1.55,0,0,1,1.61-1.42,1.76,1.76,0,0,1,1.21.46A18.71,18.71,0,0,1,311.6,129.44Z" transform="translate(-27.13 -61.98)"/><path class="a" d="M331,131.44v2.11c0,.8-.81,1.2-1.61,1.2s-1.61-.4-1.61-1.2v-2.11l.13-3.4a35.93,35.93,0,0,1-10.7,5.63,2.38,2.38,0,0,1-.62.09,1.43,1.43,0,0,1-1.45-1.45,1.53,1.53,0,0,1,1.2-1.48,36.2,36.2,0,0,0,9.37-4.55h-8.56a1.35,1.35,0,0,1,0-2.69h10.63V121.8c0-.8.81-1.21,1.61-1.21S331,121,331,121.8v1.79h10.76a1.35,1.35,0,0,1,0,2.69H333a36.92,36.92,0,0,0,9.55,4,1.61,1.61,0,0,1,1.27,1.58,1.54,1.54,0,0,1-1.55,1.6,2.23,2.23,0,0,1-.59-.09,33,33,0,0,1-10.85-5.47Zm-11-19.63a1.7,1.7,0,0,1,.65,1.27,1.56,1.56,0,0,1-1.54,1.52,1.73,1.73,0,0,1-1.15-.5c-.37-.37-1.11-.93-1.57-1.3a1.61,1.61,0,0,1-.71-1.26,1.5,1.5,0,0,1,1.54-1.4,1.9,1.9,0,0,1,1,.31A18.62,18.62,0,0,1,320,111.81Zm2.23,2.85a1.55,1.55,0,0,1,1.61,1.45,1.73,1.73,0,0,1-.22.81,25.52,25.52,0,0,1-3.68,5,2,2,0,0,1-1.45.68,1.48,1.48,0,0,1-1.55-1.39,1.67,1.67,0,0,1,.56-1.2,21,21,0,0,0,3.34-4.52A1.55,1.55,0,0,1,322.24,114.66Zm.68-7.08a1.81,1.81,0,0,1,.62,1.24,1.58,1.58,0,0,1-1.61,1.48,1.73,1.73,0,0,1-1.21-.53,16.69,16.69,0,0,0-1.63-1.45,1.23,1.23,0,0,1-.59-1,1.6,1.6,0,0,1,1.64-1.45,1.7,1.7,0,0,1,.92.28A10.87,10.87,0,0,1,322.92,107.58Zm9.8,5.22a11.79,11.79,0,0,1-6.77,8.57,1.74,1.74,0,0,1-.84.21,1.54,1.54,0,0,1-1.54-1.51,1.45,1.45,0,0,1,.86-1.27,8.9,8.9,0,0,0,5.07-5.9L326,113a1.29,1.29,0,0,1-1.3-1.39,1.2,1.2,0,0,1,1.21-1.33l4-.09c0-.41,0-.81,0-1.24v-2.1a1.41,1.41,0,0,1,1.57-1.3c.81,0,1.58.43,1.58,1.3v2.22c0,.34,0,.71,0,1l2.07-.06c2.38-.06,3.34,1,3.34,2.6v4.67c0,.43.15.62.86.62,1.12,0,1.55-.22,1.67-1.71a1.37,1.37,0,0,1,1.46-1.23,1.41,1.41,0,0,1,1.57,1.48c-.24,3.09-1.63,4.21-5,4.21-3.16,0-3.81-.75-3.81-2.69v-4.55c0-.58-.21-.71-.83-.68Z" transform="translate(-27.13 -61.98)"/><path class="a" d="M360.86,106.59c0-.87.83-1.27,1.67-1.27s1.64.4,1.64,1.27v2.23h9.3a1.24,1.24,0,0,1,1.18,1.39,1.25,1.25,0,0,1-1.18,1.39H355.32c-1.17,0-1.51.31-1.51,1.2v4.49c0,6.21-1.45,11.62-3.93,15.36a1.88,1.88,0,0,1-1.54.93A1.61,1.61,0,0,1,346.7,132,1.81,1.81,0,0,1,347,131a19.56,19.56,0,0,0,3-7.26c-.71.43-1.39.8-2.13,1.17a1.81,1.81,0,0,1-.84.22,1.5,1.5,0,0,1-1.48-1.52,1.6,1.6,0,0,1,1.05-1.45,33.16,33.16,0,0,0,3.89-2c.06-1,.1-1.95.1-2.94v-4.76c0-2.5,1.14-3.61,4.26-3.61h6Zm-10.45,9.24a1.5,1.5,0,0,1,.15.68A1.56,1.56,0,0,1,349,118a1.42,1.42,0,0,1-1.27-.81c-.37-.71-.87-1.48-1.36-2.22a1.33,1.33,0,0,1-.25-.78,1.5,1.5,0,0,1,1.55-1.39,1.54,1.54,0,0,1,1.27.65A14.22,14.22,0,0,1,350.41,115.83Zm16.11,6.34H371a1.43,1.43,0,0,1,0,2.84h-4.45v5.82h7.17a1.44,1.44,0,0,1,0,2.84H354.06a1.44,1.44,0,0,1,0-2.84H357v-9.22a1.71,1.71,0,0,1,3.34,0v9.22h2.88V117.41h-6.5a1.44,1.44,0,0,1,0-2.84h15.83a1.44,1.44,0,0,1,0,2.84h-6Z" transform="translate(-27.13 -61.98)"/><path class="a" d="M382.57,116.45a1.93,1.93,0,0,1,.52,1.24,1.73,1.73,0,0,1-1.73,1.67,1.58,1.58,0,0,1-1.17-.53,27.13,27.13,0,0,0-2.57-2.38,1.5,1.5,0,0,1-.65-1.17,1.68,1.68,0,0,1,1.76-1.55,1.9,1.9,0,0,1,1.08.34A18.94,18.94,0,0,1,382.57,116.45Zm.62,5.94A1.7,1.7,0,0,1,385,124a1.61,1.61,0,0,1-.09.5,37.77,37.77,0,0,1-3.68,8.25,1.94,1.94,0,0,1-1.67,1,1.63,1.63,0,0,1-1.73-1.55,1.87,1.87,0,0,1,.34-1,35.87,35.87,0,0,0,3.46-7.67A1.54,1.54,0,0,1,383.19,122.39ZM384.58,109a1.93,1.93,0,0,1,.52,1.24,1.67,1.67,0,0,1-1.67,1.64,1.52,1.52,0,0,1-1.2-.59c-.81-.81-1.73-1.73-2.45-2.32a1.52,1.52,0,0,1-.61-1.14,1.67,1.67,0,0,1,1.73-1.52,2,2,0,0,1,1.08.37A19.37,19.37,0,0,1,384.58,109ZM388,121.52a1.63,1.63,0,0,1,3.21,0v1.89c0,4.67-1.76,8.1-4.94,10.35a1.8,1.8,0,0,1-1.12.38,1.54,1.54,0,0,1-.83-2.85c2.47-1.82,3.68-4.27,3.68-8Zm6.71-9c-.53,1.12-1.09,2.23-1.7,3.28,1.6-.12,3.21-.31,4.82-.49l-.5-.5a1,1,0,0,1-.34-.74,1.62,1.62,0,0,1,1.7-1.39,1.89,1.89,0,0,1,1.15.4,29.79,29.79,0,0,1,3.83,3.74,1.58,1.58,0,0,1,.4,1,1.75,1.75,0,0,1-1.73,1.64,1.54,1.54,0,0,1-1.26-.65c-.25-.34-.56-.71-.87-1.08a92.62,92.62,0,0,1-13.11,1.51,1.55,1.55,0,0,1-.09-3.09l2.32-.09a31.05,31.05,0,0,0,1.88-3.56h-4.11a1.31,1.31,0,0,1-1.23-1.45,1.29,1.29,0,0,1,1.23-1.45h6.18v-2.54c0-.86.84-1.29,1.67-1.29s1.67.43,1.67,1.29v2.54H404a1.34,1.34,0,0,1,1.27,1.45,1.32,1.32,0,0,1-1.27,1.45Zm-1.7,9.19a1.6,1.6,0,0,1,3.15,0v9.43c0,.8-.77,1.23-1.58,1.23s-1.57-.43-1.57-1.23Zm8.22,8.53c0,.34.09.43.49.43.62,0,.9-.18,1-1.92a1.36,1.36,0,0,1,1.42-1.29,1.4,1.4,0,0,1,1.51,1.42c-.18,3.68-1.42,4.76-4.42,4.76-2.41,0-3.24-.74-3.24-2.63v-9.74a1.63,1.63,0,0,1,3.21,0Z" transform="translate(-27.13 -61.98)"/><path class="a" d="M412.22,122c-.52.53-1,1-1.55,1.49a1.72,1.72,0,0,1-1.17.46,1.6,1.6,0,0,1-1.61-1.54,1.75,1.75,0,0,1,.68-1.3,32.81,32.81,0,0,0,5.91-7.51,1.5,1.5,0,0,1,1.33-.78,1.71,1.71,0,0,1,1.76,1.55,1.65,1.65,0,0,1-.25.8,36,36,0,0,1-2.75,4.08,1.26,1.26,0,0,1,.93,1.18v13c0,.84-.81,1.24-1.64,1.24s-1.64-.4-1.64-1.24Zm2.66-16a1.7,1.7,0,0,1,1.76,1.52,1.59,1.59,0,0,1-.25.8,27.9,27.9,0,0,1-5.65,6.37,1.67,1.67,0,0,1-1.09.43,1.69,1.69,0,0,1-1.63-1.67,1.63,1.63,0,0,1,.68-1.27,24.25,24.25,0,0,0,4.91-5.5A1.49,1.49,0,0,1,414.88,105.94Zm15.95,24.67c0,2.47-1.24,3.56-3.8,3.56a15.28,15.28,0,0,1-2.2-.16,1.62,1.62,0,1,1,.47-3.21,12,12,0,0,0,1.42.09c.49,0,.71-.22.71-.84V118.74h-7.76a1.38,1.38,0,0,1-1.24-1.52,1.36,1.36,0,0,1,1.24-1.51h15.64a1.35,1.35,0,0,1,1.27,1.51,1.37,1.37,0,0,1-1.27,1.52h-4.48Zm-9.3-19.85a1.55,1.55,0,0,1,0-3h11.68a1.54,1.54,0,0,1,0,3Z" transform="translate(-27.13 -61.98)"/><path class="a" d="M444.38,108.29a1.62,1.62,0,0,1,1.76,1.92,64.61,64.61,0,0,0-1.42,13.66,60.52,60.52,0,0,0,.56,7.27,1.67,1.67,0,0,1-1.77,1.88,1.68,1.68,0,0,1-1.79-1.51,60.52,60.52,0,0,1-.53-7.64,69.81,69.81,0,0,1,1.46-14.28A1.65,1.65,0,0,1,444.38,108.29Zm14,19a25.34,25.34,0,0,0,4.67-.46,1.65,1.65,0,0,1,2,1.7,1.61,1.61,0,0,1-1.36,1.64,27.06,27.06,0,0,1-5.35.52c-5.72,0-8.1-1.73-8.44-5.47a1.73,1.73,0,0,1,1.8-1.88,1.5,1.5,0,0,1,1.57,1.32C453.59,126.59,454.55,127.3,458.41,127.3Zm4.89-14.65a1.71,1.71,0,0,1-1.58,1.7A78.22,78.22,0,0,1,453,115a1.62,1.62,0,0,1-1.79-1.67,1.64,1.64,0,0,1,1.67-1.67,75,75,0,0,0,8.5-.68A1.63,1.63,0,0,1,463.3,112.65Z" transform="translate(-27.13 -61.98)"/><path class="a" d="M471.47,119.26c-.31.47-.59.93-.9,1.36a1.78,1.78,0,0,1-1.48.84,1.64,1.64,0,0,1-1.67-1.58,1.74,1.74,0,0,1,.37-1.08,36.91,36.91,0,0,0,5-11.75,1.79,1.79,0,0,1,3.46.34,3.22,3.22,0,0,1-.06.5,43.47,43.47,0,0,1-2.82,7.73c.75.06,1.39.46,1.39,1.23v16.54c0,.84-.83,1.27-1.66,1.27s-1.67-.43-1.67-1.27Zm22.29-2.59c.83,0,1.23.74,1.23,1.51s-.4,1.52-1.23,1.52H487.7v3h7.51a1.35,1.35,0,0,1,1.24,1.51c0,.77-.41,1.55-1.24,1.55H487.7v7.45a1.71,1.71,0,0,1-3.34,0v-7.45h-7.24c-.8,0-1.23-.78-1.23-1.55a1.37,1.37,0,0,1,1.23-1.51h7.24v-3h-5.69a1.38,1.38,0,0,1-1.24-1.52,1.36,1.36,0,0,1,1.24-1.51h5.69v-9.59c0-.92.83-1.36,1.67-1.36s1.67.44,1.67,1.36v9.59Zm-10.89-4a1.62,1.62,0,0,1,.22.8,1.69,1.69,0,0,1-1.76,1.58,1.59,1.59,0,0,1-1.45-.93,32.34,32.34,0,0,0-1.86-3.31,1.52,1.52,0,0,1-.25-.77,1.68,1.68,0,0,1,1.73-1.48,1.72,1.72,0,0,1,1.4.77A25.14,25.14,0,0,1,482.87,112.65Zm9.68-4.33a1.65,1.65,0,0,1,1.7,1.52,1.5,1.5,0,0,1-.15.68,25.08,25.08,0,0,1-2.17,3.74,1.89,1.89,0,0,1-1.51.83,1.51,1.51,0,0,1-1.55-1.42,1.57,1.57,0,0,1,.31-.93,25.24,25.24,0,0,0,2-3.52A1.48,1.48,0,0,1,492.55,108.32Z" transform="translate(-27.13 -61.98)"/><path class="a" d="M502.88,109.59a1.67,1.67,0,0,1,1.83,1.73c-.07,1-.13,1.7-.13,2.81,0,10.82,2.2,13.67,3.5,13.67.74,0,1.39-.5,2-2.82a1.6,1.6,0,0,1,1.58-1.33,1.7,1.7,0,0,1,1.76,1.67,1.6,1.6,0,0,1-.06.53c-1.14,4.14-3.12,5.66-5.19,5.66-4.48,0-7.2-5.54-7.2-17.28,0-1.43.06-2.35.12-3.16A1.69,1.69,0,0,1,502.88,109.59Zm23.31,13.11a3,3,0,0,1,.13.65,1.67,1.67,0,0,1-1.74,1.63,1.69,1.69,0,0,1-1.63-1.17,27.54,27.54,0,0,0-5.35-8.41,1.62,1.62,0,0,1-.53-1.14,1.71,1.71,0,0,1,1.76-1.58,2,2,0,0,1,1.36.59A24.66,24.66,0,0,1,526.19,122.7Z" transform="translate(-27.13 -61.98)"/><path class="a" d="M31.58,190.39A2.77,2.77,0,0,1,29,187.9a1.93,1.93,0,0,1,.38-1.11,36.83,36.83,0,0,0,4.18-7.29,1.84,1.84,0,0,1,1.77-1.2,2.41,2.41,0,0,1,2.4,2.2c0,1.16-2,5.38-4.65,9.08A1.74,1.74,0,0,1,31.58,190.39Zm40.66-22.13c-.39,4.85-1.3,9.51-5.91,9.51-1.73,0-3.5-1.39-5.09-3.7-3.21,3.6-4,4-4.84,4A2.69,2.69,0,0,1,54,175.9a2.47,2.47,0,0,1-1.44.38H39.4a1.91,1.91,0,0,1-2.16-2.16v-6.91a1.91,1.91,0,0,1,2.16-2.16H52.51a1.91,1.91,0,0,1,2.16,2.16v6.86a34.62,34.62,0,0,0,4.27-4.17,47.81,47.81,0,0,1-3.41-12.53H36.62a.64.64,0,0,0-.72.72v3.64c0,5.19-.67,11.29-2.31,15.41a2,2,0,0,1-1.92,1.44A2.71,2.71,0,0,1,29,176.09a1.66,1.66,0,0,1,.2-.82c1.87-4.13,2.35-9.12,2.35-13.54V156.5q0-3.45,3.45-3.45H55.2v-1.2a2.21,2.21,0,0,1,4.41,0v1.2h3.7a2,2,0,0,1-.58-1.35c0-1,1.11-1.77,2.26-1.77a2.31,2.31,0,0,1,1.58.57c1.25,1.11,5.24,5,5.24,7a2.29,2.29,0,0,1-2.16,2.31c-.92,0-1-.1-2.6-2.4H60a44.36,44.36,0,0,0,1.92,8.44,35.75,35.75,0,0,0,2-4.46,1.9,1.9,0,0,1,1.78-1.3,2.3,2.3,0,0,1,2.3,2c0,.67-1.2,4.22-3.93,8.26.91,1.44,1.77,2.25,2.3,2.25h.1c.81,0,1.1-.09,1.49-4.8A1.94,1.94,0,0,1,70,165.86,2.15,2.15,0,0,1,72.24,168Zm-34-5.33a1.8,1.8,0,0,1,0-3.6H53.61a1.8,1.8,0,0,1,0,3.6ZM51,192.31c-8.93,0-11.62-.91-11.62-6.81v-6a2,2,0,0,1,2.26-2,2,2,0,0,1,2.25,2v5.56c0,2.21.77,2.93,7.06,2.93,7.35,0,7.63,0,8.55-3.5a2,2,0,0,1,1.92-1.68,2.53,2.53,0,0,1,2.49,2.45,4,4,0,0,1-.09.62c-1.54,6.34-3.46,6.43-12.05,6.43Zm-.43-23c0-.29-.15-.38-.43-.38H41.75c-.28,0-.43.09-.43.38V172c0,.34.1.48.43.48h8.41c.33,0,.43-.14.43-.48Zm1.82,15a39.82,39.82,0,0,0-4.13-4.23,1.66,1.66,0,0,1-.62-1.29A2.43,2.43,0,0,1,50,176.62a1.84,1.84,0,0,1,1.25.48c1.1.91,4.9,4.17,4.9,5.52A2.54,2.54,0,0,1,53.8,185,1.89,1.89,0,0,1,52.41,184.3Zm17.33,5.28A2,2,0,0,1,68,188.42a34.58,34.58,0,0,0-5.37-7.24,1.8,1.8,0,0,1-.53-1.16A2.45,2.45,0,0,1,64.51,178a1.89,1.89,0,0,1,1.39.58,43.34,43.34,0,0,1,6,7.68,2,2,0,0,1,.29,1A2.6,2.6,0,0,1,69.74,189.58Z" transform="translate(-27.13 -61.98)"/><path class="a" d="M102.91,178.58a71.54,71.54,0,0,0,15.94,7,1.92,1.92,0,0,1,1.39,1.92c0,1.39-1.16,3-2.5,3-.67,0-9.94-3.6-17.09-9.12v9.69a2.22,2.22,0,0,1-4.41,0v-9.64A55.77,55.77,0,0,1,80,190.58a1.35,1.35,0,0,1-.62.1c-1.3,0-2.35-1.54-2.35-2.88a1.87,1.87,0,0,1,1.39-1.92c5.57-1.78,11-3.84,15.84-7.3H79.63a2.11,2.11,0,0,1,0-4.22H96.24V172a2.22,2.22,0,0,1,4.41,0v2.4h17a2.12,2.12,0,0,1,0,4.22Zm-18.2-15.45c-2.4-.87-4.7-1.54-6.38-2a1.67,1.67,0,0,1-1.3-1.68c0-1.2,1.06-2.64,2.16-2.64a.8.8,0,0,1,.34.05c1.87.48,4.27,1.25,6.67,2.06a1.66,1.66,0,0,1,1.25,1.68,2.61,2.61,0,0,1-2.21,2.64A2.56,2.56,0,0,1,84.71,163.13Zm-4.56,9.79a2.93,2.93,0,0,1-2.59-2.74,1.71,1.71,0,0,1,1.15-1.63,42.64,42.64,0,0,0,8.93-5.14,2.1,2.1,0,0,1,1.25-.48c1.06,0,1.82,1.16,1.82,2.31a2.41,2.41,0,0,1-.86,1.92C86.68,169.9,81.35,172.92,80.15,172.92Zm7.11-16.18a60.27,60.27,0,0,0-6.34-2.35,1.7,1.7,0,0,1-1.29-1.68c0-1.25,1.15-2.74,2.35-2.74a1.72,1.72,0,0,1,.48.1c7.29,2.64,7.53,2.74,7.53,4.08s-1,2.69-2.2,2.69A1,1,0,0,1,87.26,156.74Zm25.25,15c-3.22,0-4.61-1.2-4.61-4.75v-9.32c0-.28-.1-.43-.34-.43h-4.65c-.87,7-3.55,11.47-8.55,14.5a2.89,2.89,0,0,1-1.44.43,2.59,2.59,0,0,1-2.49-2.59,2.21,2.21,0,0,1,1.2-2c3.89-2.25,6-5,6.77-10.32H93.21a2.07,2.07,0,0,1,0-4.13h5.52v-1.34a2,2,0,0,1,2.26-2,2,2,0,0,1,2.25,1.92v.05c0,.48,0,.91,0,1.34h5.56c2.45,0,3.51,1.68,3.51,3.8v9.26c0,.91.33,1.25,1,1.25H114c1.34,0,1.53-1.06,1.92-6.87.09-1.24.77-1.72,1.58-1.72a2.79,2.79,0,0,1,2.69,2.54v.24c-1,8.88-2.11,10.13-5.76,10.13Z" transform="translate(-27.13 -61.98)"/><path class="a" d="M135.93,157.75a.64.64,0,0,0-.72.72v7.2c0,12-.82,18.58-4.56,25.92a2.31,2.31,0,0,1-2.16,1.35,2.69,2.69,0,0,1-2.74-2.31,1.83,1.83,0,0,1,.24-1c2.69-4.75,3.89-9.12,4.37-15.31-2.21,4.85-3.12,5.28-3.74,5.28-1,0-1.87-1.2-1.87-2.59a3.31,3.31,0,0,1,.81-2.16,35.93,35.93,0,0,0,5.09-7.73V156.89q0-3.46,3.46-3.46H147v-1.68c0-1.34,1.25-2,2.55-2s2.49.63,2.49,2v1.68h13.88a2,2,0,0,1,1.92,2.16,2,2,0,0,1-1.92,2.16Zm-7.44,7.54a1.54,1.54,0,0,1-1.58-1.2c-.63-2.79-1.4-6.92-1.78-8.16a1.5,1.5,0,0,1-.1-.63,1.88,1.88,0,0,1,2-1.77,1.68,1.68,0,0,1,1.73,1.39c.24,1.2,1.06,5.37,1.49,8.3,0,.15.05.24.05.34A1.71,1.71,0,0,1,128.49,165.29Zm7,25.92a2.17,2.17,0,0,1,0-4.32h4.17V171.58a2.22,2.22,0,0,1,4.42,0v15.31H150V165.62H139.19a2,2,0,0,1-2-2.16,2,2,0,0,1,2-2.16h25.45a2,2,0,0,1,2,2.16,2,2,0,0,1-2,2.16H154.36v7.11h9.51a2,2,0,0,1,2,2.16,2,2,0,0,1-2,2.16h-9.51v9.84h11.38a2.17,2.17,0,0,1,0,4.32Z" transform="translate(-27.13 -61.98)"/><path class="a" d="M198.62,170.52V187.8c0,3.41-1.82,5.23-6.43,5.23a40.87,40.87,0,0,1-9.32-1.44,2.8,2.8,0,0,1-2.25-2.78c0-1.39.91-2.74,2.21-2.74a2.28,2.28,0,0,1,.57.1,29.62,29.62,0,0,0,7.44,1.53c2,0,2.6-.86,2.6-2.59V170.52H175.1a2.3,2.3,0,0,1,0-4.56H194c-2.54-1.54-6-3.41-9.55-5.14a1.86,1.86,0,0,1-1.25-1.73,3,3,0,0,1,2.83-2.64c.48,0,1.25.1,9.36,5.62a46.61,46.61,0,0,0,9.36-5.86.57.57,0,0,0,.2-.38c0-.14-.1-.24-.44-.24H180a2.23,2.23,0,0,1,0-4.42h28.13a3.31,3.31,0,0,1,3.61,3.27,4.76,4.76,0,0,1-1.88,3.55,47.28,47.28,0,0,1-10.46,6.86c.48.34,1,.72,1.44,1.11h12a3,3,0,0,1,3.31,3.31c0,3.6-3.79,9.17-9.12,13.44a2.63,2.63,0,0,1-1.68.63,3,3,0,0,1-2.74-2.79,2,2,0,0,1,.87-1.68c4.89-3.74,7-7.58,7-7.92s-.15-.43-.53-.43Z" transform="translate(-27.13 -61.98)"/><path class="a" d="M222.19,154a2.45,2.45,0,0,1,2.78-2.79h7.34c2.55,0,3.51,1.68,3.51,3.65a8.06,8.06,0,0,1-.72,3.27L232.6,165c0,.05,0,.1,0,.19a1.09,1.09,0,0,0,.15.48c2.4,4.52,3.55,8.31,3.55,11.14,0,3.55-1.82,5.62-5.23,5.62a10.94,10.94,0,0,1-1.73-.15,2.44,2.44,0,0,1-1.82-2.54c0-1,.52-1.92,1.63-1.92.09,0,.19,0,.33,0a2,2,0,0,0,.48,0c1.11,0,1.88-.72,1.88-2.35s-.92-4.7-3.27-9a3.29,3.29,0,0,1-.24-1.35,2.61,2.61,0,0,1,.15-1l2.49-8.21c.05,0,.05-.14.05-.19,0-.24-.1-.48-.29-.48h-3.5a.51.51,0,0,0-.58.58v35.28c0,1.25-1.1,1.82-2.21,1.82s-2.2-.57-2.2-1.82Zm23.66,16.22c-1,8.74-3.65,16.32-9.55,21.94a2.69,2.69,0,0,1-1.78.82,2.8,2.8,0,0,1-2.49-2.79,1.55,1.55,0,0,1,.43-1.15c7.92-7.58,9.31-17.86,9.46-29.23h-4.33a2.45,2.45,0,0,1,0-4.8h9.46v-3.22c0-1.34,1.25-2,2.45-2s2.45.63,2.45,2V155h10.32c1.34,0,2,1.2,2,2.4s-.63,2.4-2,2.4H246.48c0,2-.1,3.88-.2,5.76h12.48a3.38,3.38,0,0,1,3.7,3.74c0,17.86-1.34,23.71-9.6,23.71a37.3,37.3,0,0,1-6.91-.86,2,2,0,0,1-1.59-2.11c0-1.3.87-2.74,2.21-2.74a1.91,1.91,0,0,1,.53,0,23.24,23.24,0,0,0,5,.82c4.71,0,5.57-3.94,5.57-17.19,0-.33-.29-.77-.58-.77Z" transform="translate(-27.13 -61.98)"/><path class="a" d="M287,161.93a53,53,0,0,1-2.79,14.64c5.67,8,5.67,8.59,5.67,9.31a3,3,0,0,1-2.64,2.93,2.07,2.07,0,0,1-1.78-1.25c-1.1-2.11-2.16-4.27-3.41-6.19a44.41,44.41,0,0,1-9,11.09,2.15,2.15,0,0,1-1.35.48,2.93,2.93,0,0,1-2.68-2.69,1.79,1.79,0,0,1,.62-1.35c4.61-4.08,7.63-7.72,9.55-11.52a86.79,86.79,0,0,0-7.92-9.17,1.92,1.92,0,0,1-.62-1.34,2.67,2.67,0,0,1,2.73-2.3c1.3,0,1.4.14,7.59,8.06a54.49,54.49,0,0,0,1.58-10.7H270.91a2,2,0,0,1-2-2.21,2,2,0,0,1,2-2.16h6.14V151.7c0-1.34,1.2-2,2.4-2s2.4.63,2.4,2v5.86h6a2,2,0,0,1,2,2.16,2,2,0,0,1-2,2.21Zm9,18.19A62.78,62.78,0,0,0,290.4,169a2.09,2.09,0,0,1-.34-1.1,2.39,2.39,0,0,1,4.42-1c3.26,5,5.85,10.8,5.85,12.1a2.57,2.57,0,0,1-2.45,2.54A2,2,0,0,1,296,180.12Zm7.3-18.39H292.32a2.3,2.3,0,0,1,0-4.56h10.94v-5.42c0-1.34,1.2-2,2.4-2a2.11,2.11,0,0,1,2.35,2v5.42h2.26a2.3,2.3,0,0,1,0,4.56H308v24.53c0,4.32-1.29,6.68-6.62,6.68a32.81,32.81,0,0,1-5.91-.63,2.42,2.42,0,0,1-2.16-2.49c0-1.35.92-2.74,2.16-2.74a1.91,1.91,0,0,1,.53.1,18.81,18.81,0,0,0,4.9,1c2.3,0,2.35-1.4,2.35-3.46Z" transform="translate(-27.13 -61.98)"/><path class="a" d="M357.69,177.1c0,4.46-1,5.71-5.09,5.71-.67,0-1.39-.05-2.2-.1a55.53,55.53,0,0,0,8.25,3.89,2.18,2.18,0,0,1,1.54,2,2.62,2.62,0,0,1-2.54,2.49c-1.54,0-9.94-3.6-16.95-11.13v11a2,2,0,0,1-2.16,2,2,2,0,0,1-2.16-2V180c-7.54,8.3-15.84,11.18-17,11.18a2.66,2.66,0,0,1-2.36-2.64,1.89,1.89,0,0,1,1.49-1.87,34.49,34.49,0,0,0,17.86-12.19v-1.73H324.91a.51.51,0,0,0-.58.57v8.12c0,1.05-1.06,1.63-2.16,1.63s-2.16-.58-2.16-1.63v-10a2.44,2.44,0,0,1,2.78-2.78h13.59v-2.5H319.63a2.07,2.07,0,0,1,0-4.13h16.75v-.81c0-.72.62-1.2,1.39-1.39a1.32,1.32,0,0,1,0-.44,1.65,1.65,0,0,1,.63-1.24A22,22,0,0,0,343.2,151a2.26,2.26,0,0,1,4.22.62,1.7,1.7,0,0,1-.19.77h11a1.92,1.92,0,1,1,0,3.84h-4.94c1.1,1.83,1.29,2.35,1.29,2.88a2.35,2.35,0,0,1-2.49,2.07,1.83,1.83,0,0,1-1.73-1.06,33.45,33.45,0,0,0-2-3.89h-3.12c-2.45,3.7-3.41,4.56-4.51,5V162h16.95a2.07,2.07,0,0,1,0,4.13H340.7v2.5h14.21a2.44,2.44,0,0,1,2.78,2.78Zm-24.34-20.84a8.49,8.49,0,0,1,1.3,2.88,2.34,2.34,0,0,1-2.45,2.07,1.84,1.84,0,0,1-1.77-1.06,33.45,33.45,0,0,0-2-3.89h-3.5a19.19,19.19,0,0,1-4,5,2.28,2.28,0,0,1-1.44.58,2.36,2.36,0,0,1-2.3-2.16,1.47,1.47,0,0,1,.58-1.25,19.36,19.36,0,0,0,4.94-7.44,2,2,0,0,1,1.92-1.25,2.1,2.1,0,0,1,2.21,2,1.68,1.68,0,0,1-.1.67h10.9a1.92,1.92,0,1,1,0,3.84Zm20,17a.5.5,0,0,0-.57-.57H340.7v1.73a62.77,62.77,0,0,0,7,6.48,1.63,1.63,0,0,1-.19-.82c0-.86.53-1.82,1.44-1.82a2,2,0,0,1,.48.09,9.55,9.55,0,0,0,2.54.48c1.39,0,1.44-.77,1.44-1.82Z" transform="translate(-27.13 -61.98)"/><path class="a" d="M372,174.79a7.37,7.37,0,0,1,2.66-.52c2.13,0,3.52.65,4.33,2.93a81,81,0,0,1,7.73-2.78,2.31,2.31,0,0,1,.61-.09,1.65,1.65,0,0,1,.37,3.25c-2.69.8-5.44,1.73-8,2.78.15,1.14.21,2.5.27,4.11a1.61,1.61,0,0,1-1.76,1.61,1.51,1.51,0,0,1-1.64-1.43c0-1.17-.09-2.16-.15-3-3.22,1.63-4,3-4,4.17s1.12,1.92,4.67,1.92a36.33,36.33,0,0,0,6-.53,1.66,1.66,0,0,1,2,1.67,1.72,1.72,0,0,1-1.55,1.67,36.38,36.38,0,0,1-6.34.49c-5.84,0-8.31-1.94-8.31-5,0-2.48,1.45-4.86,6.95-7.61a1.89,1.89,0,0,0-2.16-1.39c-1.14,0-3.4.84-6.34,3.19a1.87,1.87,0,0,1-1.11.4,1.7,1.7,0,0,1-1.67-1.64,1.8,1.8,0,0,1,.71-1.36,29.18,29.18,0,0,0,5.23-6c-1.21.09-2.32.12-3.34.15a1.59,1.59,0,1,1,0-3.18c1.45,0,3.18-.09,5-.22.53-1.23,1-2.44,1.36-3.58a1.59,1.59,0,0,1,1.58-1.12,1.57,1.57,0,0,1,1.7,1.43,1.22,1.22,0,0,1-.06.46,24.8,24.8,0,0,1-.93,2.44c1.61-.15,3.16-.37,4.48-.62a1.47,1.47,0,0,1,1.86,1.46,1.53,1.53,0,0,1-1.36,1.54c-1.95.34-4.27.68-6.55.9-.78,1.27-1.55,2.44-2.29,3.43Z" transform="translate(-27.13 -61.98)"/><path class="a" d="M396.06,179.58c-.53.53-1,1-1.55,1.49a1.72,1.72,0,0,1-1.17.46,1.6,1.6,0,0,1-1.61-1.54,1.75,1.75,0,0,1,.68-1.3,32.51,32.51,0,0,0,5.9-7.51,1.51,1.51,0,0,1,1.33-.78,1.71,1.71,0,0,1,1.77,1.55,1.76,1.76,0,0,1-.25.8,36,36,0,0,1-2.75,4.08,1.26,1.26,0,0,1,.92,1.18v13c0,.84-.8,1.24-1.63,1.24s-1.64-.4-1.64-1.24Zm2.66-16a1.71,1.71,0,0,1,1.76,1.52,1.59,1.59,0,0,1-.25.8,28,28,0,0,1-5.66,6.37,1.67,1.67,0,0,1-1.08.43,1.7,1.7,0,0,1-1.64-1.67,1.67,1.67,0,0,1,.68-1.27,24.28,24.28,0,0,0,4.92-5.5A1.49,1.49,0,0,1,398.72,163.54Zm15.95,24.67c0,2.47-1.24,3.56-3.8,3.56a15.28,15.28,0,0,1-2.2-.16,1.62,1.62,0,0,1,.46-3.21,12.19,12.19,0,0,0,1.43.09c.49,0,.71-.22.71-.84V176.34h-7.76a1.38,1.38,0,0,1-1.24-1.52,1.36,1.36,0,0,1,1.24-1.51h15.64a1.35,1.35,0,0,1,1.27,1.51,1.37,1.37,0,0,1-1.27,1.52h-4.48Zm-9.31-19.85a1.55,1.55,0,0,1,0-3h11.69a1.54,1.54,0,0,1,0,3Z" transform="translate(-27.13 -61.98)"/><path class="a" d="M444.88,180.64c0,4.82-3.62,8.22-10.54,9.21a1.43,1.43,0,0,1-1.73-1.49,1.45,1.45,0,0,1,1.26-1.45c5.88-1,7.89-3,7.89-6.27,0-2-1.43-3.53-4.49-3.53s-7.17,1-11.71,3a1.55,1.55,0,0,1-.74.16,1.46,1.46,0,0,1-1.46-1.46,1.57,1.57,0,0,1,1.05-1.45,33.73,33.73,0,0,1,12.86-3.09C441.79,174.3,444.88,176.74,444.88,180.64Z" transform="translate(-27.13 -61.98)"/><path class="a" d="M464.55,170.81c-3.71.49-8.63,1.23-13.08,1.88a1.71,1.71,0,0,1-2-1.73,1.66,1.66,0,0,1,1.61-1.7c6.43-.84,14.4-1.7,20.83-2.29a1.63,1.63,0,0,1,1.86,1.64,1.68,1.68,0,0,1-1.42,1.67,10.58,10.58,0,0,0-3.4,1.24c-4.83,2.75-5.85,6-5.85,8.9,0,3.43,2.38,5.53,6.71,6.06a1.83,1.83,0,1,1-.34,3.65c-5.84-.44-9.95-4.36-9.95-9.62a12.44,12.44,0,0,1,5.07-9.64Z" transform="translate(-27.13 -61.98)"/><path class="a" d="M487.92,177.17a21,21,0,0,1,5.29-.61c5,0,8.07,2.28,8.07,6.15s-2.69,6.52-7.2,7.17a1.63,1.63,0,0,1-2-1.64,1.61,1.61,0,0,1,1.42-1.61c3-.52,4.24-1.88,4.24-3.89,0-1.7-1.58-3.16-4.52-3.16a18.13,18.13,0,0,0-5.32.81v5.5c0,3.22-1.39,4.39-4.26,4.39s-5.78-2.13-5.78-4.82c0-2.26,1.3-4.73,6.71-7.24V173c-1.55.16-3,.28-4.27.28a1.48,1.48,0,0,1-1.52-1.58,1.51,1.51,0,0,1,1.52-1.61c1.24,0,2.72-.12,4.27-.3v-4.7a1.67,1.67,0,0,1,3.33,0v4.23c1.06-.18,2.08-.37,2.94-.58a1.54,1.54,0,0,1,.56-.07,1.58,1.58,0,0,1,1.64,1.58,1.55,1.55,0,0,1-1.3,1.51c-1.15.28-2.44.56-3.84.78Zm-3.33,4.49c-2.69,1.51-3.25,2.53-3.25,3.74,0,1,1.11,1.6,2.26,1.6.89,0,1-.58,1-1.36ZM502.52,171a1.94,1.94,0,0,1,.71,1.45,1.82,1.82,0,0,1-1.8,1.77,1.88,1.88,0,0,1-1.26-.53,23.84,23.84,0,0,0-3.74-2.69,1.54,1.54,0,0,1-.87-1.39,1.85,1.85,0,0,1,1.76-1.82,1.74,1.74,0,0,1,.84.21A24,24,0,0,1,502.52,171Z" transform="translate(-27.13 -61.98)"/><path class="a" d="M512.57,177.64c.31-.71.52-1.3.8-2.14a1.41,1.41,0,0,1,1.33-1,1.31,1.31,0,0,1,1.39,1.23,1.51,1.51,0,0,1-.06.37,25.48,25.48,0,0,1-2.16,5.1,2.5,2.5,0,0,1-2.14,1.27,2,2,0,0,1-2-1.48,20.68,20.68,0,0,1-.75-5.32,43.64,43.64,0,0,1,1.15-9.09,1.78,1.78,0,0,1,1.76-1.27,1.53,1.53,0,0,1,1.7,1.39,2.25,2.25,0,0,1-.06.41,43,43,0,0,0-1.14,8.25,22.51,22.51,0,0,0,.09,2.26Zm9.83-13a1.74,1.74,0,0,1,1.82,1.49,74.46,74.46,0,0,1,.65,10c0,6.71-2.41,11.38-6.74,14.69a2.11,2.11,0,0,1-1.29.49,1.75,1.75,0,0,1-1.74-1.73,2,2,0,0,1,.81-1.55c3.52-2.9,5.25-6.67,5.25-11.9a77.65,77.65,0,0,0-.62-9.67A1.67,1.67,0,0,1,522.4,164.68Z" transform="translate(-27.13 -61.98)"/><path class="a" d="M544,166.57V168c2.48,0,4.92,0,7,.06a1.59,1.59,0,0,1,1.58,1.67,1.51,1.51,0,0,1-1.58,1.58c-2.07-.06-4.48-.06-7,0,0,1.08,0,2.16.09,3.25,2-.13,4-.28,5.81-.5a1.58,1.58,0,0,1,1.89,1.58,1.64,1.64,0,0,1-1.52,1.64c-1.88.24-3.92.4-6,.52.07,1.36.19,2.72.31,4.08a28.53,28.53,0,0,1,7.76,3.37,2,2,0,0,1,1.05,1.67,1.84,1.84,0,0,1-1.82,1.82,1.81,1.81,0,0,1-1-.34,29.14,29.14,0,0,0-5.72-3v.21c0,3.34-2.91,4.95-6.49,4.95-3.93,0-6.34-1.89-6.34-4.76,0-2.69,2.23-4.76,6.65-4.76a23.76,23.76,0,0,1,2.5.15c-.09-1.11-.21-2.22-.25-3.31h-1.76c-1.85,0-3.74-.06-4.82-.18a1.6,1.6,0,0,1-1.48-1.64,1.56,1.56,0,0,1,1.76-1.64,40.83,40.83,0,0,0,4.45.22h1.67c-.06-1.11-.09-2.2-.13-3.31-2.62.06-5.19.16-7.35.25a1.64,1.64,0,0,1-.06-3.28c2.16-.12,4.73-.22,7.35-.25v-3.12c0-.93.87-1.39,1.73-1.39a1.52,1.52,0,0,1,1.7,1.39Zm-2.53,18.55v-.68a14.09,14.09,0,0,0-2.78-.28c-2.41,0-3.12.74-3.12,1.67s.8,1.55,2.81,1.55S541.48,186.42,541.48,185.12Z" transform="translate(-27.13 -61.98)"/><path class="a" d="M571.6,184.1a3.44,3.44,0,0,1-2.29.77c-3,0-5.26-2-5.26-5.56,0-3,1.92-5.14,4.79-5.14a7.52,7.52,0,0,1,1.86.25l-.09-2.47c-4.18.18-8.38.4-12,.65a1.67,1.67,0,0,1-1.73-1.76,1.6,1.6,0,0,1,1.58-1.67c3.65-.22,7.88-.44,12.12-.59,0-1.11,0-2.38,0-3.77a1.59,1.59,0,0,1,1.73-1.52,1.53,1.53,0,0,1,1.67,1.49v3.68c3.21-.1,6.3-.16,9-.16a1.58,1.58,0,0,1,1.61,1.7,1.53,1.53,0,0,1-1.48,1.64c-2.75,0-5.91.09-9.12.19,0,1.79.09,3.55.21,5.34a7.93,7.93,0,0,1,1.06,4.12c0,4.88-2.51,8.25-7,10.29a2.39,2.39,0,0,1-.83.19,1.76,1.76,0,0,1-1.77-1.74,1.73,1.73,0,0,1,1.21-1.57,8.77,8.77,0,0,0,4.76-4.33Zm-4.27-4.7a2.3,2.3,0,0,0,2.13,2.44c1,0,1.83-.74,1.83-2.16a2.25,2.25,0,0,0-2.17-2.48C568.07,177.2,567.33,178,567.33,179.4Z" transform="translate(-27.13 -61.98)"/><path class="a" d="M598.47,186.08a5.18,5.18,0,1,1-5.17-5.1A5.11,5.11,0,0,1,598.47,186.08Zm-8.23,0a3,3,0,1,0,3.06-3A3,3,0,0,0,590.24,186.08Z" transform="translate(-27.13 -61.98)"/><path class="a" d="M57.05,262.74a15,15,0,1,1-15-15A15,15,0,0,1,57.05,262.74Zm-28.47,0a13.51,13.51,0,1,0,13.51-13.51A13.52,13.52,0,0,0,28.58,262.74Zm12.68-5.65a30.4,30.4,0,0,1-2.51,2.25,1.65,1.65,0,0,1-1,.31,1.27,1.27,0,0,1-1.33-1.27,1.35,1.35,0,0,1,.56-1.14c1.23-.93,2.5-2,3.8-3.18a2.33,2.33,0,0,1,1.82-.65,1.47,1.47,0,0,1,1.64,1.67V270.6a1.29,1.29,0,0,1-1.48,1.48c-1,0-1.45-.43-1.45-1.48Z" transform="translate(-27.13 -61.98)"/><path class="a" d="M60.4,268.18a8.23,8.23,0,0,1,.34-2.31,1.71,1.71,0,0,1,1.73-1.24,1.55,1.55,0,0,1,1.7,1.42,2.45,2.45,0,0,1-.06.43,6.38,6.38,0,0,0-.19,1.55c0,2,1,3,6.83,3a41.92,41.92,0,0,0,8.44-.9,3.22,3.22,0,0,1,.5-.06,1.64,1.64,0,0,1,1.64,1.7,1.81,1.81,0,0,1-1.52,1.76,40.62,40.62,0,0,1-9.06,1C63.3,274.49,60.4,272.39,60.4,268.18Zm10.54-15.36a37.71,37.71,0,0,0,5.84-.4,1.71,1.71,0,0,1,.56,3.37,43.42,43.42,0,0,1-6.37.43,35.23,35.23,0,0,1-6.74-.59,1.69,1.69,0,0,1-1.36-1.7,1.67,1.67,0,0,1,2-1.73A30.17,30.17,0,0,0,70.94,252.82Z" transform="translate(-27.13 -61.98)"/><path class="a" d="M98.31,251.68v1.42c2.47,0,4.91,0,7,.06a1.58,1.58,0,0,1,1.58,1.67,1.51,1.51,0,0,1-1.58,1.58c-2.07-.07-4.48-.07-7,0q0,1.62.09,3.24c2-.12,4-.28,5.81-.49a1.58,1.58,0,0,1,1.89,1.57,1.64,1.64,0,0,1-1.52,1.64c-1.88.25-3.92.4-6,.53.06,1.36.18,2.72.3,4.08a28.22,28.22,0,0,1,7.76,3.37,2,2,0,0,1,1.06,1.67,1.86,1.86,0,0,1-1.83,1.82,1.81,1.81,0,0,1-1-.34,28.67,28.67,0,0,0-5.72-3v.22c0,3.34-2.91,4.95-6.49,4.95-3.93,0-6.34-1.89-6.34-4.77,0-2.69,2.23-4.76,6.65-4.76a23.81,23.81,0,0,1,2.5.16c-.09-1.11-.21-2.23-.25-3.31H93.48a47.75,47.75,0,0,1-4.82-.19,1.59,1.59,0,0,1-1.48-1.63,1.55,1.55,0,0,1,1.76-1.64,43.93,43.93,0,0,0,4.45.21h1.67c-.06-1.11-.09-2.19-.12-3.3-2.63.06-5.2.15-7.36.24a1.64,1.64,0,0,1-.06-3.27c2.16-.13,4.73-.22,7.35-.25V250c0-.93.87-1.39,1.73-1.39A1.53,1.53,0,0,1,98.31,250Zm-2.54,18.54v-.68a14.78,14.78,0,0,0-2.78-.27c-2.41,0-3.12.74-3.12,1.67s.8,1.54,2.81,1.54S95.77,271.52,95.77,270.22Z" transform="translate(-27.13 -61.98)"/><path class="a" d="M124.28,270.75a2,2,0,0,1,.22.87,1.67,1.67,0,0,1-1.67,1.6,1.56,1.56,0,0,1-1.39-.92c-.25-.47-.5-1-.72-1.49a6.48,6.48,0,0,1-4.63,2c-2.6,0-4.27-1.64-4.27-4.73,0-2.87,1.42-6.24,4.89-9a43.9,43.9,0,0,1-1-5.65,1.55,1.55,0,0,1,1.7-1.67,1.43,1.43,0,0,1,1.54,1.3c.16,1.36.4,2.75.68,4.14a15.87,15.87,0,0,1,5.94-1.79c.21-1.24.4-2.51.55-3.9a1.58,1.58,0,0,1,1.67-1.33,1.6,1.6,0,0,1,1.73,1.73c-.15,1.21-.34,2.38-.55,3.5,5.16.61,8.47,4.05,8.47,8.9,0,5.32-2.88,8.87-8,10.48a2.87,2.87,0,0,1-.68.12,1.76,1.76,0,0,1-.46-3.46c3.8-1.36,5.56-3.49,5.56-7.11a6,6,0,0,0-5.62-6,29.86,29.86,0,0,1-5,10.14C123.54,269.27,123.91,270,124.28,270.75Zm-6.74-8.47a7.9,7.9,0,0,0-2.5,5.35c0,1.36.52,1.88,1.17,1.88.87,0,1.83-.37,3.22-1.7C118.75,266,118.1,264.17,117.54,262.28Zm7.27-3.8a13.91,13.91,0,0,0-4.52,1.7c.47,1.67,1,3.34,1.58,5A26.58,26.58,0,0,0,124.81,258.48Z" transform="translate(-27.13 -61.98)"/><path class="a" d="M148.62,250.19a1.6,1.6,0,0,1,1.67-1.33,1.55,1.55,0,0,1,1.63,1.92c-.24,1.17-.55,2.41-.89,3.65l2.72-.47a1.62,1.62,0,1,1,.55,3.19c-1.32.28-2.84.52-4.35.74a57.22,57.22,0,0,1-4.76,10.42,2.06,2.06,0,0,1-1.74,1.11,1.69,1.69,0,0,1-1.73-1.64,2,2,0,0,1,.34-1.08,47.44,47.44,0,0,0,4.18-8.41c-1.15.13-2.26.19-3.22.22a1.59,1.59,0,0,1-1.61-1.7,1.51,1.51,0,0,1,1.49-1.61c1.39-.06,2.93-.16,4.51-.31C147.87,253.31,148.31,251.74,148.62,250.19Zm5.53,25.91c-3.68,0-5.9-1.61-5.9-4.48,0-2.48,2.1-4.52,6.05-4.52a14.24,14.24,0,0,1,1.55.09,22,22,0,0,1-.31-3.27,16.28,16.28,0,0,1,.22-3,1.5,1.5,0,0,1,1.61-1.24c.92,0,1.85.59,1.7,1.67a13.84,13.84,0,0,0-.22,2.54,23.51,23.51,0,0,0,.43,4,21.09,21.09,0,0,1,5.81,2.69,1.72,1.72,0,0,1,.84,1.45,1.71,1.71,0,0,1-1.64,1.7,2,2,0,0,1-1-.37,18.33,18.33,0,0,0-3.53-2C159.65,274.86,157.12,276.1,154.15,276.1Zm2.2-5a4.72,4.72,0,0,0,0-.77,10.35,10.35,0,0,0-1.94-.19c-2.17,0-2.85.68-2.85,1.52s.62,1.42,2.63,1.42C155.57,273,156.35,272.42,156.35,271.06Zm9.52-14.44a1.92,1.92,0,0,1,1,1.61,1.7,1.7,0,0,1-1.64,1.7,1.76,1.76,0,0,1-.93-.28,30,30,0,0,0-4.42-2.13,1.5,1.5,0,0,1-1.11-1.39,1.74,1.74,0,0,1,1.76-1.7,2.23,2.23,0,0,1,.59.09A19.75,19.75,0,0,1,165.87,256.62Z" transform="translate(-27.13 -61.98)"/><path class="a" d="M177.62,255.08a1.5,1.5,0,0,1,0,3h-1.2v4.7c.37-.15.71-.28,1.05-.43a1.31,1.31,0,0,1,.55-.12,1.52,1.52,0,0,1,1.46,1.51,1.4,1.4,0,0,1-.84,1.27q-1.11.55-2.22,1v7.94c0,2-1,3.06-3.25,3.06a10,10,0,0,1-1.73-.15,1.55,1.55,0,0,1,.43-3.06,3.44,3.44,0,0,0,.77.09c.44,0,.59-.15.59-.58v-6.13c-.59.22-1.14.38-1.67.53a1.46,1.46,0,0,1-.49.06,1.56,1.56,0,0,1-.34-3.06c.77-.22,1.64-.49,2.5-.77V258H171.1a1.5,1.5,0,0,1,0-3h2.13v-5.35c0-.87.8-1.3,1.61-1.3a1.42,1.42,0,0,1,1.58,1.3v5.35Zm12.21,14.8a12.3,12.3,0,0,0,7.39,3.78,1.38,1.38,0,0,1,1.24,1.42,1.63,1.63,0,0,1-1.58,1.67,2.42,2.42,0,0,1-.46-.06,14.71,14.71,0,0,1-8.69-5.17,14.43,14.43,0,0,1-7.95,5.41,2.14,2.14,0,0,1-.58.1,1.44,1.44,0,0,1-1.46-1.43,1.6,1.6,0,0,1,1.24-1.48c3-1,5.13-2.32,6.37-4.24H179.6a1.27,1.27,0,0,1-1.18-1.39,1.25,1.25,0,0,1,1.18-1.39h6.86a9.74,9.74,0,0,0,.19-1.45,1.37,1.37,0,0,1,1.48-1.24,1.39,1.39,0,0,1,1.55,1.39c0,.44-.1.87-.16,1.3h7.55a1.27,1.27,0,0,1,1.2,1.39,1.25,1.25,0,0,1-1.2,1.39Zm-9.24-12.33a1.48,1.48,0,0,1-1.52-1.42,1.56,1.56,0,0,1,.65-1.21,18.87,18.87,0,0,0,4.3-5.56,1.59,1.59,0,0,1,1.48-.93,1.52,1.52,0,0,1,1.61,1.39,1.65,1.65,0,0,1-.18.74,7.68,7.68,0,0,1-.41.74H189c1.61,0,2.53.81,2.53,1.95a2.87,2.87,0,0,1-.43,1.46,18.47,18.47,0,0,1-1,1.63h3c2.26,0,3.21.9,3.21,3v5.75a1.29,1.29,0,0,1-1.45,1.21,1.31,1.31,0,0,1-1.45-1.21v-2c-.4.56-1.11.74-2.29.74-1.79,0-2.35-.43-2.35-1.79v-3.15h-1.14c-.09,2.47-.74,4-2.14,5.25a1.38,1.38,0,0,1-.92.4,1.13,1.13,0,0,1-1.12-1.11,1.29,1.29,0,0,1,.47-1c.93-.8,1.36-1.73,1.45-3.58H184c-.59,0-.77.18-.77.77v5.66c0,.8-.71,1.2-1.46,1.2a1.3,1.3,0,0,1-1.45-1.2v-5.94a3.82,3.82,0,0,1,.37-1.76Zm4.14-3.59a24.55,24.55,0,0,1-2.29,2.48,7.59,7.59,0,0,1,1.21-.1h3a22.15,22.15,0,0,0,1.24-1.94.54.54,0,0,0,.09-.25c0-.12-.13-.19-.4-.19Zm6.31,7.52c0,.24.09.31.4.31s.59-.16.65-.69a.88.88,0,0,1,.93-.8,1,1,0,0,1,.43.09v-.8c0-.59-.19-.77-.77-.77H191Z" transform="translate(-27.13 -61.98)"/><path class="a" d="M226.13,251.12c.77,0,1.15.71,1.15,1.42s-.38,1.42-1.15,1.42H207.58a29.44,29.44,0,0,1-3.52,4.21,1.93,1.93,0,0,1-1.33.55,1.58,1.58,0,0,1-1.61-1.51,1.81,1.81,0,0,1,.59-1.21,27.45,27.45,0,0,0,5.16-7,1.73,1.73,0,0,1,1.58-.93,1.5,1.5,0,0,1,1.64,1.33,1.4,1.4,0,0,1-.19.74c-.15.31-.34.65-.52,1Zm-7.88,20.34a1.81,1.81,0,0,1,.8,1.48,1.69,1.69,0,0,1-1.64,1.71,1.89,1.89,0,0,1-1.11-.41c-1.33-1-2.75-2-4.2-2.93a35.37,35.37,0,0,1-7.76,5.07,1.94,1.94,0,0,1-.87.21A1.6,1.6,0,0,1,201.9,275a1.72,1.72,0,0,1,1.11-1.55,29.05,29.05,0,0,0,6.18-4c-1.17-.68-2.35-1.33-3.4-1.82a1.49,1.49,0,0,1-.93-1.33,1.59,1.59,0,0,1,1.61-1.55,2.4,2.4,0,0,1,.87.19,45.48,45.48,0,0,1,4.35,2.19,28.86,28.86,0,0,0,2.57-3.12,1.69,1.69,0,0,1,1.39-.74,1.62,1.62,0,0,1,1.67,1.55,1.79,1.79,0,0,1-.31.95,24.87,24.87,0,0,1-2.47,3.1C215.81,269.73,217.07,270.6,218.25,271.46Zm2.47-12c2.85,0,3.84,1,3.9,3.3a34.89,34.89,0,0,0,1.23,8.72c.5,1.52.75,1.73,1,1.73s.47-.34.56-1.79a1.25,1.25,0,0,1,1.33-1.18,1.36,1.36,0,0,1,1.48,1.4c-.28,3.67-1.54,5.1-3.28,5.1s-3.15-1-4.17-4.15a33.55,33.55,0,0,1-1.42-9.21c0-.77-.25-1-1.36-1h-16c-.77,0-1.14-.74-1.14-1.45s.37-1.45,1.14-1.45ZM208.67,258a1.38,1.38,0,0,1,0-2.72h13.78a1.38,1.38,0,0,1,0,2.72Z" transform="translate(-27.13 -61.98)"/><path class="a" d="M232.75,265c0-7,5.85-12.83,14.35-12.83,7.54,0,11.9,4.73,11.9,10.88,0,5.6-3.31,9.71-8.62,11.41a2.13,2.13,0,0,1-.72.12,1.73,1.73,0,0,1-1.73-1.76,1.78,1.78,0,0,1,1.3-1.7c4.39-1.57,6.15-4.23,6.15-8.07a7.56,7.56,0,0,0-7.45-7.73,30.87,30.87,0,0,1-3.49,13.14c-1.7,3-3.52,3.9-5.9,3.9C235.38,272.39,232.75,269.85,232.75,265Zm3.56,0c0,2.85,1.11,3.9,2.23,3.9,1,0,1.79-.5,2.69-2.08a28,28,0,0,0,3.09-11.28A9.8,9.8,0,0,0,236.31,265Z" transform="translate(-27.13 -61.98)"/><path class="a" d="M278.7,268.93a18.29,18.29,0,0,0,10.17,4.6,1.7,1.7,0,0,1,1.58,1.67,1.53,1.53,0,0,1-1.89,1.52,20.47,20.47,0,0,1-12.27-6.28,10.22,10.22,0,0,1-1.82,2.13,19.57,19.57,0,0,1-9.34,4.42,1.47,1.47,0,1,1-.56-2.87,15.72,15.72,0,0,0,7.67-3.68,7.54,7.54,0,0,0,1.27-1.51h-9a1.3,1.3,0,0,1-1.23-1.39,1.28,1.28,0,0,1,1.23-1.4h10c.12-.65.21-1.3.28-1.94H268.9a1.38,1.38,0,0,1,0-2.72H275c0-.62,0-1.24,0-1.86h-7.39a1.38,1.38,0,0,1,0-2.72h7.39v-1.27c0-.86.84-1.26,1.64-1.26s1.64.4,1.64,1.26v1.27h8.25a1.37,1.37,0,0,1,0,2.72h-8.25c0,.62,0,1.24,0,1.86h7.11a1.38,1.38,0,0,1,0,2.72h-7.3c-.06.64-.15,1.29-.24,1.94h11.34a1.26,1.26,0,0,1,1.24,1.4,1.28,1.28,0,0,1-1.24,1.39Zm-3.62-19.57c0-.87.84-1.27,1.7-1.27s1.67.4,1.67,1.27v1.76h7.95c2.81,0,3.77.93,3.77,2.91v1.79c0,.83-.84,1.27-1.7,1.27s-1.7-.44-1.7-1.27v-1.18c0-.55-.25-.8-1-.8H267.91c-.77,0-1,.25-1,.8v1.27c0,.84-.83,1.27-1.7,1.27s-1.7-.43-1.7-1.27v-1.82c0-2,1-3,3.8-3h7.79Z" transform="translate(-27.13 -61.98)"/><path class="a" d="M297.38,249.88a1.63,1.63,0,0,1,3.21,0v3.77h3.16a1.5,1.5,0,0,1,0,3h-4v3h1.48c2.38,0,3.34.93,3.34,3.12A74.49,74.49,0,0,1,304,273.1c-.37,2.53-1.67,3.43-3.4,3.43a9,9,0,0,1-1.57-.15,1.6,1.6,0,0,1-1.39-1.67,1.5,1.5,0,0,1,1.76-1.64,6,6,0,0,0,.74.06c.34,0,.52-.15.59-.62a61.76,61.76,0,0,0,.65-9.4c0-.55-.16-.74-.72-.74h-1a31.92,31.92,0,0,1-3.34,12.86,1.74,1.74,0,0,1-1.58,1,1.53,1.53,0,0,1-1.58-1.48,2.15,2.15,0,0,1,.28-1c1.92-3.43,3.09-8.53,3.09-14.41v-2.75h-2a1.51,1.51,0,0,1,0-3h2.88Zm22.88,2.72a1.51,1.51,0,0,1,0,3H309.4c-.46.77-.92,1.48-1.45,2.2a1.68,1.68,0,0,1-1.39.74,1.55,1.55,0,0,1-1.58-1.46,1.82,1.82,0,0,1,.44-1.11,22.59,22.59,0,0,0,3.12-6.34,1.5,1.5,0,0,1,1.51-1,1.63,1.63,0,0,1,1.74,1.46,1.42,1.42,0,0,1-.1.46c-.21.68-.49,1.39-.8,2.13Zm-13.33,13a1.43,1.43,0,0,1-1.76-1.46,1.39,1.39,0,0,1,1.14-1.39l1.36-.31V259.5a1.37,1.37,0,0,1,1.52-1.3,1.44,1.44,0,0,1,1.58,1.3v2.25l1.7-.37v-3.8c0-.8.74-1.17,1.45-1.17s1.45.37,1.45,1.17v3.15l1.55-.34a5,5,0,0,1,1.11-.12,2.29,2.29,0,0,1,2.5,2.47,40.64,40.64,0,0,1-.46,5.78c-.28,1.86-1.27,2.63-2.69,2.63a6.38,6.38,0,0,1-1-.06,1.28,1.28,0,0,1-1.08-.77,1.35,1.35,0,0,1-1.39.86,1.31,1.31,0,0,1-1.45-1.23v-5.63l-1.7.4v7.61c0,1,.15,1.26,3.46,1.26,4.2,0,4.79-.4,4.94-1.79a1.58,1.58,0,0,1,3.13.34c-.31,3.28-2,4.24-8,4.24-5.78,0-6.65-.87-6.65-3.44v-7.51Zm8.44,3.3a1.13,1.13,0,0,1,1.21-.64,2.7,2.7,0,0,0,.46,0l.16-.1a26.18,26.18,0,0,0,.37-4.39c0-.43-.19-.58-.68-.46l-1.52.34Z" transform="translate(-27.13 -61.98)"/><path class="a" d="M57.05,310.74a15,15,0,1,1-15-15A15,15,0,0,1,57.05,310.74Zm-28.47,0a13.51,13.51,0,1,0,13.51-13.51A13.52,13.52,0,0,0,28.58,310.74Zm18,6.56c1,0,1.43.4,1.43,1.29s-.47,1.27-1.43,1.27H37.52c-.87,0-1.4-.55-1.4-1.57a2.41,2.41,0,0,1,.87-1.83,51.3,51.3,0,0,0,5.53-5.5c1.52-1.79,2.11-3.09,2.11-4.39a2.45,2.45,0,0,0-2.45-2.75,4.48,4.48,0,0,0-3.3,1.54,1.43,1.43,0,0,1-1.09.41,1.36,1.36,0,0,1-1.36-1.3,1.35,1.35,0,0,1,.44-1.09,7.65,7.65,0,0,1,5.25-2.13c3.46,0,5.53,2,5.53,5.29,0,2.13-.86,3.92-3.06,6.24-1.26,1.33-3.09,3.06-4.69,4.52Z" transform="translate(-27.13 -61.98)"/><path class="a" d="M74.8,305.77h9.09a1.56,1.56,0,0,1,0,3.09H74.8v3.46H86.15a1.56,1.56,0,0,1,0,3.09H74.8v5.72c0,2.78-1.26,3.93-4.08,3.93a14.22,14.22,0,0,1-2.44-.25,1.64,1.64,0,0,1-1.42-1.64,1.6,1.6,0,0,1,2-1.61,7.51,7.51,0,0,0,1.67.19c.62,0,1-.25,1-1v-5.38H59.87a1.56,1.56,0,0,1,0-3.09h11.6v-3.46H62.19a1.56,1.56,0,0,1,0-3.09h9.28v-3.5c-2.69.34-5.38.53-7.92.62a1.57,1.57,0,0,1-1.67-1.61,1.48,1.48,0,0,1,1.52-1.51,84.85,84.85,0,0,0,17.87-2.63,3.11,3.11,0,0,1,.49-.06,1.65,1.65,0,0,1,1.64,1.67,1.56,1.56,0,0,1-1.3,1.54,74.36,74.36,0,0,1-7.3,1.52Z" transform="translate(-27.13 -61.98)"/><path class="a" d="M99.36,303a1.51,1.51,0,0,1,0,3H97.29v4.73c.49-.18,1-.4,1.45-.59a1.46,1.46,0,0,1,2,1.46,1.36,1.36,0,0,1-.84,1.26c-.83.41-1.73.81-2.65,1.18v7.51c0,2.23-1.12,3.28-3.59,3.28a9.44,9.44,0,0,1-1.79-.16,1.46,1.46,0,0,1-1.3-1.51,1.53,1.53,0,0,1,1.79-1.61,4.66,4.66,0,0,0,.93.09c.49,0,.68-.15.68-.68v-5.78a21.79,21.79,0,0,1-2.29.68,1.82,1.82,0,0,1-.43.07,1.58,1.58,0,0,1-1.52-1.67A1.5,1.5,0,0,1,91,312.72c1-.25,2-.55,3.06-.86V306H91.35a1.51,1.51,0,0,1,0-3H94v-5.13c0-.89.83-1.33,1.64-1.33s1.64.44,1.64,1.33V303Zm6.06-1.76a38.12,38.12,0,0,0,7.08-2.78,1.68,1.68,0,0,1,2.56,1.39,1.52,1.52,0,0,1-1,1.39,45.41,45.41,0,0,1-8.65,3v.9c0,1.08.43,1.42,3.55,1.42,4.48,0,5.1-.4,5.41-2.35a1.6,1.6,0,0,1,1.67-1.33,1.53,1.53,0,0,1,1.67,1.7c-.53,4-2.1,4.92-8.75,4.92-6,0-6.83-.87-6.83-3.62V298a1.49,1.49,0,0,1,1.67-1.36,1.43,1.43,0,0,1,1.61,1.33Zm1.17,23c-2.84,0-3.89-1.05-3.89-3.21v-6.5c0-2.16,1-3.21,3.89-3.21h5.5c2.85,0,3.9,1.05,3.9,3.21V321c-.06,2.63-1.55,3.15-3.9,3.21Zm6.12-9.3c0-.62-.21-.84-1-.84H107c-.83,0-1,.22-1,.84v1.42h6.74Zm-1,6.52c.84,0,1-.22,1-.83V319H106v1.61c0,.74.41.83,1,.83Z" transform="translate(-27.13 -61.98)"/><path class="a" d="M120.82,318a1.65,1.65,0,0,1,1.67-1.61,2.16,2.16,0,0,1,1.08.34,24.71,24.71,0,0,1,5.53,4.88,2.23,2.23,0,0,1,.56,1.43,1.76,1.76,0,0,1-1.79,1.73,1.9,1.9,0,0,1-1.52-.78,30.54,30.54,0,0,0-4.82-4.73A1.5,1.5,0,0,1,120.82,318Z" transform="translate(-27.13 -61.98)"/><path class="a" d="M156.44,304.19c3.06,0,4.2,1,4.2,3.28v5.07c0,2.25-1.14,3.27-4.2,3.27h-4.61v1.77h11.41a1.5,1.5,0,0,1,0,3H151.83v3.56c0,.86-.8,1.3-1.64,1.3s-1.64-.44-1.64-1.3v-3.56H137.49a1.5,1.5,0,0,1,0-3h11.06v-1.77h-4.23c-3.06,0-4.21-1-4.21-3.27v-5.07c0-2.26,1.15-3.28,4.21-3.28h4.23v-1.73h-10a1.51,1.51,0,0,1,0-3h10v-2.07c0-.87.84-1.27,1.64-1.27s1.64.4,1.64,1.27v2.07h10a1.51,1.51,0,0,1,0,3h-10v1.73Zm-7.89,4.54v-1.88h-3.8c-1.11,0-1.36.28-1.36.89v1Zm0,4.42v-1.94h-5.16v1.05c0,.86.68.86,1.36.89Zm3.28-4.42h5.53v-1c0-.61-.24-.89-1.36-.89h-4.17Zm0,2.48v1.94H156c1.12,0,1.36-.27,1.36-.89v-1.05Z" transform="translate(-27.13 -61.98)"/><path class="a" d="M182.38,304.5a21,21,0,0,1-.71,3.12,31,31,0,0,1,7.14,5.32,2,2,0,0,1,.68,1.45,1.77,1.77,0,0,1-1.73,1.76,1.5,1.5,0,0,1-1.11-.52,31.1,31.1,0,0,0-6.06-5.1,17.65,17.65,0,0,1-4.8,6.3,2.14,2.14,0,0,1-1.32.53,1.56,1.56,0,0,1-1.58-1.55,1.72,1.72,0,0,1,.74-1.36c2.91-2.32,4.64-5.41,5.44-9.95h-5.5c-1.18,0-1.52.4-1.52,1.27V324c0,.87-.83,1.3-1.7,1.3s-1.7-.43-1.7-1.3V305.36c0-2.41,1.24-3.89,4.3-3.89h6.49c.1-1.18.16-2.41.16-3.74a1.67,1.67,0,0,1,3.34,0c0,1.3-.07,2.56-.16,3.74h6.74c3,0,4.3,1.48,4.3,3.89V321c0,2.75-1.42,3.8-3.74,3.8a12,12,0,0,1-2.69-.25,1.62,1.62,0,0,1-1.33-1.67,1.59,1.59,0,0,1,1.88-1.7,11,11,0,0,0,1.67.16c.53,0,.81-.28.81-1V305.77c0-.87-.34-1.27-1.52-1.27Z" transform="translate(-27.13 -61.98)"/><path class="a" d="M203.47,307.16a1.87,1.87,0,0,1,.53,1.23,1.74,1.74,0,0,1-1.74,1.67,1.57,1.57,0,0,1-1.17-.52,27.59,27.59,0,0,0-2.6-2.41,1.53,1.53,0,0,1-.65-1.18,1.68,1.68,0,0,1,1.73-1.54,1.93,1.93,0,0,1,1.09.34A15.71,15.71,0,0,1,203.47,307.16Zm.68,5.87a1.7,1.7,0,0,1,1.82,1.58,1.72,1.72,0,0,1-.09.52,38.57,38.57,0,0,1-3.74,8.26,1.92,1.92,0,0,1-1.67.95,1.62,1.62,0,0,1-1.73-1.51,1.79,1.79,0,0,1,.34-1,36.36,36.36,0,0,0,3.49-7.7A1.55,1.55,0,0,1,204.15,313Zm1.24-13.29a1.8,1.8,0,0,1,.52,1.23,1.69,1.69,0,0,1-1.67,1.64A1.65,1.65,0,0,1,203,302a32.37,32.37,0,0,0-2.51-2.35,1.57,1.57,0,0,1-.62-1.15,1.68,1.68,0,0,1,1.74-1.51,1.88,1.88,0,0,1,1.08.37A17.91,17.91,0,0,1,205.39,299.74Zm7.17,3.24a1.8,1.8,0,0,1-1.79,1.7,1.44,1.44,0,0,1-1.33-.83,32.81,32.81,0,0,0-2-3.12,1.27,1.27,0,0,1-.25-.78,1.67,1.67,0,0,1,1.7-1.54,1.69,1.69,0,0,1,1.39.74,20.81,20.81,0,0,1,2.07,3.09A1.69,1.69,0,0,1,212.56,303Zm-1,15.37v5.59c0,.9-.8,1.33-1.64,1.33s-1.64-.43-1.64-1.33V309.17c0-2.17,1.05-3.28,3.59-3.28h2.35v-8.1a1.46,1.46,0,0,1,1.64-1.36c.83,0,1.64.43,1.64,1.36v8.1H220c2.53,0,3.58,1.11,3.58,3.28v12.61c0,2.41-1.14,3.28-3.43,3.28a10.68,10.68,0,0,1-2.1-.19,1.46,1.46,0,0,1-1.21-1.51,1.45,1.45,0,0,1,1.64-1.55,8.91,8.91,0,0,0,1.18.09c.46,0,.65-.18.65-.71v-2.84Zm.9-9.65c-.68,0-.9.25-.9.87v1.23h8.69v-1.23c0-.62-.22-.87-.9-.87Zm-.9,4.79v2.17h8.69v-2.17Zm11.16-15.27a1.75,1.75,0,0,1,1.79,1.55,1.31,1.31,0,0,1-.15.65,25.51,25.51,0,0,1-2.38,3.71,1.56,1.56,0,0,1-1.21.58,1.72,1.72,0,0,1-1.73-1.57,1.61,1.61,0,0,1,.37-1,23.65,23.65,0,0,0,2-3.18A1.37,1.37,0,0,1,222.76,298.22Z" transform="translate(-27.13 -61.98)"/><path class="a" d="M235.57,321.44c-.07.25-.1.46-.16.71a1.63,1.63,0,0,1-1.67,1.21c-.93,0-1.82-.59-1.57-1.61.43-1.76.77-3.37,1.05-4.92h-3.5a1.28,1.28,0,0,1,0-2.56h3.93c.06-.53.15-1.09.22-1.64.24-1.95,1.2-2.78,3.55-2.78h12.06c2.75,0,3.55,1,3.49,2.75,0,.58,0,1.14-.09,1.67h3.65a1.17,1.17,0,0,1,1.17,1.26,1.18,1.18,0,0,1-1.17,1.3h-3.87c-.06.68-.18,1.39-.28,2.07h3.34a1.18,1.18,0,0,1,1.21,1.27,1.2,1.2,0,0,1-1.21,1.27h-3.8l0,.18c-.53,2.45-1.42,3.47-4.08,3.47a10.82,10.82,0,0,1-2.26-.22,1.28,1.28,0,0,1-1.11-1.3,1.32,1.32,0,0,1,1.61-1.33,6.52,6.52,0,0,0,1.48.19c.71,0,1-.25,1.21-1Zm5.78-16.69h-7.11a1.26,1.26,0,0,1,0-2.51h7.11V301H232a1.27,1.27,0,0,1,0-2.53h9.34v-1.18c0-.86.8-1.29,1.64-1.29s1.66.46,1.66,1.33v1.14h10.27a1.27,1.27,0,0,1,0,2.53H244.65v1.24h7.7a1.26,1.26,0,0,1,0,2.51h-7.7V306H256a1.3,1.3,0,0,1,0,2.6H230.12a1.3,1.3,0,0,1,0-2.6h11.23Zm-4.89,12.08c-.12.68-.24,1.39-.37,2.07h4.82c.1-.68.19-1.39.25-2.07Zm5-2.56c.06-.65.12-1.3.16-1.95H238c-.74,0-.93.18-1,.74,0,.4-.09.81-.16,1.21Zm2.78,2.56c-.06.68-.15,1.39-.24,2.07h5.22c.09-.68.19-1.39.25-2.07Zm5.47-2.56c0-.4,0-.81.07-1.24s-.19-.71-1-.71h-4.08c-.07.65-.1,1.3-.19,1.95Z" transform="translate(-27.13 -61.98)"/><path class="a" d="M260.86,313c0-7,5.84-12.83,14.34-12.83,7.55,0,11.91,4.73,11.91,10.88,0,5.6-3.31,9.71-8.63,11.41a2.08,2.08,0,0,1-.71.12,1.73,1.73,0,0,1-1.73-1.76,1.78,1.78,0,0,1,1.3-1.7c4.39-1.57,6.15-4.23,6.15-8.07a7.56,7.56,0,0,0-7.45-7.73,31,31,0,0,1-3.49,13.14c-1.7,3-3.53,3.9-5.91,3.9C263.49,320.39,260.86,317.85,260.86,313Zm3.56,0c0,2.85,1.11,3.9,2.22,3.9s1.79-.5,2.69-2.08a27.84,27.84,0,0,0,3.09-11.28A9.8,9.8,0,0,0,264.42,313Z" transform="translate(-27.13 -61.98)"/><path class="a" d="M306.81,316.93a18.26,18.26,0,0,0,10.17,4.6,1.69,1.69,0,0,1,1.57,1.67,1.53,1.53,0,0,1-1.88,1.52,20.47,20.47,0,0,1-12.27-6.28,10.27,10.27,0,0,1-1.83,2.13,19.52,19.52,0,0,1-9.34,4.42,1.47,1.47,0,1,1-.55-2.87,15.8,15.8,0,0,0,7.67-3.68,7.49,7.49,0,0,0,1.26-1.51h-9a1.3,1.3,0,0,1-1.24-1.4,1.28,1.28,0,0,1,1.24-1.39h10a18.89,18.89,0,0,0,.28-1.94H297a1.38,1.38,0,0,1,0-2.72h6.12c0-.62,0-1.24,0-1.86h-7.39a1.38,1.38,0,0,1,0-2.72h7.39v-1.27c0-.86.83-1.26,1.64-1.26s1.64.4,1.64,1.26v1.27h8.25a1.38,1.38,0,0,1,0,2.72h-8.25c0,.62,0,1.24,0,1.86h7.11a1.38,1.38,0,0,1,0,2.72h-7.29c-.06.64-.16,1.29-.25,1.94h11.35a1.26,1.26,0,0,1,1.23,1.39,1.28,1.28,0,0,1-1.23,1.4Zm-3.62-19.57c0-.87.83-1.27,1.7-1.27s1.67.4,1.67,1.27v1.76h7.94c2.82,0,3.78.93,3.78,2.91v1.79c0,.83-.84,1.27-1.7,1.27s-1.7-.44-1.7-1.27v-1.18c0-.55-.25-.8-1-.8H296c-.78,0-1,.25-1,.8v1.27c0,.84-.84,1.27-1.7,1.27s-1.7-.43-1.7-1.27v-1.82c0-2,1-3,3.8-3h7.79Z" transform="translate(-27.13 -61.98)"/><path class="a" d="M325.49,297.88a1.63,1.63,0,0,1,3.21,0v3.77h3.15a1.5,1.5,0,0,1,0,3h-4v3h1.49c2.38,0,3.34.93,3.34,3.12a76.06,76.06,0,0,1-.59,10.39c-.37,2.53-1.67,3.43-3.4,3.43a9.1,9.1,0,0,1-1.58-.15,1.6,1.6,0,0,1-1.39-1.67,1.51,1.51,0,0,1,1.76-1.64,6.32,6.32,0,0,0,.75.06c.34,0,.52-.15.58-.62a60.49,60.49,0,0,0,.65-9.4c0-.55-.15-.74-.71-.74h-1a31.92,31.92,0,0,1-3.34,12.86,1.74,1.74,0,0,1-1.57,1,1.52,1.52,0,0,1-1.58-1.48,2,2,0,0,1,.28-1c1.92-3.43,3.09-8.53,3.09-14.41v-2.75h-2a1.51,1.51,0,0,1,0-3h2.88Zm22.87,2.72a1.5,1.5,0,0,1,0,3H337.51c-.46.77-.93,1.48-1.45,2.2a1.69,1.69,0,0,1-1.39.74,1.54,1.54,0,0,1-1.58-1.46,1.8,1.8,0,0,1,.43-1.11,22.34,22.34,0,0,0,3.13-6.34,1.5,1.5,0,0,1,1.51-1.05,1.62,1.62,0,0,1,1.73,1.46,1.38,1.38,0,0,1-.09.46c-.22.68-.5,1.39-.8,2.13Zm-13.32,13a1.43,1.43,0,0,1-1.76-1.46,1.39,1.39,0,0,1,1.14-1.39l1.36-.31V307.5a1.36,1.36,0,0,1,1.51-1.3,1.43,1.43,0,0,1,1.58,1.3v2.25l1.7-.37v-3.8c0-.8.74-1.17,1.45-1.17s1.46.37,1.46,1.17v3.15l1.54-.34a5.16,5.16,0,0,1,1.12-.12,2.29,2.29,0,0,1,2.5,2.47,42.17,42.17,0,0,1-.46,5.78c-.28,1.86-1.27,2.63-2.69,2.63a6.38,6.38,0,0,1-1-.06,1.27,1.27,0,0,1-1.08-.77,1.36,1.36,0,0,1-1.4.86,1.31,1.31,0,0,1-1.45-1.23v-5.63l-1.7.4v7.61c0,.95.16,1.26,3.46,1.26,4.21,0,4.8-.4,4.95-1.79a1.58,1.58,0,0,1,3.12.34c-.31,3.28-2,4.24-8,4.24-5.78,0-6.65-.87-6.65-3.44v-7.51Zm8.44,3.3a1.12,1.12,0,0,1,1.2-.64,2.81,2.81,0,0,0,.47,0l.15-.1a25.17,25.17,0,0,0,.37-4.39c0-.43-.18-.58-.68-.46l-1.51.34Z" transform="translate(-27.13 -61.98)"/><path class="a" d="M57.05,358.74a15,15,0,1,1-15-15A15,15,0,0,1,57.05,358.74Zm-28.47,0a13.51,13.51,0,1,0,13.51-13.51A13.52,13.52,0,0,0,28.58,358.74Zm13-1.76c1.82,0,3.06-1.05,3.06-2.72s-1.21-2.53-2.88-2.53a4.83,4.83,0,0,0-3,1.2,1.39,1.39,0,0,1-1,.37A1.35,1.35,0,0,1,36.43,352a1.18,1.18,0,0,1,.47-1,7.74,7.74,0,0,1,4.82-1.7c3.68,0,5.87,1.89,5.87,4.92A3.93,3.93,0,0,1,44.9,358a4.66,4.66,0,0,1,3.25,4.54c0,3.47-2.57,5.79-6.46,5.79a8.31,8.31,0,0,1-5.16-1.52,1.33,1.33,0,0,1-.65-1.11,1.35,1.35,0,0,1,1.33-1.39,1.74,1.74,0,0,1,1.14.46,5.81,5.81,0,0,0,3.31,1.08,3.17,3.17,0,0,0,3.46-3.37c0-1.91-1.3-3-3.37-3H40.33c-.87,0-1.33-.43-1.33-1.23A1.16,1.16,0,0,1,40.33,357Z" transform="translate(-27.13 -61.98)"/><path class="a" d="M80,349.9c2.69,0,4.14,1.11,4.14,2.81a5.46,5.46,0,0,1-1.11,3,37.49,37.49,0,0,1-8.35,8.38c1,1,1.92,2,2.69,2.88a2.28,2.28,0,0,1,.62,1.48,2,2,0,0,1-2,1.92,2.09,2.09,0,0,1-1.64-.87,58.24,58.24,0,0,0-8.07-7.76,1.76,1.76,0,0,1-.77-1.36,1.91,1.91,0,0,1,1.92-1.79,2.14,2.14,0,0,1,1.23.4,36.26,36.26,0,0,1,3.41,2.69,30.27,30.27,0,0,0,7.38-7.17,1.31,1.31,0,0,0,.31-.71c0-.31-.28-.44-.92-.44L61,353.55a1.58,1.58,0,0,1-1.58-1.7A1.62,1.62,0,0,1,61,350.09Z" transform="translate(-27.13 -61.98)"/><path class="a" d="M104.4,348.45c2.41-.06,3.64,1,3.64,2.66a5.11,5.11,0,0,1-.34,1.67,28.64,28.64,0,0,1-4.23,7.39,45.79,45.79,0,0,1,8.28,7.32,2.15,2.15,0,0,1,.59,1.39,2,2,0,0,1-2,1.86,1.94,1.94,0,0,1-1.48-.74,47.42,47.42,0,0,0-7.61-7.27A35.57,35.57,0,0,1,91.2,370.4a2.07,2.07,0,0,1-.9.21,1.81,1.81,0,0,1-1.79-1.79,1.73,1.73,0,0,1,1-1.58c6.43-3.24,11.84-8.5,14.28-14.49a1.23,1.23,0,0,0,.12-.5c0-.28-.24-.4-.77-.4l-11.07.22a1.56,1.56,0,0,1-1.54-1.67,1.58,1.58,0,0,1,1.51-1.73Z" transform="translate(-27.13 -61.98)"/><path class="a" d="M132.63,350.24c2.56,0,3.86,1,3.86,2.85a5.32,5.32,0,0,1-.28,1.63,30.47,30.47,0,0,1-14.16,17.5,2.25,2.25,0,0,1-1,.28,1.76,1.76,0,0,1-1.76-1.76,2,2,0,0,1,1.08-1.67,26.42,26.42,0,0,0,12.15-14.69,1,1,0,0,0,.1-.43c0-.34-.25-.49-.84-.49l-6.92.06a33,33,0,0,1-5,5.87,2,2,0,0,1-1.42.59,1.7,1.7,0,0,1-1.74-1.64,2.11,2.11,0,0,1,.78-1.48,32.63,32.63,0,0,0,7.45-10.64,1.82,1.82,0,0,1,1.7-1.17,1.73,1.73,0,0,1,1.82,1.64,2.21,2.21,0,0,1-.15.71c-.4,1-.87,1.91-1.39,2.9Z" transform="translate(-27.13 -61.98)"/><path class="a" d="M143.67,349.81a1.1,1.1,0,0,1-1-1.21,1.07,1.07,0,0,1,1-1.2h6.43a12.33,12.33,0,0,0-1-1.27,1.25,1.25,0,0,1-.31-.8,1.5,1.5,0,0,1,1.55-1.33,1.7,1.7,0,0,1,1.17.49,9.78,9.78,0,0,1,1.24,1.42,1.35,1.35,0,0,1,.28.84,1.18,1.18,0,0,1-.19.65h3.83a20.05,20.05,0,0,0,1.52-2.57,1.56,1.56,0,0,1,1.48-.9,1.44,1.44,0,0,1,1.58,1.27,1.21,1.21,0,0,1-.22.68c-.31.56-.62,1.05-.92,1.52H167a1.08,1.08,0,0,1,1.05,1.2,1.1,1.1,0,0,1-1.05,1.21H156.59v1.39h7.82a1.07,1.07,0,0,1,1,1.17,1.08,1.08,0,0,1-1,1.21h-7.82V355h11.35a1.23,1.23,0,0,1,0,2.44H151.21c-.24.65-.49,1.27-.77,1.92a8,8,0,0,1,1.85-.18h9c2.94,0,3.93.92,3.93,3.09v7.54c0,2.16-1,3.06-3.93,3.06h-9c-2.93,0-3.92-.9-3.92-3.06v-6.46a26.17,26.17,0,0,1-4.45,5.56,1.85,1.85,0,0,1-1.27.53,1.66,1.66,0,0,1-1.64-1.58,1.56,1.56,0,0,1,.59-1.2,23.2,23.2,0,0,0,6.18-9.22h-5.56a1.24,1.24,0,0,1,0-2.44h11.19v-1.42H145.8a1.08,1.08,0,0,1-1-1.21,1.07,1.07,0,0,1,1-1.17h7.61v-1.39ZM162,362.33c0-.62-.18-.8-1-.8H152.6c-.83,0-1,.18-1,.8v.77H162Zm-10.39,4.45H162V365.2H151.61Zm9.37,3.74c.84,0,1-.18,1-.8v-.84H151.61v.84c0,.74.34.8,1,.8Z" transform="translate(-27.13 -61.98)"/><path class="a" d="M193.17,345.88c2.91,0,4.17,1.36,4.17,3.84v18.36c0,2.66-1.14,4.14-3.8,4.14a12.82,12.82,0,0,1-2.29-.18,1.62,1.62,0,0,1-1.36-1.61,1.6,1.6,0,0,1,2-1.61,5.9,5.9,0,0,0,1.21.12c.68,0,.89-.34.89-1.26v-4.83h-6.77v7.45c0,.9-.83,1.33-1.67,1.33s-1.67-.43-1.67-1.33v-7.45h-6.52a20.61,20.61,0,0,1-3,8.66,1.86,1.86,0,0,1-1.57,1,1.65,1.65,0,0,1-1.7-1.61,2,2,0,0,1,.31-1.05c1.94-3.22,2.9-7,2.9-13.54v-6.55c0-2.48,1.3-3.84,4.21-3.84Zm-9.34,14v-4.05h-6.15v.46c0,1.21,0,2.38-.09,3.59Zm0-7v-4h-4.45c-1.33,0-1.7.37-1.7,1.55v2.41Zm3.34,0h6.77v-2.41c0-1.18-.34-1.55-1.67-1.55h-5.1Zm0,3v4.05h6.77v-4.05Z" transform="translate(-27.13 -61.98)"/><path class="a" d="M202.05,361c0-7,5.84-12.83,14.34-12.83,7.55,0,11.91,4.73,11.91,10.88,0,5.6-3.31,9.71-8.63,11.41a2.08,2.08,0,0,1-.71.12,1.73,1.73,0,0,1-1.73-1.76,1.78,1.78,0,0,1,1.3-1.7c4.39-1.57,6.15-4.23,6.15-8.07a7.56,7.56,0,0,0-7.45-7.73,30.87,30.87,0,0,1-3.5,13.14c-1.7,3-3.52,3.9-5.9,3.9C204.68,368.39,202.05,365.85,202.05,361Zm3.55,0c0,2.85,1.12,3.9,2.23,3.9,1,0,1.79-.5,2.69-2.08a27.84,27.84,0,0,0,3.09-11.28A9.8,9.8,0,0,0,205.6,361Z" transform="translate(-27.13 -61.98)"/><path class="a" d="M243,358.28a20.94,20.94,0,0,1,5.28-.62c4.95,0,8.07,2.29,8.07,6.15s-2.69,6.53-7.2,7.18a1.63,1.63,0,0,1-2-1.64,1.6,1.6,0,0,1,1.42-1.61c3-.53,4.24-1.89,4.24-3.9,0-1.7-1.58-3.15-4.52-3.15a18.4,18.4,0,0,0-5.31.8V367c0,3.21-1.39,4.39-4.27,4.39s-5.78-2.14-5.78-4.83c0-2.25,1.3-4.73,6.71-7.23v-5.19c-1.55.15-3,.28-4.27.28a1.48,1.48,0,0,1-1.51-1.58,1.49,1.49,0,0,1,1.51-1.61c1.24,0,2.72-.12,4.27-.31v-4.7a1.68,1.68,0,0,1,3.34,0v4.24c1-.19,2.07-.37,2.93-.59a1.81,1.81,0,0,1,.56-.06,1.58,1.58,0,0,1,1.64,1.57,1.55,1.55,0,0,1-1.3,1.52c-1.14.28-2.44.56-3.83.77Zm-3.34,4.48c-2.69,1.52-3.25,2.54-3.25,3.74,0,1,1.12,1.61,2.26,1.61.9,0,1-.59,1-1.36Zm17.93-10.63a1.93,1.93,0,0,1,.71,1.45,1.8,1.8,0,0,1-1.79,1.76,1.87,1.87,0,0,1-1.27-.52,23.84,23.84,0,0,0-3.74-2.69,1.55,1.55,0,0,1-.87-1.39,1.87,1.87,0,0,1,1.77-1.83,1.64,1.64,0,0,1,.83.22A23,23,0,0,1,257.61,352.13Z" transform="translate(-27.13 -61.98)"/><path class="a" d="M269.33,362.14c-2,0-2.84-.83-2.84-2.75V354c0-1.92.8-2.75,2.84-2.75h.16c.24-.87.46-1.76.62-2.66h-3.59c-.87,0-1.11.28-1.11,1v4.89c0,7.38-.71,11.93-2,15.54a1.57,1.57,0,0,1-1.52,1.15,1.5,1.5,0,0,1-1.54-1.49,1.83,1.83,0,0,1,.12-.64c1.24-3.37,1.82-7.49,1.82-14.78V349c0-2.2,1.06-3.28,3.78-3.28h9.09a1.25,1.25,0,0,1,1.2,1.39,1.27,1.27,0,0,1-1.2,1.39h-2a26.41,26.41,0,0,1-.64,2.66h1.08c2,0,2.84.83,2.84,2.75v5.44c0,1.92-.8,2.75-2.84,2.75H273v7.7c0,2.47-1.08,3.37-3.49,3.37a10.36,10.36,0,0,1-1.45-.12,1.43,1.43,0,0,1-1.27-1.46,1.39,1.39,0,0,1,1.61-1.45,5.57,5.57,0,0,0,.92.09c.56,0,.71-.15.71-.74v-7.39Zm-1.48,1.33a1.42,1.42,0,0,1,1.48,1.36,1.78,1.78,0,0,1-.09.53,18.61,18.61,0,0,1-1.89,4,1.53,1.53,0,0,1-1.29.74,1.38,1.38,0,0,1-1.46-1.27,1.63,1.63,0,0,1,.25-.83,16.54,16.54,0,0,0,1.67-3.59A1.33,1.33,0,0,1,267.85,363.47Zm5.75-9.27c0-.43-.16-.59-.62-.59h-3.09c-.46,0-.62.16-.62.59v1.3h4.33Zm-.62,5.53c.46,0,.62-.15.62-.59v-1.36h-4.33v1.36c0,.44.16.59.62.59Zm4.76,7a1.5,1.5,0,0,1,.13.59,1.48,1.48,0,0,1-1.49,1.42,1.36,1.36,0,0,1-1.27-.87c-.49-1.08-.83-1.85-1.26-2.59a1.52,1.52,0,0,1-.22-.78,1.31,1.31,0,0,1,1.36-1.23,1.45,1.45,0,0,1,1.21.68A19.38,19.38,0,0,1,277.74,366.75Zm3,.74a1.5,1.5,0,0,1,1.49,1.42,1.34,1.34,0,0,1-.38.93,17.9,17.9,0,0,1-3.43,3,1.81,1.81,0,0,1-1,.31,1.5,1.5,0,0,1-1.51-1.45,1.38,1.38,0,0,1,.71-1.21,18.28,18.28,0,0,0,3-2.44A1.52,1.52,0,0,1,280.77,367.49Zm4.61-16.91c2.22,0,3.09.87,3.09,2.78v10.76c0,1.95-.87,2.85-3.09,2.85h-4.33c-2.2,0-3.06-.9-3.06-2.85V353.36c0-1.91.86-2.78,3.06-2.78h.28c.25-.65.43-1.3.62-2h-3.68c-.78,0-1.15-.71-1.15-1.42a1.24,1.24,0,0,1,1.15-1.39h10.57a1.43,1.43,0,0,1,0,2.81H285a16.84,16.84,0,0,1-.62,2Zm.15,3.06c0-.49-.21-.62-.68-.62h-3.24c-.47,0-.68.13-.68.62v1.58h4.6Zm-4.6,6.15h4.6v-2.22h-4.6Zm3.92,4.64c.47,0,.68-.12.68-.62v-1.67h-4.6v1.67c0,.5.21.62.68.62Zm4.27,5.78a1.67,1.67,0,0,1,.74,1.3,1.5,1.5,0,0,1-1.51,1.45,1.71,1.71,0,0,1-1.06-.37,19.26,19.26,0,0,1-3.06-2.84,1.53,1.53,0,0,1-.37-.93,1.45,1.45,0,0,1,1.52-1.33,1.58,1.58,0,0,1,1.17.53A30,30,0,0,0,289.12,370.21Z" transform="translate(-27.13 -61.98)"/><path class="a" d="M296.17,348.29A1.67,1.67,0,0,1,298,350c-.06,1-.13,1.7-.13,2.81,0,10.82,2.2,13.66,3.5,13.66.74,0,1.39-.49,2-2.81a1.57,1.57,0,0,1,1.57-1.33,1.71,1.71,0,0,1,1.77,1.67,1.34,1.34,0,0,1-.07.52c-1.14,4.15-3.12,5.66-5.19,5.66-4.48,0-7.2-5.53-7.2-17.28,0-1.42.06-2.35.12-3.15A1.7,1.7,0,0,1,296.17,348.29Zm23.31,13.11a3.23,3.23,0,0,1,.13.65,1.67,1.67,0,0,1-1.73,1.64,1.7,1.7,0,0,1-1.64-1.18,27.49,27.49,0,0,0-5.35-8.4,1.66,1.66,0,0,1-.53-1.15,1.72,1.72,0,0,1,1.77-1.58,2.07,2.07,0,0,1,1.36.59A24.83,24.83,0,0,1,319.48,361.4Z" transform="translate(-27.13 -61.98)"/><path class="a" d="M40.08,422.94a1.43,1.43,0,0,1,0,2.84H34.86v3.09c1.73-.28,3.49-.58,5.19-1a2.42,2.42,0,0,1,.46-.06,1.43,1.43,0,0,1,1.43,1.49,1.35,1.35,0,0,1-1.09,1.35,73.62,73.62,0,0,1-11.56,2,1.56,1.56,0,0,1-1.73-1.6A1.44,1.44,0,0,1,29,429.52c.84-.06,1.7-.15,2.57-.24v-9.34c0-.87.83-1.3,1.67-1.3s1.64.43,1.64,1.3v3Zm-3.93,23.8c-2.75,0-4-1-4-3.21v-5.88c0-2.25,1.23-3.21,4-3.21h3.37c.28-.68.5-1.33.72-2a1.45,1.45,0,0,1,1.48-1,1.56,1.56,0,0,1,1.7,1.36,1.14,1.14,0,0,1-.06.43c-.16.46-.31.87-.47,1.27h5.38c2.75,0,4,1,4,3.21v5.88c-.06,2.62-1.67,3.15-4,3.21Zm12.77-8.84c0-.68-.24-.93-1.23-.93H36.74c-1,0-1.23.25-1.23.93v1.36H48.92Zm-1.23,6.24c1,0,1.23-.24,1.23-.92v-1.43H35.51v1.43c0,.86.49.89,1.23.92Zm-1.36-20.8A31,31,0,0,0,52,420.8a1.66,1.66,0,0,1,.87-.24,1.52,1.52,0,0,1,1.52,1.51,1.56,1.56,0,0,1-.87,1.33,31.36,31.36,0,0,1-7.23,3v1.89c0,.8.21,1,3,1,3.43,0,3.8-.31,4-2a1.52,1.52,0,0,1,1.61-1.3c.9,0,1.76.56,1.64,1.58-.4,3.52-1.58,4.54-7.3,4.54-5.16,0-6.24-.74-6.24-3.4v-9.06c0-.86.8-1.26,1.64-1.26s1.61.4,1.61,1.23Z" transform="translate(-27.13 -61.98)"/><path class="a" d="M59.72,428.35c-.77,0-1.18-.74-1.18-1.49s.41-1.48,1.15-1.48h2.78v-5.63c0-.8.77-1.17,1.58-1.17s1.54.37,1.54,1.17v5.63h1.8c.77,0,1.17.74,1.17,1.48s-.4,1.49-1.17,1.49h-1.8v2.59a19.61,19.61,0,0,1,3.06,3.31,1.55,1.55,0,0,1,.34.93,1.37,1.37,0,0,1-1.36,1.33,1.29,1.29,0,0,1-1.11-.65c-.28-.43-.59-.9-.93-1.33v11.69a1.58,1.58,0,0,1-3.12,0v-4.49l.09-6.27a23.78,23.78,0,0,1-1.85,4,1.32,1.32,0,0,1-1.18.71,1.34,1.34,0,0,1-1.33-1.3,1.51,1.51,0,0,1,.25-.84,33.37,33.37,0,0,0,3.71-9.67Zm14,10.91a1.49,1.49,0,0,1,1.43,1.48,1.35,1.35,0,0,1-.68,1.18,28.58,28.58,0,0,1-5,2.47,2.34,2.34,0,0,1-.59.13A1.54,1.54,0,0,1,67.48,443a1.44,1.44,0,0,1,1-1.36A29.11,29.11,0,0,0,73,439.48,1.42,1.42,0,0,1,73.75,439.26Zm2-9.8H72.15a1.24,1.24,0,0,1,0-2.47h3.58V425.6H70.45a1.16,1.16,0,0,1-1.12-1.27,1.15,1.15,0,0,1,1.12-1.27h7.2a19.62,19.62,0,0,0,1.95-3.52,1.55,1.55,0,0,1,1.48-1,1.42,1.42,0,0,1,1.52,1.3,1.68,1.68,0,0,1-.16.61,17.22,17.22,0,0,1-1.42,2.6h3.89a1.18,1.18,0,0,1,1.18,1.27,1.19,1.19,0,0,1-1.18,1.27h-6V427h4.29a1.24,1.24,0,0,1,0,2.47H78.89v1.45H86a1.31,1.31,0,0,1,0,2.6H78.89v.87a19.49,19.49,0,0,0,1.57,2.44,28,28,0,0,0,2.35-2.14,1.5,1.5,0,0,1,1-.49,1.58,1.58,0,0,1,1.55,1.48,1.28,1.28,0,0,1-.43.93,27.78,27.78,0,0,1-2.79,2.32,20,20,0,0,0,4.18,3.43,1.58,1.58,0,0,1,.86,1.33,1.54,1.54,0,0,1-1.48,1.52,1.74,1.74,0,0,1-.87-.28,22.28,22.28,0,0,1-6.12-6.12l.13,3.8V444c0,2.41-1.24,3.25-3.5,3.25a11.22,11.22,0,0,1-1.64-.13,1.54,1.54,0,0,1-1.45-1.58A1.47,1.47,0,0,1,74,444a8.72,8.72,0,0,0,1.12.09c.4,0,.58-.15.58-.62v-9.95h-6a1.32,1.32,0,0,1,0-2.6h6Zm-1.36,6.8a1.41,1.41,0,0,1,.34.9,1.49,1.49,0,0,1-2.69.74,15.73,15.73,0,0,0-1.39-1.58,1.22,1.22,0,0,1-.4-.86,1.44,1.44,0,0,1,1.48-1.3,1.65,1.65,0,0,1,1.12.43A16.91,16.91,0,0,1,74.37,436.26Zm1.39-15.73a1.44,1.44,0,0,1-1.36,2.28,1.39,1.39,0,0,1-1.26-.74c-.25-.43-.59-.93-1-1.45a1.29,1.29,0,0,1-.28-.74,1.6,1.6,0,0,1,2.75-.78A11.53,11.53,0,0,1,75.76,420.53Z" transform="translate(-27.13 -61.98)"/><path class="a" d="M90.79,435.24c0-7.05,5.85-12.83,14.35-12.83,7.54,0,11.9,4.73,11.9,10.88,0,5.6-3.31,9.71-8.62,11.41a2.15,2.15,0,0,1-.72.13,1.74,1.74,0,0,1-1.73-1.77,1.78,1.78,0,0,1,1.3-1.7c4.39-1.57,6.15-4.23,6.15-8.07,0-4.05-2.75-7.38-7.45-7.72a30.86,30.86,0,0,1-3.49,13.13c-1.7,3-3.52,3.9-5.9,3.9C93.42,442.6,90.79,440.06,90.79,435.24Zm3.56,0c0,2.85,1.11,3.9,2.23,3.9,1,0,1.79-.5,2.69-2.07a28.1,28.1,0,0,0,3.09-11.29A9.8,9.8,0,0,0,94.35,435.24Z" transform="translate(-27.13 -61.98)"/><path class="a" d="M122.24,438.7a8.74,8.74,0,0,1,.34-2.32,1.71,1.71,0,0,1,1.73-1.23,1.54,1.54,0,0,1,1.7,1.42,2.45,2.45,0,0,1-.06.43,6.9,6.9,0,0,0-.18,1.55c0,1.95,1,3,6.83,3a42,42,0,0,0,8.44-.9,3.11,3.11,0,0,1,.49-.06,1.64,1.64,0,0,1,1.64,1.7,1.8,1.8,0,0,1-1.51,1.76,40.62,40.62,0,0,1-9.06,1C125.15,445,122.24,442.91,122.24,438.7Zm9.93-15.39a37.11,37.11,0,0,0,5.53-.34,1.71,1.71,0,0,1,.55,3.37,42.11,42.11,0,0,1-6.05.37,34.11,34.11,0,0,1-6.43-.53,1.75,1.75,0,0,1,.68-3.43A29.58,29.58,0,0,0,132.17,423.31Zm7.54-2.13A1.27,1.27,0,0,1,141,420a1.24,1.24,0,0,1,.92.43,16.56,16.56,0,0,1,2.17,2.91,1.42,1.42,0,0,1,.21.74,1.26,1.26,0,0,1-1.26,1.24,1.19,1.19,0,0,1-1.05-.68,23.06,23.06,0,0,0-2-2.81A1,1,0,0,1,139.71,421.18ZM143,419a1.2,1.2,0,0,1,1.27-1.08,1.42,1.42,0,0,1,1,.43,16.07,16.07,0,0,1,2.14,2.75,1.71,1.71,0,0,1,.27.84,1.2,1.2,0,0,1-1.23,1.2,1.4,1.4,0,0,1-1.15-.68,34.45,34.45,0,0,0-2-2.78A1.09,1.09,0,0,1,143,419Z" transform="translate(-27.13 -61.98)"/><path class="a" d="M157.06,426.25a1.36,1.36,0,0,1,1.27,1.51,1.38,1.38,0,0,1-1.27,1.52h-1.7v16.81c0,.87-.84,1.33-1.67,1.33S152,447,152,446.09V429.28h-1.86a1.38,1.38,0,0,1-1.23-1.52,1.35,1.35,0,0,1,1.23-1.51H152v-6.43c0-.87.83-1.3,1.67-1.3s1.67.43,1.67,1.3v6.43Zm5.28,11.25a16.16,16.16,0,0,1-3.89,8.9,1.64,1.64,0,0,1-1.18.53,1.39,1.39,0,0,1-1.45-1.33,1.78,1.78,0,0,1,.53-1.18,12.62,12.62,0,0,0,3.06-6.86l-1.8,0a1.21,1.21,0,0,1-1.17-1.33,1.26,1.26,0,0,1,1.17-1.39l2.08,0c0-.56.06-1.14.06-1.73a1.29,1.29,0,0,1,1.42-1.27c.77,0,1.55.43,1.51,1.33,0,.56,0,1.08-.06,1.61l1.39,0c2,0,3,.77,3,2.62a37.6,37.6,0,0,1-.4,5.75c-.43,2.63-1.7,3.59-3.49,3.59a8.43,8.43,0,0,1-1.43-.12,1.33,1.33,0,0,1-1.08-1.36A1.31,1.31,0,0,1,162,443.8a5,5,0,0,0,.62.07c.65,0,.9-.19,1-1.09A35.15,35.15,0,0,0,164,438c0-.46-.09-.55-.68-.55Zm5.41-12.83a14.1,14.1,0,0,1-7.51,7,1.57,1.57,0,0,1-.71.15,1.51,1.51,0,0,1-.49-2.94,10.78,10.78,0,0,0,5.16-4.17l-4.08,0a1.43,1.43,0,0,1,0-2.84l5.22,0a17.24,17.24,0,0,0,.37-2.14,1.47,1.47,0,0,1,1.58-1.23,1.51,1.51,0,0,1,1.67,1.57,15.6,15.6,0,0,1-.28,1.77l3.83,0c2.35,0,3.19,1.3,3.1,2.85a15.39,15.39,0,0,1-.68,3.71,3.24,3.24,0,0,1-3.34,2.44,12.32,12.32,0,0,1-2.29-.19,1.48,1.48,0,0,1,.43-2.93,6.22,6.22,0,0,0,1.33.15c.4,0,.71-.18.93-.8a7.49,7.49,0,0,0,.37-1.82c0-.41-.06-.59-.59-.59Zm5.11,12.86c-.56,4.05-1.8,6.74-3.78,8.9a1.73,1.73,0,0,1-1.26.59,1.42,1.42,0,0,1-1.49-1.33,1.67,1.67,0,0,1,.53-1.11,12.29,12.29,0,0,0,3-7l-1.24,0a1.23,1.23,0,0,1-1.2-1.36,1.26,1.26,0,0,1,1.17-1.39l1.55,0c0-.62.06-1.24.06-1.92a1.3,1.3,0,0,1,1.45-1.26,1.33,1.33,0,0,1,1.48,1.32c0,.62,0,1.21-.06,1.8l1.42,0c1.89,0,3,.8,3,2.59a36.81,36.81,0,0,1-.46,6.09c-.4,2.41-1.39,3.28-3.31,3.28a9.78,9.78,0,0,1-1.61-.12A1.34,1.34,0,0,1,171,445.2c0-.78.5-1.55,1.36-1.43a6,6,0,0,0,1.05.1c.37,0,.56-.19.68-.87a29.61,29.61,0,0,0,.44-4.88c0-.53-.13-.62-.68-.62Z" transform="translate(-27.13 -61.98)"/><path class="a" d="M194.22,428.41c-.52,5.32-1.67,8.41-3.4,10.94a21.78,21.78,0,0,1-8.16,7,2.36,2.36,0,0,1-1,.28,1.58,1.58,0,0,1-1.61-1.61,1.72,1.72,0,0,1,1.09-1.57,18.21,18.21,0,0,0,6.8-5.94c1.39-2,2.35-4.61,2.84-9.12l-8.38.09a1.44,1.44,0,0,1-1.42-1.54,1.47,1.47,0,0,1,1.42-1.58l8.63-.06c.09-1.58.12-3.34.12-5.32a1.75,1.75,0,0,1,3.46,0c0,2,0,3.71-.12,5.29l6.49-.06c3.28,0,4.58,1.14,4.58,3.71a72.43,72.43,0,0,1-.81,11.68c-.71,4-2.44,5.13-5.65,5.13a12.33,12.33,0,0,1-2.82-.28,1.81,1.81,0,0,1-1.54-1.79,1.68,1.68,0,0,1,2.13-1.64,9.4,9.4,0,0,0,2.26.25c1.11,0,1.73-.4,2.13-2.26a58.57,58.57,0,0,0,.84-10.54c0-.86-.25-1.17-1.55-1.17Z" transform="translate(-27.13 -61.98)"/><path class="a" d="M222.73,422.91c0,1.08,0,2.13,0,3.15a43.29,43.29,0,0,0,6.09-.83,1.68,1.68,0,0,1,.62,3.3,40,40,0,0,1-6.61.87c.15,2.47.28,5,.58,7.42a29.89,29.89,0,0,1,7.89,3.74,1.85,1.85,0,0,1,.89,1.58,1.83,1.83,0,0,1-1.79,1.85,2.17,2.17,0,0,1-1.3-.46,29.69,29.69,0,0,0-5.56-3.06c-.37,3.09-2.82,5.22-7,5.22-3.86,0-6.58-1.76-6.58-4.91,0-2.73,2.5-5,6.67-5a24.41,24.41,0,0,1,3.25.24,126.21,126.21,0,0,1-.68-13.2V420.9c0-1,.9-1.46,1.79-1.46a1.57,1.57,0,0,1,1.76,1.46Zm-2.65,16.47a15.68,15.68,0,0,0-3.47-.43c-2,0-3,.74-3,1.83s.87,1.66,2.91,1.66S220.08,441.27,220.08,439.38Z" transform="translate(-27.13 -61.98)"/><path class="a" d="M245.43,431.75a13.52,13.52,0,0,1,4.89-1c5.44,0,7.82,2.91,7.82,6.21,0,4.7-4,8.29-11.53,9.06a1.67,1.67,0,0,1-2-1.7,1.65,1.65,0,0,1,1.58-1.67c6.24-.74,8.28-3.09,8.28-5.59,0-1.73-1.33-3.25-4.48-3.25a14.55,14.55,0,0,0-6.22,1.55,31.33,31.33,0,0,0-4.88,3,2.17,2.17,0,0,1-1.18.43,1.69,1.69,0,0,1-1-3.09,67.44,67.44,0,0,0,10.72-11.63c-1.73.34-3.65.65-6,.9a1.59,1.59,0,0,1-1.74-1.7,1.51,1.51,0,0,1,1.4-1.61c2.44-.21,5.44-.65,8.13-1.17a4.23,4.23,0,0,1,.58-.06,2,2,0,0,1,2.17,2,2.39,2.39,0,0,1-.44,1.37,58.5,58.5,0,0,1-6.24,7.79Z" transform="translate(-27.13 -61.98)"/><path class="a" d="M265.65,421.55a1.67,1.67,0,0,1,1.8-1.55,1.62,1.62,0,0,1,1.79,1.7c-.34,4.58-.65,10.45-.65,15.21,0,4.14,1.27,5.26,3.46,5.26,2.88,0,5.57-1.18,8.41-4.7a1.88,1.88,0,0,1,1.49-.78,1.79,1.79,0,0,1,1.82,1.7,1.82,1.82,0,0,1-.43,1.15c-3.53,4.39-7.27,6.06-11.29,6.06-4.6,0-7-2.29-7-8.72C265,432,265.31,426.09,265.65,421.55Z" transform="translate(-27.13 -61.98)"/><path class="a" d="M298.62,419.41a1.81,1.81,0,0,1,1.85,1.73,2.15,2.15,0,0,1-.37,1.12,75.29,75.29,0,0,1-7,8.72,2,2,0,0,0-.65,1.35,2.16,2.16,0,0,0,.74,1.46A92.54,92.54,0,0,1,301,443.4a2.38,2.38,0,0,1,.46,1.27,1.89,1.89,0,0,1-1.95,1.79,2,2,0,0,1-1.73-1,87.13,87.13,0,0,0-7.33-9.64,5.05,5.05,0,0,1-1.63-3.43,4.44,4.44,0,0,1,1.45-3.22,59.07,59.07,0,0,0,6.86-8.9A1.7,1.7,0,0,1,298.62,419.41Z" transform="translate(-27.13 -61.98)"/><path class="a" d="M316.71,432.49a20.94,20.94,0,0,1,5.28-.62c4.95,0,8.07,2.29,8.07,6.15s-2.69,6.53-7.2,7.18a1.63,1.63,0,0,1-2-1.64A1.61,1.61,0,0,1,322.3,442c3-.53,4.24-1.89,4.24-3.9,0-1.7-1.58-3.15-4.52-3.15a18,18,0,0,0-5.31.81v5.5c0,3.21-1.4,4.39-4.27,4.39s-5.78-2.14-5.78-4.82c0-2.26,1.3-4.74,6.71-7.24v-5.19c-1.55.15-3,.28-4.27.28a1.48,1.48,0,0,1-1.51-1.58,1.5,1.5,0,0,1,1.51-1.61c1.24,0,2.72-.12,4.27-.31v-4.7a1.68,1.68,0,0,1,3.34,0v4.24c1.05-.19,2.07-.37,2.93-.59a1.78,1.78,0,0,1,.56-.06,1.58,1.58,0,0,1,1.64,1.58,1.55,1.55,0,0,1-1.3,1.51c-1.14.28-2.44.56-3.83.77ZM313.37,437c-2.69,1.52-3.25,2.54-3.25,3.74,0,1,1.11,1.61,2.26,1.61.89,0,1-.59,1-1.36Zm17.93-10.63a1.93,1.93,0,0,1,.71,1.45,1.81,1.81,0,0,1-1.8,1.76A1.86,1.86,0,0,1,329,429a23.84,23.84,0,0,0-3.74-2.69,1.55,1.55,0,0,1-.87-1.39,1.86,1.86,0,0,1,1.76-1.83,1.65,1.65,0,0,1,.84.22A23.47,23.47,0,0,1,331.3,426.34Z" transform="translate(-27.13 -61.98)"/><path class="a" d="M343,436.35c-2,0-2.84-.83-2.84-2.75v-5.44c0-1.91.8-2.75,2.84-2.75h.16a26.31,26.31,0,0,0,.61-2.66h-3.58c-.87,0-1.12.28-1.12,1v4.89c0,7.38-.71,11.93-2,15.55a1.58,1.58,0,0,1-1.52,1.14,1.5,1.5,0,0,1-1.55-1.48,1.87,1.87,0,0,1,.13-.65c1.24-3.37,1.82-7.48,1.82-14.78v-5.16c0-2.2,1-3.28,3.77-3.28h9.09a1.25,1.25,0,0,1,1.21,1.39,1.27,1.27,0,0,1-1.21,1.39h-2a24,24,0,0,1-.65,2.66h1.09c2,0,2.84.84,2.84,2.75v5.44c0,1.92-.8,2.75-2.84,2.75h-.53v7.7c0,2.48-1.08,3.37-3.49,3.37a10.64,10.64,0,0,1-1.46-.12,1.43,1.43,0,0,1-1.26-1.46,1.38,1.38,0,0,1,1.6-1.45,5.68,5.68,0,0,0,.93.09c.56,0,.71-.15.71-.74v-7.39Zm-1.48,1.33A1.42,1.42,0,0,1,343,439a1.78,1.78,0,0,1-.09.53,19.09,19.09,0,0,1-1.89,4,1.54,1.54,0,0,1-1.3.74,1.38,1.38,0,0,1-1.45-1.27,1.56,1.56,0,0,1,.25-.83,17,17,0,0,0,1.67-3.59A1.33,1.33,0,0,1,341.54,437.68Zm5.75-9.27c0-.43-.16-.59-.62-.59h-3.09c-.47,0-.62.16-.62.59v1.3h4.33Zm-.62,5.53c.46,0,.62-.15.62-.58V432H343v1.36c0,.43.15.58.62.58Zm4.76,7a1.44,1.44,0,0,1-1.36,2,1.35,1.35,0,0,1-1.27-.87,26.3,26.3,0,0,0-1.27-2.59,1.61,1.61,0,0,1-.21-.78,1.31,1.31,0,0,1,1.36-1.23,1.44,1.44,0,0,1,1.2.68A18.46,18.46,0,0,1,351.43,441Zm3,.74a1.49,1.49,0,0,1,1.48,1.42,1.33,1.33,0,0,1-.37.93,18.21,18.21,0,0,1-3.43,3,1.81,1.81,0,0,1-1,.31,1.5,1.5,0,0,1-1.51-1.45,1.38,1.38,0,0,1,.71-1.21,17.78,17.78,0,0,0,3-2.44A1.52,1.52,0,0,1,354.46,441.7Zm4.61-16.91c2.22,0,3.09.87,3.09,2.78v10.76c0,1.95-.87,2.85-3.09,2.85h-4.33c-2.2,0-3.06-.9-3.06-2.85V427.57c0-1.91.86-2.78,3.06-2.78H355c.24-.65.43-1.3.61-2H352c-.78,0-1.15-.71-1.15-1.42A1.24,1.24,0,0,1,352,420h10.57a1.43,1.43,0,0,1,0,2.81h-3.87a15.1,15.1,0,0,1-.61,2Zm.15,3.06c0-.49-.22-.62-.68-.62h-3.25c-.46,0-.68.13-.68.62v1.58h4.61ZM354.61,434h4.61v-2.22h-4.61Zm3.93,4.64c.46,0,.68-.12.68-.62v-1.67h-4.61V438c0,.5.22.62.68.62Zm4.27,5.78a1.68,1.68,0,0,1,.74,1.3,1.51,1.51,0,0,1-1.52,1.45,1.66,1.66,0,0,1-1-.37,19.26,19.26,0,0,1-3.06-2.84,1.47,1.47,0,0,1-.37-.93,1.45,1.45,0,0,1,1.52-1.33,1.58,1.58,0,0,1,1.17.53A28.52,28.52,0,0,0,362.81,444.42Z" transform="translate(-27.13 -61.98)"/><path class="a" d="M369.86,422.5a1.67,1.67,0,0,1,1.83,1.74c-.07.95-.13,1.7-.13,2.81,0,10.82,2.2,13.66,3.5,13.66.74,0,1.39-.49,2-2.81a1.59,1.59,0,0,1,1.58-1.33,1.7,1.7,0,0,1,1.76,1.67,1.6,1.6,0,0,1-.06.53c-1.14,4.14-3.12,5.65-5.19,5.65-4.48,0-7.21-5.53-7.21-17.28,0-1.42.07-2.35.13-3.15A1.7,1.7,0,0,1,369.86,422.5Zm23.31,13.11a3.13,3.13,0,0,1,.12.65,1.67,1.67,0,0,1-1.73,1.64,1.71,1.71,0,0,1-1.64-1.17,27.2,27.2,0,0,0-5.34-8.41,1.64,1.64,0,0,1-.53-1.15,1.71,1.71,0,0,1,1.76-1.57,2,2,0,0,1,1.36.58A24.74,24.74,0,0,1,393.17,435.61Z" transform="translate(-27.13 -61.98)"/><path class="a" d="M400.41,422.5a1.67,1.67,0,0,1,1.83,1.74c-.07.95-.13,1.7-.13,2.81,0,10.82,2.2,13.66,3.5,13.66.74,0,1.39-.49,2-2.81a1.57,1.57,0,0,1,1.57-1.33,1.7,1.7,0,0,1,1.76,1.67,1.6,1.6,0,0,1-.06.53c-1.14,4.14-3.12,5.65-5.19,5.65-4.48,0-7.2-5.53-7.2-17.28,0-1.42.06-2.35.12-3.15A1.7,1.7,0,0,1,400.41,422.5Zm23.31,13.11a3.23,3.23,0,0,1,.13.65,1.67,1.67,0,0,1-1.74,1.64,1.69,1.69,0,0,1-1.63-1.17,27.42,27.42,0,0,0-5.35-8.41,1.64,1.64,0,0,1-.53-1.15,1.71,1.71,0,0,1,1.76-1.57,2,2,0,0,1,1.36.58A24.74,24.74,0,0,1,423.72,435.61Z" transform="translate(-27.13 -61.98)"/><path class="a" d="M429.2,429.24a1.52,1.52,0,0,1-1.7-1.6,1.62,1.62,0,0,1,1.58-1.7,41.62,41.62,0,0,0,4.39-.53c.28-1.7.4-3.06.58-4.76a1.73,1.73,0,0,1,3.44.31c-.16,1.48-.31,2.6-.5,3.77.87-.19,1.76-.4,2.66-.62a2.42,2.42,0,0,1,.46-.06,1.57,1.57,0,0,1,1.55,1.64,1.51,1.51,0,0,1-1.21,1.51c-1.42.41-2.78.75-4,1a94.59,94.59,0,0,1-4.33,16.26,2,2,0,0,1-1.89,1.36,1.63,1.63,0,0,1-1.7-1.57,2.21,2.21,0,0,1,.19-.87,82,82,0,0,0,4.14-14.53C431.52,429.06,430.28,429.18,429.2,429.24Zm11.59,8.6a1.4,1.4,0,0,1,1.49,1.3c.21,2,1.33,2.53,4.7,2.53a27.2,27.2,0,0,0,4.17-.31,1.66,1.66,0,0,1,2,1.7,1.62,1.62,0,0,1-1.42,1.64A28.68,28.68,0,0,1,447,445c-5.32,0-7.76-1.64-8-5.44A1.65,1.65,0,0,1,440.79,437.84Zm9.31-9.31a1.61,1.61,0,0,1,1.67,1.67,1.51,1.51,0,0,1-1.58,1.58,42,42,0,0,0-7.54.8,1.55,1.55,0,0,1-1.92-1.57,1.65,1.65,0,0,1,1.42-1.64A42.49,42.49,0,0,1,450.1,428.53Z" transform="translate(-27.13 -61.98)"/><path class="a" d="M460.15,421.55a1.66,1.66,0,0,1,1.79-1.55,1.62,1.62,0,0,1,1.8,1.7c-.34,4.58-.65,10.45-.65,15.21,0,4.14,1.27,5.26,3.46,5.26,2.87,0,5.56-1.18,8.41-4.7a1.87,1.87,0,0,1,1.48-.78,1.79,1.79,0,0,1,1.83,1.7,1.83,1.83,0,0,1-.44,1.15c-3.52,4.39-7.26,6.06-11.28,6.06-4.61,0-7.05-2.29-7.05-8.72C459.5,432,459.81,426.09,460.15,421.55Z" transform="translate(-27.13 -61.98)"/><path class="a" d="M494.41,421.89v1.42c2.47,0,4.92,0,7,.06A1.59,1.59,0,0,1,503,425a1.51,1.51,0,0,1-1.58,1.58c-2.07-.07-4.48-.07-7,0,0,1.09,0,2.17.09,3.25,2.05-.12,4-.28,5.82-.49a1.57,1.57,0,0,1,1.88,1.57,1.62,1.62,0,0,1-1.51,1.64c-1.89.25-3.93.4-6,.53.06,1.36.19,2.72.31,4.08a28.35,28.35,0,0,1,7.76,3.37,2,2,0,0,1,1.05,1.67,1.84,1.84,0,0,1-1.82,1.82,1.81,1.81,0,0,1-1.05-.34,28.94,28.94,0,0,0-5.72-3v.22c0,3.34-2.91,4.95-6.5,4.95-3.92,0-6.33-1.89-6.33-4.76,0-2.69,2.22-4.77,6.64-4.77a24,24,0,0,1,2.51.16c-.1-1.11-.22-2.23-.25-3.31h-1.76c-1.86,0-3.74-.06-4.83-.18a1.62,1.62,0,0,1-1.48-1.64,1.56,1.56,0,0,1,1.76-1.64,43.75,43.75,0,0,0,4.46.22h1.66c-.06-1.12-.09-2.2-.12-3.31-2.63.06-5.19.15-7.36.24a1.64,1.64,0,0,1-.06-3.27c2.17-.13,4.73-.22,7.36-.25v-3.12c0-.93.86-1.39,1.73-1.39a1.52,1.52,0,0,1,1.7,1.39Zm-2.53,18.54v-.68a14.89,14.89,0,0,0-2.79-.27c-2.41,0-3.12.74-3.12,1.67s.8,1.54,2.81,1.54S491.88,441.73,491.88,440.43Z" transform="translate(-27.13 -61.98)"/><path class="a" d="M522,439.42a3.42,3.42,0,0,1-2.29.77c-3,0-5.25-2-5.25-5.57,0-3,1.92-5.13,4.79-5.13a7.08,7.08,0,0,1,1.86.25c0-.84-.07-1.64-.1-2.47-4.17.18-8.38.4-12,.65a1.67,1.67,0,0,1-1.73-1.77,1.59,1.59,0,0,1,1.57-1.67c3.65-.21,7.89-.43,12.12-.58,0-1.12,0-2.38,0-3.78a1.59,1.59,0,0,1,1.73-1.51,1.52,1.52,0,0,1,1.67,1.48v3.68c3.22-.09,6.31-.15,9.06-.15a1.58,1.58,0,0,1,1.61,1.7,1.54,1.54,0,0,1-1.49,1.64c-2.75,0-5.9.09-9.12.18,0,1.79.1,3.56.22,5.35a7.89,7.89,0,0,1,1,4.11c0,4.89-2.5,8.26-7,10.3a2.26,2.26,0,0,1-.83.18,1.69,1.69,0,0,1-.56-3.31,8.69,8.69,0,0,0,4.76-4.32Zm-4.26-4.7a2.3,2.3,0,0,0,2.13,2.44c1,0,1.82-.74,1.82-2.17a2.23,2.23,0,0,0-2.16-2.47C518.47,432.52,517.73,433.36,517.73,434.72Z" transform="translate(-27.13 -61.98)"/><path class="a" d="M548.86,441.39a5.18,5.18,0,1,1-5.16-5.1A5.1,5.1,0,0,1,548.86,441.39Zm-8.22,0a3,3,0,1,0,3.06-3A3,3,0,0,0,540.64,441.39Z" transform="translate(-27.13 -61.98)"/><path class="b" d="M558.12,304a34.19,34.19,0,0,1-2.8-4.11c-1-2.16-1.34-4.3.15-6.35a5.86,5.86,0,0,1,6.08-2.27c4.34.65,8,2.83,11.62,5.13,7.46,4.76,14.33,10.34,21.41,15.62a19.73,19.73,0,0,1,7.83,13.41,2.3,2.3,0,0,0,1.83,2.13c5.59,1.82,11.15,3.74,16.72,5.63a8.91,8.91,0,0,1,1.16.43,1.72,1.72,0,0,1,.86,2.13,1.44,1.44,0,0,1-1.64,1.15,6.1,6.1,0,0,1-1.52-.29c-6.36-2.14-12.71-4.31-19.07-6.45a2,2,0,0,1-1.6-1.86c-.31-6.82-3.84-11.64-9.29-15.4-6.72-4.64-12.93-10-19.92-14.24a30.88,30.88,0,0,0-7.86-3.75,5.28,5.28,0,0,0-2.16-.16,2,2,0,0,0-1.67,2.86,10.17,10.17,0,0,0,2.12,3.43,47.72,47.72,0,0,0,8.78,7.45c1,.68,1.75,1.45,1.12,2.69s-1.74,1-2.84.64c-9.43-3.45-18.85-6.92-28.29-10.32a34.8,34.8,0,0,0-8.56-2.33c-1.13-.1-2.23-.11-2.84,1.09s.09,2,.83,2.77A18.51,18.51,0,0,0,534.7,307c6.51,2.92,13.27,5.18,20,7.65a1.27,1.27,0,0,0,1.06.06c3.57-1.78,6.83-.38,10,1.1,7.31,3.44,13.56,8.5,19.91,13.37,3.09,2.37,6.48,4.35,9.29,7.1A20.69,20.69,0,0,1,601,348.15a2.41,2.41,0,0,0,1.94,2.21c5.72,1.91,11.43,3.87,17.14,5.79.8.27,1.42.64,1.59,1.52a1.66,1.66,0,0,1-.64,1.66,1.84,1.84,0,0,1-1.91.26L599,352.78a1.86,1.86,0,0,1-1.31-1.9,18.05,18.05,0,0,0-8.17-14.37c-6.35-4.44-12.27-9.47-18.8-13.67a47.3,47.3,0,0,0-8.61-4.7,7.44,7.44,0,0,0-3.51-.61,1.94,1.94,0,0,0-1.83,2.63,7.55,7.55,0,0,0,1.56,2.84,42.71,42.71,0,0,0,8.43,7.62c.38.27.76.55,1.16.78a1.83,1.83,0,0,1,.88,2.63c-.57,1.12-1.58,1-2.58.63-3.07-1.14-6.14-2.3-9.22-3.42-8.31-3-16.53-6.27-25-8.79a10.23,10.23,0,0,0-3.85-.52c-1.86.15-2.62,1.71-1.53,3.22a12.9,12.9,0,0,0,4.79,3.67c5.1,2.63,10.55,4.41,15.91,6.4,3.66,1.36,7.34,2.62,11,3.93,1.15.41,2,1.11,1.55,2.44s-1.49,1.42-2.66,1c-9.79-3.62-19.8-6.7-29.18-11.39a15.5,15.5,0,0,0-7-1.8c-1.21,0-2.29.25-2.83,1.51s0,2.19.9,3.05a21.6,21.6,0,0,0,7.59,4.5c8.66,3.29,17.41,6.31,26.17,9.29.35.12.7.22,1,.36a1.8,1.8,0,1,1-1.18,3.39c-2.72-.9-5.43-1.82-8.12-2.78-6.86-2.45-13.7-4.95-20.57-7.39a15.51,15.51,0,0,0-6.12-1c-1,.06-2,.21-2.39,1.36s.31,1.89,1.11,2.53a27.17,27.17,0,0,0,7.64,3.8c9.54,3.63,19.28,6.64,29,9.72l.3.09c1.18.33,1.84,1.06,1.51,2.3s-1.42,1.43-2.51,1.11c-2.69-.8-5.36-1.67-8-2.52-7.09-2.24-14.15-4.57-21.13-7.16a7.94,7.94,0,0,0-3.83-.55c-2.06.28-2.72,1.82-1.42,3.41a15.65,15.65,0,0,0,5,3.7c8.79,4.65,18.23,7.6,27.71,10.43a120.49,120.49,0,0,0,17,4.13c6.65,1,13.33,1.6,20,.51a12.37,12.37,0,0,0,5-1.71,2.46,2.46,0,0,1,2.37-.25q9.24,3.33,18.49,6.66a1.68,1.68,0,0,1,1.23,2.32c-.45,1.19-1.41,1.41-2.56,1-5.53-2-11.07-4-16.59-6a3,3,0,0,0-2.5.06,27.29,27.29,0,0,1-10.35,2c-10.15.33-20-1.47-29.69-4.27a211.89,211.89,0,0,1-25.38-8.65A44.6,44.6,0,0,1,516.71,358c-1.91-1.59-3.35-3.45-2.8-6.18a3.69,3.69,0,0,1,1.11-2.2c1.32-1.07.73-1.69-.34-2.41a6.18,6.18,0,0,1-2.84-4.12c-.48-2.79.94-5,3.79-6,.62-.22,1.14-.29.45-1.06-2.93-3.29-1.82-6.51.62-9.37.74-.88.74-1.22-.18-1.83a8,8,0,0,1-2.35-2.24A5.25,5.25,0,0,1,517,314.4l1-.33c-1-1.51-2.18-2.81-2.18-4.72a5.82,5.82,0,0,1,5.84-6.18,3.22,3.22,0,0,1,.62,0c1.52.27,1.85-.36,1.77-1.84-.17-3.28,2-5.5,5.31-5.66s6.57.95,9.71,2c5.69,2,11.36,4.08,17,6.11.58.21,1.19.33,1.79.49l.37.07Zm-2.51,21.52c-.54-.92-.85-1.46-1.17-2a6.49,6.49,0,0,1-1.32-4.08c.2-1.51-.54-1.82-1.65-2.23-7.36-2.71-14.82-5.17-21.85-8.71a16.19,16.19,0,0,0-7.33-1.92,2.68,2.68,0,0,0-2.76,1.62c-.53,1.24.07,2.1.85,2.92a10.28,10.28,0,0,0,1.15,1,25.55,25.55,0,0,0,6.71,3.6l21.27,7.64C551.39,324.12,553.29,324.76,555.61,325.56Zm-29.81-6.88a16.92,16.92,0,0,0-7-1.1,2,2,0,0,0-1.93,1.32,2.08,2.08,0,0,0,.72,2.24,13.74,13.74,0,0,0,3.93,2.5c.53.23,1.06.43,1.15-.41A6.08,6.08,0,0,1,525.8,318.68Z" transform="translate(-27.13 -61.98)"/><path class="b" d="M417.38,333.81c0-12,.07-23.95,0-35.92a14.81,14.81,0,0,1,6-12.42c5.15-4.12,10.22-8.37,15.35-12.53A3.42,3.42,0,0,0,440,270c-.05-3.33,0-6.66,0-10a5.57,5.57,0,0,1,4.38-5.86,1.35,1.35,0,0,0,1.19-1.62c-.06-1.4,0-2.81,0-4.21-.05-1,.22-1.45,1.29-1.35s2,0,3,0c.81,0,1.12-.29,1.09-1.1,0-1.09-.06-2.18,0-3.27s-.42-1.24-1.31-1.23c-2.5,0-5,0-7.5,0-.92,0-1.37-.1-1.32-1.25.11-2.85,0-5.72,0-8.58a7.19,7.19,0,0,1,7.2-7.13c5.67,0,11.35,0,17,0a6.92,6.92,0,0,1,6,3.09,2,2,0,0,0,1.92.94c12.08,0,24.16,0,36.24,0a2.71,2.71,0,0,1,2.55,1.34c3.11,4.56,6.24,9.09,9.45,13.57.74,1,.6,1.53-.38,2.22-2.09,1.45-4.12,3-6.13,4.56-.7.55-1,.37-1.45-.28-2.26-3.36-4.6-6.68-6.85-10a2.54,2.54,0,0,0-2.39-1.31q-14.91.07-29.83,0c-1.26,0-2.05.14-1.75,1.65.2,1.06-.3,1.31-1.31,1.27-2.19-.09-4.37,0-6.56-.06-1,0-1.4.31-1.32,1.34.09,1.29-.38,2.88.22,3.82s2.39.33,3.65.4c.92,0,1.16.42,1.15,1.24,0,1.51,0,3,0,4.52,0,.74.2,1.07,1,1.27,3.4.87,4.9,2.87,4.93,6.42,0,3.28,0,6.56,0,9.83a3.11,3.11,0,0,0,1.27,2.68c5.46,4.41,10.91,8.83,16.31,13.32a13.6,13.6,0,0,1,5.08,10.94q0,36.93,0,73.86a9.94,9.94,0,0,1-10.21,10.27q-29.52,0-59,0A10,10,0,0,1,417.37,371Q417.39,352.39,417.38,333.81Zm75.93.18q0-18.25,0-36.53a10.18,10.18,0,0,0-3.41-8.08c-4-3.41-8.15-6.62-12.17-10-2.18-1.83-4.73-3.29-6.36-5.7a2.18,2.18,0,0,0-2.1-1.14q-11.79.06-23.58,0c-1.41,0-2.65-.07-3.25,1.6-.21.57-.88,1-1.4,1.43-5.22,4.29-10.42,8.61-15.71,12.82a11.13,11.13,0,0,0-4.5,9.15q0,36.38,0,72.75c0,4.83,2.71,7.52,7.55,7.53h57.46c4.7,0,7.45-2.77,7.45-7.47ZM457,269.08c4.1,0,8.21,0,12.31,0,.91,0,1.3-.21,1.28-1.2-.06-2.6,0-5.2,0-7.8,0-1.75-.81-2.68-2.54-2.69q-10.9-.07-21.82,0c-1.73,0-2.55.93-2.57,2.64,0,2.49.05,5,0,7.48,0,1.19.27,1.63,1.55,1.6C449.09,269,453,269.08,457,269.08Zm-.36-31.18c3.7,0,7.39,0,11.08,0,1,0,1.29-.29,1.24-1.25-.06-1.61,0-3.23,0-4.83a3.92,3.92,0,0,0-3.73-3.89q-8.51-.07-17,0a3.85,3.85,0,0,0-3.86,3.9c-.06,1.61,0,3.23,0,4.84-.05,1,.35,1.23,1.27,1.22C449.25,237.88,452.94,237.9,456.63,237.9Zm34.1-5.92c-5.62,0-11.24,0-16.85,0-.48,0-1.07-.25-1.39.38a1.79,1.79,0,0,0,1.68,2.73q15.85,0,31.69,0a2.51,2.51,0,0,1,2.42,1.27c1.82,2.78,3.77,5.47,5.63,8.23.48.71.83,1.32,1.73.46.69-.65,1.87-.9.8-2.34-2.31-3.07-4.47-6.26-6.61-9.46a2.52,2.52,0,0,0-2.4-1.29C501.87,232,496.3,232,490.73,232Zm-33.81,18.48c-2.18,0-4.37.07-6.56,0-1.41-.06-1.33.79-1.29,1.71s-.32,1.79,1.19,1.77c4.43-.08,8.85-.07,13.28,0,1.56,0,1-1.06,1.11-1.83s.2-1.68-1.17-1.63C461.3,250.53,459.11,250.46,456.92,250.46Zm2.73-6.2c0-.67,0-1.35,0-2s-.27-.77-.84-.85c-4.1-.54-4.3-.38-4.29,3.67a6.74,6.74,0,0,1,0,.78c-.1.9.31,1.24,1.18,1.16.41,0,.83,0,1.25,0C459.65,247,459.65,247,459.65,244.26Z" transform="translate(-27.13 -61.98)"/><path class="b" d="M579.2,253.59c3.81-1.45,6.07-4.82,8.16-8.31a36.71,36.71,0,0,0,4.55-11.69c2.42,8.11,5.31,15.65,12.72,20.14-7.52,4.39-10.3,12.1-12.65,19.89C589.68,265.76,586.78,258.15,579.2,253.59Z" transform="translate(-27.13 -61.98)"/><path class="b" d="M568.66,256.79c1.65,5.5,3.65,10.55,8.66,13.71-5,3.13-7.08,8.21-8.71,13.95a25.9,25.9,0,0,0-3-7.94c-1.38-2.39-3-4.64-5.67-5.93C565,267.34,567,262.28,568.66,256.79Z" transform="translate(-27.13 -61.98)"/><path class="b" d="M532.37,249.16a25,25,0,0,1-3.63-1.69c-.56-.37.14-1.11.32-1.67s.64-.51,1.13-.29c.89.41,1.8.8,2.71,1.16.43.17.83.37.6.88S533.2,248.89,532.37,249.16Z" transform="translate(-27.13 -61.98)"/><path class="b" d="M536.07,248a32.75,32.75,0,0,1,3.51,1.62c.67.39,0,1-.13,1.52s-.44.83-1,.58l-3-1.27a.72.72,0,0,1-.34-1.16C535.33,248.87,535.31,248.18,536.07,248Z" transform="translate(-27.13 -61.98)"/><path class="b" d="M534,268a.89.89,0,0,1,.86.52c.44.69.86,1.41,1.35,2.07s.81,1.21-.17,1.86-1.46.36-1.94-.52c-.32-.58-.72-1.13-1.08-1.69-.23-.37-.79-.71-.37-1.19A8.69,8.69,0,0,1,534,268Z" transform="translate(-27.13 -61.98)"/><path class="b" d="M515.85,277.73c0,.12,0,.43,0,.74.11.86.1,1.5-1.11,1.52s-1.44-.5-1.35-1.51a13.53,13.53,0,0,0,0-1.56c0-.93-.24-1.83,1.32-1.8s1,1,1.09,1.79C515.86,277.12,515.85,277.33,515.85,277.73Z" transform="translate(-27.13 -61.98)"/><path class="b" d="M525.4,254.49c-.16.54-.8.65-1.22,1s-.76.14-1-.25c-.6-.9-1.19-1.81-1.78-2.71-.23-.35-.29-.73.13-.92s.85-.93,1.55-.81A16.37,16.37,0,0,1,525.4,254.49Z" transform="translate(-27.13 -61.98)"/><path class="b" d="M546.21,252.82a1.43,1.43,0,0,1-2.1,1.37c-.58-.24-1.14-.52-1.72-.73-.86-.3-1.44-.56-.94-1.73s1.15-.87,1.94-.52,1.44.6,2.15.92C545.84,252.27,546.29,252.3,546.21,252.82Z" transform="translate(-27.13 -61.98)"/><path class="b" d="M551.27,257.34a27,27,0,0,1-3.59-1.74c-.53-.34.16-1,.33-1.53a.66.66,0,0,1,1-.42l3.15,1.33c.47.21.42.56.22.9C552.08,256.38,552.09,257.11,551.27,257.34Z" transform="translate(-27.13 -61.98)"/><path class="b" d="M529.21,260.08c-.2.8-1,.95-1.47,1.33s-.71-.2-.93-.54a15.35,15.35,0,0,0-1.26-2c-.82-.91-.55-1.4.36-2,1.16-.85,1.31.24,1.7.76C528.2,258.4,528.68,259.26,529.21,260.08Z" transform="translate(-27.13 -61.98)"/><path class="b" d="M533,265.81c-.16.78-.89.86-1.34,1.24s-.75,0-1-.35c-.46-.69-.89-1.38-1.35-2.06s-1-1.17.08-1.86,1.53-.34,2,.59S532.46,265,533,265.81Z" transform="translate(-27.13 -61.98)"/><path class="b" d="M515.85,263.88c0,.46,0,.93,0,1.39.08,1-.53,1-1.2,1s-1.26-.05-1.22-1c0-.72,0-1.44,0-2.17s-.24-1.73,1.23-1.73,1.16.94,1.22,1.75A6.79,6.79,0,0,1,515.85,263.88Z" transform="translate(-27.13 -61.98)"/><path class="b" d="M515.85,270.71c0,.41,0,.83,0,1.24.1.91-.31,1.18-1.17,1.15s-1.32-.15-1.26-1.11c.05-.67,0-1.35,0-2,0-.88-.19-1.74,1.26-1.71s1.15.86,1.15,1.68Z" transform="translate(-27.13 -61.98)"/><path class="b" d="M515.86,257.07c0,2.3-.13,2.47-1.57,2.28-.54-.07-.86-.26-.85-.86,0-1,0-2.07,0-3.11s.76-.76,1.35-.8,1.11.14,1,.94C515.83,256,515.86,256.55,515.86,257.07Z" transform="translate(-27.13 -61.98)"/><path class="c" d="M558.12,304l.13.34-.37-.07Z" transform="translate(-27.13 -61.98)"/><path class="c" d="M493.31,334v36.37c0,4.7-2.75,7.47-7.45,7.47H428.4c-4.84,0-7.55-2.7-7.55-7.53q0-36.37,0-72.75a11.13,11.13,0,0,1,4.5-9.15c5.29-4.21,10.49-8.53,15.71-12.82.52-.42,1.19-.86,1.4-1.43.6-1.67,1.84-1.61,3.25-1.6q11.79,0,23.58,0a2.18,2.18,0,0,1,2.1,1.14c1.63,2.41,4.18,3.87,6.36,5.7,4,3.37,8.19,6.58,12.17,10a10.18,10.18,0,0,1,3.41,8.08Q493.31,315.73,493.31,334Zm-36.53,19.88c8.22,0,16.44,0,24.67,0,1.24,0,1.56-.37,1.55-1.59q0-24.42,0-48.85c0-1.24-.35-1.56-1.57-1.55q-24.53,0-49,0c-1.24,0-1.56.35-1.56,1.58q.06,24.42,0,48.85c0,1.23.33,1.58,1.56,1.57C440.54,353.84,448.66,353.87,456.78,353.87Zm.31-64.13H431.17a1.74,1.74,0,1,0,0,3.47h50.74a7.26,7.26,0,0,0,1.55-.07,1.7,1.7,0,0,0,1-2.69c-.53-.77-1.31-.73-2.1-.73Z" transform="translate(-27.13 -61.98)"/><path class="c" d="M457,269.08c-3.95,0-7.9-.05-11.85,0-1.28,0-1.59-.41-1.55-1.6.08-2.49,0-5,0-7.48,0-1.71.84-2.63,2.57-2.64q10.9-.06,21.82,0c1.73,0,2.52.94,2.54,2.69,0,2.6,0,5.2,0,7.8,0,1-.37,1.21-1.28,1.2C465.2,269.06,461.09,269.08,457,269.08Z" transform="translate(-27.13 -61.98)"/><path class="c" d="M456.63,237.9c-3.69,0-7.38,0-11.07,0-.92,0-1.32-.23-1.27-1.22.07-1.61,0-3.23,0-4.84a3.85,3.85,0,0,1,3.86-3.9q8.51-.09,17,0a3.92,3.92,0,0,1,3.73,3.89c.07,1.6,0,3.22,0,4.83.05,1-.29,1.26-1.24,1.25C464,237.88,460.33,237.9,456.63,237.9Z" transform="translate(-27.13 -61.98)"/><path class="d" d="M490.73,232c5.57,0,11.14,0,16.7,0a2.52,2.52,0,0,1,2.4,1.29c2.14,3.2,4.3,6.39,6.61,9.46,1.07,1.44-.11,1.69-.8,2.34-.9.86-1.25.25-1.73-.46-1.86-2.76-3.81-5.45-5.63-8.23a2.51,2.51,0,0,0-2.42-1.27q-15.84,0-31.69,0a1.79,1.79,0,0,1-1.68-2.73c.32-.63.91-.38,1.39-.38C479.49,232,485.11,232,490.73,232Z" transform="translate(-27.13 -61.98)"/><path class="c" d="M456.92,250.46c2.19,0,4.38.07,6.56,0,1.37-.05,1.23.8,1.17,1.63s.45,1.85-1.11,1.83c-4.43-.05-8.85-.06-13.28,0-1.51,0-1.15-.95-1.19-1.77s-.12-1.77,1.29-1.71C452.55,250.53,454.74,250.46,456.92,250.46Z" transform="translate(-27.13 -61.98)"/><path class="d" d="M459.65,244.26c0,2.73,0,2.73-2.71,2.73-.42,0-.84,0-1.25,0-.87.08-1.28-.26-1.18-1.16a6.74,6.74,0,0,0,0-.78c0-4.05.19-4.21,4.29-3.67.57.08.85.26.84.85S459.65,243.59,459.65,244.26Z" transform="translate(-27.13 -61.98)"/><path class="b" d="M456.78,353.87c-8.12,0-16.24,0-24.36,0-1.23,0-1.57-.34-1.56-1.57q0-24.42,0-48.85c0-1.23.32-1.58,1.56-1.58q24.51.06,49,0c1.22,0,1.57.31,1.57,1.55q-.06,24.44,0,48.85c0,1.22-.31,1.6-1.55,1.59C473.22,353.85,465,353.87,456.78,353.87ZM443,329.5h0c0,1.92,0,3.85,0,5.77a.86.86,0,0,0,.94,1,.85.85,0,0,0,.95-1c0-1,0-2,0-3,0-.81.28-1.09,1.08-1.08,1.93,0,3.86,0,5.78,0,.61,0,.93.16,1,.87.13,1.73-.28,2.16-2.18,1.95-.61-.07-1.16-.15-1.46.5a.9.9,0,0,0,.17,1.16,4.73,4.73,0,0,0,3.89.36c1.11-.25,1.44-1.11,1.45-2.13,0-3.27,0-6.55,0-9.83,0-.72-.12-1.41-1-1.57s-.57-.65-.24-1.06a9.92,9.92,0,0,0,1.51-2.17.88.88,0,0,0-.21-1.12c-.35-.3-.87-.51-1.13-.19-.89,1.09-2.09,2-2.31,3.54,0,.41.22.82-.46.82-.51,0-.95-.08-.95-.74,0-.93,0-1.87,0-2.8,0-.69-.15-1.26-1-1.3s-1.11.57-1.11,1.33c0,.93,0,1.87,0,2.81,0,.55-.34.71-.82.67s-.78.09-.71-.52c.24-1.8-1.23-2.61-2.22-3.66-.49-.52-1.06-.31-1.5.17s-.25.94.15,1.36,1,1.05,1.47,1.61c.33.38.56.88-.09,1.13-1,.4-1,1.21-1,2.06C443,326.17,443,327.83,443,329.5Zm29.45,4.33a1.93,1.93,0,0,1-1.87.66c-.88,0-1.76-.1-2.64-.19a.91.91,0,0,0-1.06.7.78.78,0,0,0,.4.92c1.75,1.1,6,.22,7.16-1.54a1.45,1.45,0,0,1,.84-.59c1-.33,1.13-.86.2-1.49s-.9-1.21.17-1.61c.66-.25,1.12-1,.56-1.19-1.39-.52-1.19-1.58-1.4-2.59-.14-.7-.81-.89-1.48-.89H460.71c-1,0-1.62.44-1.64,1.47,0,.8,0,1.47-1,1.77-.56.16-.48,1,0,1.25.87.43.63,1.09.54,1.73s-.25,1.22-.39,1.83a.9.9,0,0,0,.62,1.23.89.89,0,0,0,1.25-.57c.17-.56.38-.92,1.05-.92Zm-6.67-12.77h-5.35c-.61,0-1.4-.12-1.44.77s.79.76,1.38.77l4.68,0c.36,0,.81.05.73.57s-.47.32-.76.33q-3,0-6.09,0c-.66,0-1.36,0-1.33.89s.68.82,1.28.82H475c.62,0,1.4,0,1.42-.84s-.86-.86-1.51-.86c-1.92,0-3.85,0-5.77,0-.37,0-1,.19-1-.44s.6-.45,1-.46h5c.52,0,1-.19,1-.77s-.45-.77-1-.77c-1.61,0-3.23,0-4.84,0-.4,0-1,.24-1.15-.43.41-.5,1-.29,1.45-.3,1.61,0,3.22,0,4.84,0,.61,0,1.23-.11,1.27-.85s-.63-.86-1.21-.87c-1.15,0-2.3.05-3.44,0s-2.57.53-3.5-.88a.87.87,0,0,0-1.27.11c-.58,1-1.48.77-2.32.78-1.41,0-2.82,0-4.22,0-.65,0-1.35,0-1.33.91s.77.82,1.4.83c1.35,0,2.7,0,4.06,0C464.5,320.34,465.2,320.08,465.79,321.06Zm-23.45,8.22a1.18,1.18,0,0,0-.59-1.19.76.76,0,0,0-1.1.21c-1.29,1.94-2.57,3.88-3.77,5.87a1.14,1.14,0,0,0,.49,1.61,1,1,0,0,0,1.56-.44,42.91,42.91,0,0,0,3.14-5.36C442.2,329.7,442.29,329.41,442.34,329.28Zm-4.53-6.93a.91.91,0,0,0-1,.65c-.13.52-.19,1.08.36,1.39,1,.53,1.92,1,2.9,1.48a.85.85,0,0,0,1.2-.39.93.93,0,0,0-.11-1.27A16.45,16.45,0,0,0,437.81,322.35Zm.76-4.48c-.64,0-1,.1-1.25.51a.81.81,0,0,0,.28,1.1c1,.7,2.06,1.39,3.11,2A.94.94,0,0,0,442,320.2,9.18,9.18,0,0,0,438.57,317.87Z" transform="translate(-27.13 -61.98)"/><path class="b" d="M457.09,289.74h25.29c.79,0,1.57,0,2.1.73a1.7,1.7,0,0,1-1,2.69,7.26,7.26,0,0,1-1.55.07H431.17a1.74,1.74,0,1,1,0-3.47h25.92Z" transform="translate(-27.13 -61.98)"/><path class="d" d="M443,329.5c0-1.67,0-3.33,0-5,0-.85,0-1.66,1-2.06.65-.25.42-.75.09-1.13-.47-.56-1-1.08-1.47-1.61s-.63-.86-.15-1.36,1-.69,1.5-.17c1,1.05,2.46,1.86,2.22,3.66-.07.61.37.5.71.52s.82-.12.82-.67c0-.94,0-1.88,0-2.81,0-.76.18-1.36,1.11-1.33s1,.61,1,1.3c0,.93,0,1.87,0,2.8,0,.66.44.74.95.74.68,0,.41-.41.46-.82.22-1.51,1.42-2.45,2.31-3.54.26-.32.78-.11,1.13.19a.88.88,0,0,1,.21,1.12,9.92,9.92,0,0,1-1.51,2.17c-.33.41-.73.86.24,1.06s1,.85,1,1.57c0,3.28,0,6.56,0,9.83,0,1-.34,1.88-1.45,2.13a4.73,4.73,0,0,1-3.89-.36.9.9,0,0,1-.17-1.16c.3-.65.85-.57,1.46-.5,1.9.21,2.31-.22,2.18-1.95-.05-.71-.37-.87-1-.87-1.92,0-3.85,0-5.78,0-.8,0-1.12.27-1.08,1.08,0,1,0,2,0,3a.85.85,0,0,1-.95,1,.86.86,0,0,1-.94-1c0-1.92,0-3.85,0-5.77Zm5.77-3.53c1,0,2,0,3,0,.61,0,1-.13,1-.86s-.41-.76-.93-.76h-5.93c-.62,0-1,.17-1,.88s.41.74.93.73Zm-.08,3.44c1,0,2.08,0,3.11,0,.54,0,.9-.12.9-.76s-.27-.83-.84-.83H445.8c-.53,0-.89.11-.9.76s.42.84,1,.83C446.83,329.4,447.77,329.41,448.7,329.41Z" transform="translate(-27.13 -61.98)"/><path class="d" d="M472.46,333.83h-11.3c-.67,0-.88.36-1.05.92a.89.89,0,0,1-1.25.57.9.9,0,0,1-.62-1.23c.14-.61.3-1.22.39-1.83s.33-1.3-.54-1.73c-.53-.27-.61-1.09,0-1.25,1.06-.3,1-1,1-1.77,0-1,.67-1.47,1.64-1.47h12.63c.67,0,1.34.19,1.48.89.21,1,0,2.07,1.4,2.59.56.21.1.94-.56,1.19-1.07.4-1.14,1-.17,1.61s.77,1.16-.2,1.49a1.45,1.45,0,0,0-.84.59c-1.2,1.76-5.41,2.64-7.16,1.54a.78.78,0,0,1-.4-.92.91.91,0,0,1,1.06-.7c.88.09,1.76.18,2.64.19A1.93,1.93,0,0,0,472.46,333.83Zm-2.2-4.76h2c.51,0,.77-.2.74-.74s-.17-.71-.63-.72h-4c-.46,0-.58.34-.58.75s.15.7.62.71Zm.08,3.17h2c.57,0,.64-.38.64-.84s-.18-.67-.63-.68h-4c-.56,0-.64.41-.65.85s.33.68.8.68Zm-7-3.16h1.86c.55,0,.66-.37.66-.83s-.26-.63-.68-.63h-3.4c-.58,0-.83.32-.83.87s.44.6.85.6Zm-.28,3.16h0c.57,0,1.14,0,1.71,0s.8-.31.81-.86-.34-.68-.8-.67h-3.26c-.66,0-.72.48-.8.94-.13.71.4.58.79.6S462.54,332.24,463.06,332.24Z" transform="translate(-27.13 -61.98)"/><path class="d" d="M465.79,321.06c-.59-1-1.29-.72-1.92-.74-1.36-.05-2.71,0-4.06,0-.63,0-1.37.07-1.4-.83s.68-.9,1.33-.91c1.4,0,2.81,0,4.22,0,.84,0,1.74.24,2.32-.78a.87.87,0,0,1,1.27-.11c.93,1.41,2.3.8,3.5.88s2.29,0,3.44,0c.58,0,1.25.07,1.21.87s-.66.85-1.27.85c-1.62,0-3.23,0-4.84,0-.48,0-1-.2-1.45.3.19.67.75.42,1.15.43,1.61,0,3.23,0,4.84,0,.52,0,1,.18,1,.77s-.45.77-1,.77h-5c-.39,0-1-.1-1,.46s.6.44,1,.44c1.92,0,3.85,0,5.77,0,.65,0,1.53-.14,1.51.86s-.8.84-1.42.84H458.89c-.6,0-1.25-.07-1.28-.82s.67-.89,1.33-.89q3,0,6.09,0c.29,0,.7.08.76-.33s-.37-.56-.73-.57l-4.68,0c-.59,0-1.42.2-1.38-.77s.83-.76,1.44-.77Z" transform="translate(-27.13 -61.98)"/><path class="d" d="M442.34,329.28c0,.13-.14.42-.27.7a42.91,42.91,0,0,1-3.14,5.36,1,1,0,0,1-1.56.44,1.14,1.14,0,0,1-.49-1.61c1.2-2,2.48-3.93,3.77-5.87a.76.76,0,0,1,1.1-.21A1.18,1.18,0,0,1,442.34,329.28Z" transform="translate(-27.13 -61.98)"/><path class="d" d="M437.81,322.35a16.45,16.45,0,0,1,3.39,1.86.93.93,0,0,1,.11,1.27.85.85,0,0,1-1.2.39c-1-.47-1.95-.95-2.9-1.48-.55-.31-.49-.87-.36-1.39A.91.91,0,0,1,437.81,322.35Z" transform="translate(-27.13 -61.98)"/><path class="d" d="M438.57,317.87A9.18,9.18,0,0,1,442,320.2a.94.94,0,0,1-1.25,1.32c-1-.65-2.09-1.34-3.11-2a.81.81,0,0,1-.28-1.1C437.54,318,437.93,317.84,438.57,317.87Z" transform="translate(-27.13 -61.98)"/><path class="b" d="M448.78,326h-3c-.52,0-.91-.07-.93-.73s.35-.89,1-.88h5.93c.52,0,.9.11.93.76s-.36.87-1,.86C450.76,326,449.77,326,448.78,326Z" transform="translate(-27.13 -61.98)"/><path class="b" d="M448.7,329.41c-.93,0-1.87,0-2.8,0-.58,0-1-.08-1-.83s.37-.76.9-.76h6.07c.57,0,.85.22.84.83s-.36.77-.9.76C450.78,329.4,449.74,329.41,448.7,329.41Z" transform="translate(-27.13 -61.98)"/><path class="b" d="M470.26,329.07H468.4c-.47,0-.62-.29-.62-.71s.12-.74.58-.75h4c.46,0,.61.31.63.72s-.23.75-.74.74Z" transform="translate(-27.13 -61.98)"/><path class="b" d="M470.34,332.24h-1.86c-.47,0-.83-.1-.8-.68s.09-.84.65-.85h4c.45,0,.64.24.63.68s-.07.84-.64.84h-2Z" transform="translate(-27.13 -61.98)"/><path class="b" d="M463.34,329.08H461.8c-.41,0-.86,0-.85-.6s.25-.87.83-.87h3.4c.42,0,.68.16.68.63s-.11.83-.66.83h-1.86Z" transform="translate(-27.13 -61.98)"/><path class="b" d="M463.06,332.24c-.52,0-1,0-1.55,0s-.92.11-.79-.6c.08-.46.14-.94.8-.94h3.26c.46,0,.82.08.8.67s-.19.89-.81.86-1.14,0-1.71,0Z" transform="translate(-27.13 -61.98)"/></svg>