<svg xmlns="http://www.w3.org/2000/svg" viewBox="0 0 685.01 182.91"><defs><style>.a{fill:#4c4b4c;}.b{fill:#14a5b0;}</style></defs><path class="a" d="M64.61,104.66l37.51-6.61a2.78,2.78,0,0,0,2.26-3.23l-.36-2a2.79,2.79,0,0,0-3.22-2.26L63.28,97.14A2.78,2.78,0,0,0,61,100.36l.36,2A2.78,2.78,0,0,0,64.61,104.66Z" transform="translate(-50.18 -43.05)"/><path class="a" d="M108.45,113.67l-8.31,1.46L97.3,99l-5.45,1,2.84,16.13-16.93,3L74.92,103l-5.45,1L72.31,120,64,121.51a16.73,16.73,0,0,0-13.58,19.38l10.4,59a16.73,16.73,0,0,0,16.66,13.81l.47,2.66a2.23,2.23,0,0,0,2.59,1.81l1.47-.26a2.24,2.24,0,0,0,1.81-2.59l-.43-2.42,38.06-6.71.43,2.42a2.25,2.25,0,0,0,2.59,1.82l1.47-.26a2.25,2.25,0,0,0,1.82-2.6l-.47-2.65a16.74,16.74,0,0,0,10.93-18.68l-10.39-58.95A16.74,16.74,0,0,0,108.45,113.67Zm23.33,73.67a10.17,10.17,0,0,1-7.06,11.5,2.16,2.16,0,0,0-.76,0l-1.47.26a2.15,2.15,0,0,0-.89.38L81,206.63a2.43,2.43,0,0,0-1,0l-1.47.26a2.09,2.09,0,0,0-.71.27,10.17,10.17,0,0,1-10.57-8.4l-10.4-59A10.19,10.19,0,0,1,65.14,128l44.44-7.84a10.18,10.18,0,0,1,11.8,8.26Z" transform="translate(-50.18 -43.05)"/><path class="a" d="M69.89,143.25a1.83,1.83,0,0,0-1.49,2.12l8.52,48.31a1.83,1.83,0,0,0,3.61-.64L72,144.74A1.82,1.82,0,0,0,69.89,143.25Z" transform="translate(-50.18 -43.05)"/><path class="a" d="M83.38,140.87A1.84,1.84,0,0,0,81.89,143l8.52,48.31a1.83,1.83,0,1,0,3.61-.64l-8.52-48.3A1.83,1.83,0,0,0,83.38,140.87Z" transform="translate(-50.18 -43.05)"/><path class="a" d="M96.87,138.49a1.84,1.84,0,0,0-1.49,2.13l8.52,48.3a1.83,1.83,0,1,0,3.61-.64L99,140A1.84,1.84,0,0,0,96.87,138.49Z" transform="translate(-50.18 -43.05)"/><path class="a" d="M110.36,136.11a1.84,1.84,0,0,0-1.49,2.13l8.52,48.3a1.82,1.82,0,0,0,2.12,1.49A1.84,1.84,0,0,0,121,185.9l-8.52-48.3A1.84,1.84,0,0,0,110.36,136.11Z" transform="translate(-50.18 -43.05)"/><path class="a" d="M624,80.73c-12.49,13.75,3.25,43.21,20,55.64l23.41-16S662.35,104,654.05,89.91C649.52,82.21,635.48,68.07,624,80.73Z" transform="translate(-50.18 -43.05)"/><path class="a" d="M648.63,142.32s12.73,24,28,12.69c13.57-10-5.09-29.37-5.09-29.37Z" transform="translate(-50.18 -43.05)"/><path class="a" d="M688.6,43.42c-16.72,3.64-11.49,22.86-7.08,30.64,8.07,14.25,19.73,26.83,19.73,26.83l25.52-12.3C724.39,67.85,706.75,39.48,688.6,43.42Z" transform="translate(-50.18 -43.05)"/><path class="a" d="M703.69,107.1s7.46,25.86,22.89,19.1c17.41-7.63,3-30.64,3-30.64Z" transform="translate(-50.18 -43.05)"/><path class="b" d="M152.87,106.54c-1.67,0-2.57-1.53-2.57-3.13s.9-3.08,2.57-3.08h6.27V92.27c0-1.86,1.73-2.82,3.39-2.82s3.39,1,3.39,2.82v8.06h7.88c1.72,0,2.62,1.54,2.62,3.08s-.9,3.13-2.62,3.13h-9.6v6.15h3.45c5.06,0,7,2,7,6.59A140.55,140.55,0,0,1,173.41,140c-.83,5.57-3.52,7.43-7.17,7.43a19.37,19.37,0,0,1-3.45-.32,3.26,3.26,0,0,1-2.82-3.4c0-1.92,1.34-3.9,3.65-3.45a13.31,13.31,0,0,0,1.66.12c.71,0,1.09-.38,1.28-1.47a109.9,109.9,0,0,0,1.35-18.82c0-1.15-.32-1.53-1.47-1.53h-2.5c-.77,10.62-3.46,20-7.11,26.43a3.9,3.9,0,0,1-3.39,2.12,3.19,3.19,0,0,1-3.33-3.14,4.14,4.14,0,0,1,.64-2.11c4.1-7.11,6.66-17.86,6.66-30v-5.38Zm53.06-6.72c1.79,0,2.62,1.54,2.62,3.07s-.83,3.08-2.62,3.08H185.06c-1.09,1.6-2.17,3.2-3.39,4.73a4,4,0,0,1-3.07,1.67,3.25,3.25,0,0,1-3.27-3.08,3.5,3.5,0,0,1,.9-2.24,51.26,51.26,0,0,0,8.45-15,3.44,3.44,0,0,1,3.39-2.37c1.73,0,3.46,1.09,3.46,2.88a3.74,3.74,0,0,1-.26,1.16,54.2,54.2,0,0,1-2.75,6.14Zm-23.56,23.11c-.51.19-1.08.45-1.6.64a3.91,3.91,0,0,1-1.4.26,3.09,3.09,0,0,1-3.08-3.14,3.21,3.21,0,0,1,2.31-3.07,67.75,67.75,0,0,0,16.7-9.54,3.93,3.93,0,0,1,2.56-1,3.38,3.38,0,0,1,3.4,3.2,3.21,3.21,0,0,1-1.35,2.5c-.89.7-1.92,1.4-2.94,2.11a47,47,0,0,0,1.66,6.53,48.84,48.84,0,0,0,4.23-4,3.37,3.37,0,0,1,2.43-1.15,3.23,3.23,0,0,1,3.2,3.07,3,3,0,0,1-1,2.18,39.42,39.42,0,0,1-6.72,5.7,41.93,41.93,0,0,0,7.68,11.9,4.28,4.28,0,0,1,1.28,2.88,3.45,3.45,0,0,1-3.52,3.4,4.2,4.2,0,0,1-3.14-1.67c-5.25-6.46-9.53-15.55-11.65-25.35-.76.45-1.53.9-2.3,1.29v26.18c0,1.85-1.66,2.75-3.39,2.75s-3.4-.9-3.4-2.75Z" transform="translate(-50.18 -43.05)"/><path class="b" d="M223.34,122.93c-1.09,1.09-2.11,2.11-3.2,3.07a3.55,3.55,0,0,1-2.43,1,3.32,3.32,0,0,1-3.33-3.2,3.65,3.65,0,0,1,1.41-2.69c4.16-3.65,9-9.92,12.23-15.55a3.1,3.1,0,0,1,2.75-1.6c1.79,0,3.65,1.34,3.65,3.2a3.55,3.55,0,0,1-.52,1.66,74.92,74.92,0,0,1-5.69,8.45,2.6,2.6,0,0,1,1.92,2.44v26.88c0,1.73-1.67,2.56-3.4,2.56s-3.39-.83-3.39-2.56Zm5.51-33.22c1.79,0,3.65,1.34,3.65,3.13a3.39,3.39,0,0,1-.52,1.67,57.52,57.52,0,0,1-11.71,13.18,3.35,3.35,0,0,1-5.63-2.56,3.39,3.39,0,0,1,1.41-2.62,50.14,50.14,0,0,0,10.17-11.39A3.07,3.07,0,0,1,228.85,89.71Zm33,51.08c0,5.12-2.56,7.36-7.88,7.36a31.21,31.21,0,0,1-4.54-.32,3.36,3.36,0,0,1,1-6.66,23.84,23.84,0,0,0,2.94.19c1,0,1.48-.44,1.48-1.72V116.21H238.77c-1.67,0-2.56-1.6-2.56-3.14s.89-3.13,2.56-3.13h32.39c1.73,0,2.62,1.53,2.62,3.13s-.89,3.14-2.62,3.14h-9.28Zm-19.27-41.1c-1.66,0-2.56-1.6-2.56-3.13s.9-3.14,2.56-3.14h24.2c1.72,0,2.62,1.54,2.62,3.14s-.9,3.13-2.62,3.13Z" transform="translate(-50.18 -43.05)"/><path class="b" d="M314.69,118.9a6.53,6.53,0,1,1-6.53-6.53A6.56,6.56,0,0,1,314.69,118.9Z" transform="translate(-50.18 -43.05)"/><path class="b" d="M350.09,130.8a17.36,17.36,0,0,1,.7-4.8,3.54,3.54,0,0,1,3.59-2.56c1.79,0,3.52,1.09,3.52,3a5.46,5.46,0,0,1-.13.89,13.47,13.47,0,0,0-.39,3.2c0,4,2.18,6.21,14.15,6.21A88.33,88.33,0,0,0,389,134.84a5.7,5.7,0,0,1,1-.13,3.4,3.4,0,0,1,3.39,3.52,3.75,3.75,0,0,1-3.13,3.65,84.45,84.45,0,0,1-18.76,2C356.1,143.86,350.09,139.51,350.09,130.8Zm20.54-31.87a77.59,77.59,0,0,0,11.46-.71,3.54,3.54,0,0,1,1.15,7,88.92,88.92,0,0,1-12.54.77,70.8,70.8,0,0,1-13.32-1.09,3.51,3.51,0,0,1-2.81-3.52,3.46,3.46,0,0,1,4.22-3.59A60.93,60.93,0,0,0,370.63,98.93Zm15.62-4.42a2.62,2.62,0,0,1,2.69-2.37,2.56,2.56,0,0,1,1.92.9,33.67,33.67,0,0,1,4.48,6,2.87,2.87,0,0,1,.45,1.54,2.62,2.62,0,0,1-2.62,2.56,2.46,2.46,0,0,1-2.18-1.41,44.84,44.84,0,0,0-4.23-5.82A2.16,2.16,0,0,1,386.25,94.51ZM393,90a2.49,2.49,0,0,1,2.62-2.24,2.94,2.94,0,0,1,2.11.89,32.15,32.15,0,0,1,4.42,5.7,3.41,3.41,0,0,1,.58,1.73,2.52,2.52,0,0,1-2.56,2.5,2.9,2.9,0,0,1-2.37-1.41,67.63,67.63,0,0,0-4.23-5.76A2.24,2.24,0,0,1,393,90Z" transform="translate(-50.18 -43.05)"/><path class="b" d="M415.38,125.62a47.83,47.83,0,0,1-4.42,8.45,3.34,3.34,0,0,1-2.69,1.66,2.76,2.76,0,0,1-2.75-2.69,3.09,3.09,0,0,1,.58-1.73,66.07,66.07,0,0,0,8.45-19.52h-5.7c-1.6,0-2.43-1.53-2.43-3s.83-3,2.37-3h6.33V99.69a39.44,39.44,0,0,1-4.48.84,2.89,2.89,0,0,1-3.39-3,2.81,2.81,0,0,1,2.43-2.88,71.47,71.47,0,0,0,14.21-4.23,3.4,3.4,0,0,1,1.35-.25,3.25,3.25,0,0,1,3.07,3.32,3,3,0,0,1-1.92,2.76c-1.54.64-3.2,1.21-4.8,1.73v7.8h4.61c1.6,0,2.43,1.48,2.43,3s-.83,3-2.43,3h-4.61v5a37,37,0,0,1,6.53,6.09,3.27,3.27,0,0,1,.83,2,2.89,2.89,0,0,1-2.82,2.82,2.84,2.84,0,0,1-2.24-1.22c-.64-.83-1.41-1.72-2.3-2.68v22.59c0,1.79-1.6,2.69-3.2,2.69s-3.27-.9-3.27-2.69v-6.91ZM451.8,95.34c4,0,6.21,1.86,6.21,4.55a6.79,6.79,0,0,1-1.22,3.64c-4.54,7.37-14.14,15-23.42,19a3.36,3.36,0,0,1-1.48.32,3,3,0,0,1-2.94-3,3.17,3.17,0,0,1,2.11-2.88,50.62,50.62,0,0,0,9.79-5.51c-.7-.7-1.4-1.28-2-1.85a2.44,2.44,0,0,1-.9-1.8,3.21,3.21,0,0,1,3.2-2.88,3.07,3.07,0,0,1,2,.71c.84.64,1.61,1.34,2.37,2a30.3,30.3,0,0,0,4.74-5.44,1.84,1.84,0,0,0,.38-.89c0-.39-.38-.58-1.08-.58h-7a51,51,0,0,1-8,7,3.48,3.48,0,0,1-2,.71,3.06,3.06,0,0,1-3.07-3,3.26,3.26,0,0,1,1.6-2.69,44,44,0,0,0,11.26-12,3.34,3.34,0,0,1,2.88-1.54c1.73,0,3.4,1.15,3.4,2.75a3.34,3.34,0,0,1-.52,1.6,13.3,13.3,0,0,1-1.15,1.73Zm6.79,24c4.16,0,6.53,2,6.53,4.74a7.32,7.32,0,0,1-1.29,3.84c-5.18,8.39-16.89,16.13-28.42,19.85a4.59,4.59,0,0,1-1.21.19,3.15,3.15,0,0,1-.71-6.21,59,59,0,0,0,13.25-6.27,25.59,25.59,0,0,0-2.43-2.25,2.42,2.42,0,0,1-.89-1.85,3.21,3.21,0,0,1,3.2-2.95,3,3,0,0,1,2,.71,25.36,25.36,0,0,1,3.07,2.75,28.21,28.21,0,0,0,5.51-5.7,1.79,1.79,0,0,0,.32-.76c0-.39-.39-.58-1.15-.58h-8.26a61.72,61.72,0,0,1-10.56,7.55,3.47,3.47,0,0,1-1.8.52,3.08,3.08,0,0,1-3.07-3.08,3.17,3.17,0,0,1,1.86-2.75,48.88,48.88,0,0,0,15.17-12.8,3.35,3.35,0,0,1,2.75-1.41,3,3,0,0,1,3.2,2.75,2.9,2.9,0,0,1-.64,1.73,20.45,20.45,0,0,1-1.54,2Z" transform="translate(-50.18 -43.05)"/><path class="b" d="M484.77,105.9H472.16a2.75,2.75,0,0,1,0-5.44h12.61V98c-2.82.25-5.57.44-8.13.51a2.76,2.76,0,1,1-.13-5.51,161.08,161.08,0,0,0,22.08-2.56,3,3,0,0,1,3.65,3,2.81,2.81,0,0,1-2.62,2.81c-2.69.45-5.51.83-8.39,1.16v3.13h11.46a2.47,2.47,0,0,1,2.37,2.75,2.44,2.44,0,0,1-2.37,2.69H491.23v2.75h4.93c4.8,0,6.85,1.93,6.85,5.57v8.9c-.06,4.42-2.94,5.51-6.85,5.57h-4.93v2.69h8.45a2.6,2.6,0,0,1,0,5.18h-8.45v2.95c2.69-.32,5.31-.77,7.94-1.22A2.69,2.69,0,0,1,502.5,141a2.64,2.64,0,0,1-2.31,2.62,186.15,186.15,0,0,1-26.56,3.21,3,3,0,0,1-3.07-3.08,2.7,2.7,0,0,1,2.81-2.81c3.46-.13,7.43-.39,11.4-.77v-3.59h-9.09a2.6,2.6,0,0,1,0-5.18h9.09v-2.69h-4.48c-4.8,0-6.85-1.92-6.85-5.57v-8.9c0-3.64,2.05-5.57,6.85-5.57h4.48Zm.25,10.56v-3h-4c-1.21,0-1.6.44-1.6,1.4v1.6Zm0,7.43v-3h-5.57v1.79c0,1.09.64,1.22,1.6,1.22Zm6-7.43h6v-1.6c0-1-.38-1.4-1.6-1.4H491Zm4.41,7.43c1.22,0,1.6-.26,1.6-1.22v-1.79h-6v3Zm21.83-12.67c-.26,16.06-3.14,27.07-9.41,35.78a3.71,3.71,0,0,1-3.07,1.6,3.16,3.16,0,0,1-3.33-2.95,4.12,4.12,0,0,1,.83-2.24,47.61,47.61,0,0,0,3.33-5.5,54.76,54.76,0,0,0,4.8-18.63c.19-2.62.26-5.25.32-7.94l-3.52.07c-1.79.06-2.69-1.54-2.69-3.08s.83-2.94,2.5-2.94l3.78-.06V92.72c0-1.92,1.6-2.82,3.26-2.82s3.2.9,3.2,2.82V105.2l4.23-.07c5.69-.12,7.1,2.37,7.1,6.66a228.31,228.31,0,0,1-1.41,27.46c-.83,6.53-3.33,8.64-7.61,8.64a22.54,22.54,0,0,1-4.17-.32,3,3,0,0,1-2.68-3.13c0-1.86,1.4-3.78,3.58-3.33a14.93,14.93,0,0,0,2.3.19c1.22,0,1.73-.45,2.05-2.75A189.83,189.83,0,0,0,522,112.62c0-1.08-.32-1.47-1.53-1.47Z" transform="translate(-50.18 -43.05)"/><path class="b" d="M535.75,128.53c0-10.94,9.08-19.92,22.28-19.92,11.71,0,18.48,7.34,18.48,16.9,0,8.69-5.14,15.07-13.39,17.71a3.28,3.28,0,0,1-1.11.19,2.69,2.69,0,0,1-2.69-2.73,2.76,2.76,0,0,1,2-2.64c6.82-2.45,9.55-6.58,9.55-12.53,0-6.29-4.27-11.48-11.57-12-.48,8-2.45,15.17-5.42,20.4-2.64,4.65-5.47,6.05-9.17,6.05C539.83,140,535.75,136,535.75,128.53Zm5.52,0c0,4.42,1.73,6.05,3.46,6.05,1.49,0,2.78-.77,4.18-3.22,2.44-4.27,4.22-10.46,4.8-17.52A15.21,15.21,0,0,0,541.27,128.53Z" transform="translate(-50.18 -43.05)"/><path class="b" d="M208.58,203.05c0,2.12-1.86,3.14-3.71,3.14s-3.72-1-3.72-3.14V191.92H191.3a3.22,3.22,0,0,1,0-6.41h9.85V175c0-2.18,1.86-3.2,3.72-3.2s3.71,1,3.71,3.2v10.49h14.47V174.12c0-2.11,1.85-3.14,3.71-3.14s3.71,1,3.71,3.14v11.39h11.2a3.22,3.22,0,0,1,0,6.41h-11.2v2c0,15.55-7.1,25.8-18.75,31a4.21,4.21,0,0,1-1.73.39,3.59,3.59,0,0,1-3.59-3.59,3.68,3.68,0,0,1,2.37-3.39c9.48-4.54,14.28-11.65,14.28-25v-1.47H208.58Z" transform="translate(-50.18 -43.05)"/><path class="b" d="M265.17,196.27a3.58,3.58,0,0,1,3.71,3.45,3.66,3.66,0,0,1-.32,1.6,42.4,42.4,0,0,1-9.15,13.83,4.28,4.28,0,0,1-3,1.35,3.7,3.7,0,0,1-3.78-3.46,3.76,3.76,0,0,1,1.35-2.82,37.07,37.07,0,0,0,7.74-11.65A3.65,3.65,0,0,1,265.17,196.27ZM283.86,217c0,6.46-3.2,9-8.77,9a27.73,27.73,0,0,1-4.93-.39,3.55,3.55,0,0,1-3-3.64,3.61,3.61,0,0,1,4.29-3.78,17.08,17.08,0,0,0,2.75.26c1.41,0,2-.45,2-2.31V190.19H257.61a3.15,3.15,0,0,1-3.07-3.4,3.11,3.11,0,0,1,3.07-3.39h18.57v-9.54c0-2.17,2-3.26,3.9-3.26s3.78,1,3.78,3.14v9.66h18.31a3.11,3.11,0,0,1,3.07,3.39,3.15,3.15,0,0,1-3.07,3.4H283.86ZM305,209.39a4.8,4.8,0,0,1,1.22,2.94,3.83,3.83,0,0,1-3.84,3.72,4.45,4.45,0,0,1-3.59-2,78.34,78.34,0,0,1-7.68-12.93,4.23,4.23,0,0,1-.38-1.66,3.41,3.41,0,0,1,3.65-3.27,3.78,3.78,0,0,1,3.52,2.18A65.84,65.84,0,0,0,305,209.39Zm4-34.69a6.88,6.88,0,1,1-6.85-6.85A6.79,6.79,0,0,1,309,174.7Zm-3.2,0a3.61,3.61,0,0,0-3.65-3.65,3.66,3.66,0,0,0-3.71,3.65,3.72,3.72,0,0,0,3.71,3.71A3.66,3.66,0,0,0,305.75,174.7Z" transform="translate(-50.18 -43.05)"/><path class="b" d="M367.52,194.28a3.66,3.66,0,0,1,0,7.3H320.79a3.66,3.66,0,0,1,0-7.3Z" transform="translate(-50.18 -43.05)"/><path class="b" d="M408,191.21a3.65,3.65,0,0,1,3.14-2,3.86,3.86,0,0,1,1.66.38,75.14,75.14,0,0,1,13.57,8.19,4.13,4.13,0,0,1,1.8,3.33,3.72,3.72,0,0,1-3.65,3.78,4.33,4.33,0,0,1-2.69-1,111.87,111.87,0,0,0-12-7.68,4.62,4.62,0,0,1-1.86-1.8v27.59c0,2.24-1.86,3.33-3.78,3.33s-3.77-1.09-3.77-3.33V173.22a3.5,3.5,0,0,1,3.77-3.39c1.92,0,3.78,1.15,3.78,3.39Z" transform="translate(-50.18 -43.05)"/><path class="b" d="M448.34,187.47a2.59,2.59,0,0,1,2.83,2.69c-.1,1.48-.19,2.64-.19,4.37,0,16.8,3.4,21.21,5.42,21.21,1.15,0,2.16-.77,3.12-4.36a2.46,2.46,0,0,1,2.45-2.07,2.65,2.65,0,0,1,2.74,2.59,2.31,2.31,0,0,1-.1.82c-1.78,6.43-4.85,8.78-8.07,8.78-7,0-11.18-8.59-11.18-26.83,0-2.21.1-3.65.19-4.9A2.64,2.64,0,0,1,448.34,187.47Zm36.19,20.35a4.4,4.4,0,0,1,.19,1,2.59,2.59,0,0,1-2.68,2.55,2.65,2.65,0,0,1-2.55-1.83,42.55,42.55,0,0,0-8.3-13.06,2.49,2.49,0,0,1-.82-1.77,2.66,2.66,0,0,1,2.74-2.45,3.18,3.18,0,0,1,2.11.91A38.54,38.54,0,0,1,484.53,207.82Z" transform="translate(-50.18 -43.05)"/><path class="b" d="M494.7,197.93a2.36,2.36,0,0,1-2.64-2.49,2.52,2.52,0,0,1,2.45-2.64,63.18,63.18,0,0,0,6.82-.82c.43-2.64.62-4.75.91-7.39a2.69,2.69,0,0,1,5.33.48c-.24,2.3-.48,4-.77,5.85,1.35-.28,2.74-.62,4.13-1a4.43,4.43,0,0,1,.72-.09,2.44,2.44,0,0,1,2.4,2.54,2.38,2.38,0,0,1-1.87,2.36c-2.21.62-4.32,1.15-6.24,1.58a145.84,145.84,0,0,1-6.72,25.25,3.16,3.16,0,0,1-2.93,2.11,2.53,2.53,0,0,1-2.64-2.45,3.42,3.42,0,0,1,.29-1.34,127.72,127.72,0,0,0,6.43-22.56C498.3,197.65,496.38,197.84,494.7,197.93Zm18,13.35a2.16,2.16,0,0,1,2.3,2c.34,3.08,2.06,3.94,7.3,3.94a42.88,42.88,0,0,0,6.48-.48,2.57,2.57,0,0,1,3,2.64,2.52,2.52,0,0,1-2.21,2.55,45.8,45.8,0,0,1-7.2.52c-8.25,0-12-2.54-12.38-8.45A2.55,2.55,0,0,1,512.71,211.28Zm14.45-14.45a2.49,2.49,0,0,1,2.59,2.59,2.34,2.34,0,0,1-2.45,2.45,64.94,64.94,0,0,0-11.71,1.25,2.41,2.41,0,0,1-3-2.45,2.58,2.58,0,0,1,2.21-2.55A67,67,0,0,1,527.16,196.83Z" transform="translate(-50.18 -43.05)"/><path class="b" d="M549.23,186a2.59,2.59,0,0,1,2.79-2.4c1.48,0,2.93.91,2.78,2.64-.53,7.11-1,16.23-1,23.62,0,6.43,2,8.16,5.38,8.16,4.46,0,8.64-1.83,13.06-7.3a2.91,2.91,0,0,1,2.3-1.2,2.77,2.77,0,0,1,2.83,2.64,2.86,2.86,0,0,1-.67,1.78c-5.47,6.82-11.28,9.41-17.52,9.41-7.15,0-10.95-3.55-10.95-13.54C548.22,202.16,548.71,193,549.23,186Z" transform="translate(-50.18 -43.05)"/><path class="b" d="M610.58,186.51v2.21c3.84-.05,7.63,0,10.94.09a2.46,2.46,0,0,1,2.45,2.6,2.33,2.33,0,0,1-2.45,2.44c-3.21-.09-7-.09-10.85,0,0,1.69.05,3.37.15,5,3.17-.2,6.24-.44,9-.77a2.46,2.46,0,0,1,2.93,2.45,2.53,2.53,0,0,1-2.35,2.54c-2.93.38-6.1.62-9.31.82.09,2.11.28,4.22.48,6.33a43.85,43.85,0,0,1,12,5.24,3,3,0,0,1,1.64,2.59,2.87,2.87,0,0,1-2.83,2.83,2.84,2.84,0,0,1-1.64-.53,44.81,44.81,0,0,0-8.88-4.61v.34c0,5.18-4.51,7.68-10.08,7.68-6.09,0-9.84-2.93-9.84-7.39,0-4.18,3.46-7.4,10.32-7.4a36.91,36.91,0,0,1,3.89.24c-.14-1.72-.34-3.45-.38-5.13h-2.74c-2.88,0-5.81-.1-7.49-.29a2.49,2.49,0,0,1-2.3-2.54A2.43,2.43,0,0,1,596,198.7,66.88,66.88,0,0,0,603,199h2.59c-.1-1.73-.15-3.41-.19-5.14-4.08.1-8.07.24-11.43.39a2.55,2.55,0,0,1-.1-5.09c3.36-.2,7.35-.34,11.43-.39V184c0-1.44,1.34-2.16,2.69-2.16s2.64.72,2.64,2.16Zm-3.94,28.8v-1.06a23,23,0,0,0-4.32-.43c-3.74,0-4.85,1.15-4.85,2.6,0,1.29,1.25,2.4,4.37,2.4S606.64,217.33,606.64,215.31Z" transform="translate(-50.18 -43.05)"/><path class="b" d="M657.62,213.73a5.29,5.29,0,0,1-3.55,1.2c-4.71,0-8.16-3.17-8.16-8.64,0-4.71,3-8,7.44-8a11.37,11.37,0,0,1,2.88.38c-.05-1.29-.1-2.54-.15-3.84-6.48.29-13,.63-18.62,1a2.58,2.58,0,0,1-2.69-2.74,2.48,2.48,0,0,1,2.45-2.59c5.66-.33,12.24-.67,18.81-.91,0-1.73,0-3.7,0-5.86a2.46,2.46,0,0,1,2.68-2.35,2.38,2.38,0,0,1,2.6,2.3v5.72c5-.15,9.79-.24,14.06-.24a2.45,2.45,0,0,1,2.5,2.64,2.39,2.39,0,0,1-2.31,2.54c-4.27,0-9.17.15-14.16.29,0,2.78.15,5.52.34,8.3a12.32,12.32,0,0,1,1.63,6.39c0,7.58-3.89,12.82-10.8,16a3.38,3.38,0,0,1-1.3.29,2.72,2.72,0,0,1-2.73-2.69,2.68,2.68,0,0,1,1.87-2.44c3.89-1.68,6.53-4.42,7.39-6.73Zm-6.63-7.3a3.57,3.57,0,0,0,3.32,3.79c1.63,0,2.83-1.15,2.83-3.36s-1.3-3.84-3.36-3.84C652.15,203,651,204.32,651,206.43Z" transform="translate(-50.18 -43.05)"/><path class="b" d="M699.19,216.8a8,8,0,1,1-8-7.92A7.94,7.94,0,0,1,699.19,216.8Zm-12.77,0a4.73,4.73,0,1,0,4.75-4.71A4.67,4.67,0,0,0,686.42,216.8Z" transform="translate(-50.18 -43.05)"/></svg>