<svg xmlns="http://www.w3.org/2000/svg" version="1.1" xmlns:xlink="http://www.w3.org/1999/xlink" xmlns:svgjs="http://svgjs.com/svgjs" width="1000" height="400" preserveAspectRatio="none" viewBox="0 0 1000 400"><g mask="url(&quot;#SvgjsMask1210&quot;)" fill="none"><rect width="1000" height="400" x="0" y="0" fill="url(#SvgjsLinearGradient1211)"></rect><path d="M1000 0L645.73 0L1000 13.4z" fill="rgba(255, 255, 255, .1)"></path><path d="M645.73 0L1000 13.4L1000 158.68L587.35 0z" fill="rgba(255, 255, 255, .075)"></path><path d="M587.35 0L1000 158.68L1000 193.33L486.86 0z" fill="rgba(255, 255, 255, .05)"></path><path d="M486.86 0L1000 193.33L1000 312.86L170.43 0z" fill="rgba(255, 255, 255, .025)"></path><path d="M0 400L303.72 400L0 212.62z" fill="rgba(0, 0, 0, .1)"></path><path d="M0 212.62L303.72 400L360.43 400L0 202.06z" fill="rgba(0, 0, 0, .075)"></path><path d="M0 202.06L360.43 400L390.99 400L0 138.91z" fill="rgba(0, 0, 0, .05)"></path><path d="M0 138.91000000000003L390.99 400L696.88 400L0 49.06000000000003z" fill="rgba(0, 0, 0, .025)"></path></g><defs><mask id="SvgjsMask1210"><rect width="1000" height="400" fill="#ffffff"></rect></mask><linearGradient x1="15%" y1="-37.5%" x2="85%" y2="137.5%" gradientUnits="userSpaceOnUse" id="SvgjsLinearGradient1211"><stop stop-color="rgba(175, 255, 162, 1)" offset="0"></stop><stop stop-color="rgba(0, 158, 61, 1)" offset="1"></stop></linearGradient></defs></svg>