<svg xmlns="http://www.w3.org/2000/svg" version="1.1" xmlns:xlink="http://www.w3.org/1999/xlink" xmlns:svgjs="http://svgjs.com/svgjs" width="1000" height="400" preserveAspectRatio="none" viewBox="0 0 1000 400"><g mask="url(&quot;#SvgjsMask1108&quot;)" fill="none"><path d="M 0,50 C 66.8,59.4 200.4,102.4 334,97 C 467.6,91.6 534.8,22.6 668,23 C 801.2,23.4 933.6,83.8 1000,99L1000 400L0 400z" fill="rgba(253, 255, 204, 1)"></path><path d="M 0,165 C 66.8,173.4 200.4,206 334,207 C 467.6,208 534.8,158.4 668,170 C 801.2,181.6 933.6,246 1000,265L1000 400L0 400z" fill="rgba(254, 255, 235, 1)"></path><path d="M 0,327 C 66.8,332 200.4,351.8 334,352 C 467.6,352.2 534.8,330 668,328 C 801.2,326 933.6,339.2 1000,342L1000 400L0 400z" fill="rgba(255, 255, 255, 1)"></path></g><defs><mask id="SvgjsMask1108"><rect width="1000" height="400" fill="#ffffff"></rect></mask></defs></svg>