<svg xmlns="http://www.w3.org/2000/svg" version="1.1" xmlns:xlink="http://www.w3.org/1999/xlink" xmlns:svgjs="http://svgjs.com/svgjs" width="1000" height="500" preserveAspectRatio="none" viewBox="0 0 1000 500"><g mask="url(&quot;#SvgjsMask1098&quot;)" fill="none"><rect width="1000" height="500" x="0" y="0" fill="rgba(255, 255, 196, 1)"></rect><path d="M0,303.843C57.417,301.497,111.939,280.433,159.431,248.08C206.047,216.324,230.669,165.074,267.018,121.943C319.089,60.158,415.548,20.424,419.318,-60.289C422.967,-138.414,342.237,-193.829,284.217,-246.275C231.634,-293.807,171.598,-334.058,101.94,-347.176C35.944,-359.604,-27.311,-330.428,-93.181,-317.347C-166.548,-302.777,-252.092,-316.823,-306.95,-265.974C-362.609,-214.382,-369.053,-129.682,-377.058,-54.213C-384.827,19.033,-392.889,99.442,-352.223,160.855C-312.8,220.391,-234.191,234.6,-168.03,261.459C-113.402,283.636,-58.909,306.25,0,303.843" fill="#ffff85"></path><path d="M1000 877.0029999999999C1072.132 880.654 1151.257 866.544 1203.5430000000001 816.719 1253.987 768.649 1233.162 682.8 1267.451 622.141 1306.83 552.478 1424.91 519.699 1416.423 440.127 1408.051 361.63800000000003 1286.348 356.276 1232.899 298.192 1181.924 242.796 1183.106 141.543 1114.061 111.543 1045.435 81.72500000000002 965.989 121.39999999999998 898.019 152.685 836.8050000000001 180.86 793.623 232.14 746.7860000000001 280.589 697.107 331.978 638.396 376.973 615.679 444.743 590.6510000000001 519.409 576.227 607.198 614.1759999999999 676.2 651.779 744.573 740.063 760.74 809.281 796.764 871.726 829.264 929.694 873.4449999999999 1000 877.0029999999999" fill="#ffffff"></path></g><defs><mask id="SvgjsMask1098"><rect width="1000" height="500" fill="#ffffff"></rect></mask></defs></svg>