<svg id="レイヤー_1" data-name="レイヤー 1" xmlns="http://www.w3.org/2000/svg" viewBox="0 0 120.5 120.5"><defs><style>.cls-1{fill:#01516c;}.cls-2{fill:#ffcfab;}</style></defs><circle class="cls-1" cx="60.25" cy="60.25" r="60.25"/><path class="cls-2" d="M30.84,14.11a60.78,60.78,0,0,0-16.71,16.7V97.69a60.58,60.58,0,0,0,13.93,14.73h72.38a60.58,60.58,0,0,0,13.93-14.73V34.07a12.64,12.64,0,0,0-.83-4.45A60.54,60.54,0,0,0,95,12.44a12.38,12.38,0,0,0-2.52-.26H89.31V37.24H30.84ZM97.66,53.67v42H30.84v-42Z" transform="translate(-4 -4)"/><rect class="cls-2" x="64.43" y="8.18" width="12.53" height="16.71"/><rect class="cls-2" x="35.19" y="58.3" width="50.12" height="8.35"/><rect class="cls-2" x="35.19" y="75" width="50.12" height="8.35"/></svg>